<?xml version="1.0" encoding="UTF-8"?>
<svg width="66px" height="66px" viewBox="0 0 66 66" version="1.1" xmlns="http://www.w3.org/2000/svg" xmlns:xlink="http://www.w3.org/1999/xlink">
    <!-- Generator: Sketch 58 (84663) - https://sketch.com -->
    <title>Heart Icon</title>
    <desc>Created with Sketch.</desc>
    <g id="Scratch" stroke="none" stroke-width="1" fill="none" fill-rule="evenodd">
        <g id="🚦Work-Page-Copy" transform="translate(-16.000000, -4170.000000)">
            <g id="Group-10">
                <g id="🚦Group-8" transform="translate(0.000000, 601.000000)">
                    <g id="🚥Thanks-for-Reading!-2" transform="translate(16.000000, 3553.000000)">
                        <g id="Heart-Icon" transform="translate(0.000000, 16.000000)">
                            <rect id="Rectangle" fill="#ECEDF1" x="0" y="0" width="66" height="66"></rect>
                            <g id="Group-9" transform="translate(0.000000, 3.000000)">
                                <path d="M47.0588235,3.55271368e-15 C57.4547718,3.55271368e-15 65.8823529,8.42758118 65.8823529,18.8235294 C65.8823529,19.0707157 65.8775884,19.3167891 65.8681461,19.5616629 L65.8823529,20 C65.8823529,33.3333333 55.2941176,46.6666667 34.1176471,60 C11.372549,43.5294118 -7.81597009e-14,30.1960784 -7.81597009e-14,20 C-7.81597009e-14,19.8656849 0.0050812406,19.7321865 0.0151544735,19.5995142 C0.0052699649,19.3422305 -7.81597009e-14,19.0834954 -7.81597009e-14,18.8235294 C-7.81597009e-14,8.42758118 8.42758118,3.55271368e-15 18.8235294,3.55271368e-15 C24.4459758,3.55271368e-15 29.4926793,2.46504794 32.9418462,6.37334989 C36.3899452,2.46491529 41.4365285,3.55271368e-15 47.0588235,3.55271368e-15 Z" id="Combined-Shape" fill="#175844"></path>
                                <circle id="Oval-Copy" fill="#478573" cx="18.8235294" cy="18.8235294" r="18.8235294"></circle>
                            </g>
                        </g>
                    </g>
                </g>
            </g>
        </g>
    </g>
</svg>