<svg version="1" xmlns="http://www.w3.org/2000/svg" width="933.333" height="933.333" viewBox="0 0 700.000000 700.000000"><path d="M214.5 104l-3 .5V350H104v6.2c-.3 30.9.1 85.2.5 85.6.2.3 24.4.5 53.7.6l53.3.1v61l-53.3.1c-29.3.1-53.5.4-53.8.7-.6.6-.7 90.7-.1 91.3.5.5 490.9.5 491.4 0s.4-90.8-.1-91.4c-.3-.2-66-.5-146.1-.5H304v-2.6c-.1-3.7-.1-132.9-.1-136.6l.1-3h292V323c.1-143.8 0-218.3-.4-218.7-.6-.6-90.8-.5-91.4.1-.2.3-.4 37.4-.4 82.6v82l-4.7.1c-5.1.1-47.2 0-48.3 0-.5-.1-.8-37.2-.8-82.6V104l-8.2-.1c-41.1-.2-83.3.3-83.7 1-.3.5-.6 37.6-.5 82.5l.1 81.6-3.6.1c-13.4.3-49.3 0-49.8-.4-.2-.3-.5-37.5-.5-82.6V104h-4.7c-52.3-.4-82.2-.4-84.6 0z"/></svg>