<?xml version="1.0" standalone="no"?>
<!DOCTYPE svg PUBLIC "-//W3C//DTD SVG 20010904//EN"
 "http://www.w3.org/TR/2001/REC-SVG-20010904/DTD/svg10.dtd">
<svg version="1.0" xmlns="http://www.w3.org/2000/svg"
 width="16.000000pt" height="16.000000pt" viewBox="0 0 16.000000 16.000000"
 preserveAspectRatio="xMidYMid meet">
<metadata>
Created by potrace 1.11, written by Peter Selinger 2001-2013
</metadata>
<g transform="translate(0.000000,16.000000) scale(0.012500,-0.012500)"
fill="#000000" stroke="none">
<path d="M485 1260 c-236 -63 -422 -255 -470 -487 -14 -66 -14 -250 -1 -271 3
-5 7 -21 10 -35 6 -32 67 -161 93 -197 41 -56 147 -151 206 -184 137 -76 301
-102 450 -71 218 45 401 213 478 435 33 96 33 277 1 375 -57 172 -174 310
-323 382 -106 52 -160 65 -279 68 -68 2 -115 -2 -165 -15z"/>
</g>
</svg>
