<svg width="16" height="16" viewBox="0 0 16 16" fill="none" xmlns="http://www.w3.org/2000/svg">
<path d="M1 8.00002C1 4.75562 2.93132 1.9623 5.70701 0.707031L6.65436 1.65438C6.2352 2.51383 6 3.47946 6 4.50002C6 6.17206 6.63133 7.69665 7.66862 8.84841C7.33637 9.19511 7.04534 9.58161 6.80334 10H5C3.73913 10 2.5691 10.3889 1.60333 11.0534C1.21452 10.1125 1 9.08132 1 8.00002Z" fill="white"/>
<path d="M2.59948 12.8001C3.2681 12.2977 4.09928 12 5 12H8.12602C8.31357 11.2713 8.7013 10.623 9.2271 10.1171C9.94615 9.42534 10.9234 9.00002 12 9.00002C13.2458 9.00002 14.3587 9.56959 15.0923 10.4625C15.4703 10.9227 15.7476 11.4687 15.8906 12.0669C15.9621 12.3663 16 12.6787 16 13V16H1C1 14.6916 1.62822 13.5299 2.59948 12.8001Z" fill="white"/>
<path d="M12.5 7.00002L10 4.50002L12.5 2.00002L15 4.50002L12.5 7.00002Z" fill="white"/>
</svg>
