<svg width="16" height="16" viewBox="0 0 16 16" fill="none" xmlns="http://www.w3.org/2000/svg">
<path d="M8.49969 3C9.32812 3 9.99969 2.32843 9.99969 1.5C9.99969 0.671573 9.32812 0 8.49969 0C7.67127 0 6.99969 0.671573 6.99969 1.5C6.99969 2.32843 7.67127 3 8.49969 3Z" fill="white"/>
<path d="M4.754 4C3.86104 4 3.07627 4.59195 2.83095 5.45056L2.10254 8H4.18257L4.754 6H6.21892L3.96892 15H6.03047L7.14968 10.5232L8.84582 11.4924L7.96892 15H10.0305L10.7861 11.9775C11.0034 11.1082 10.6161 10.2005 9.8381 9.75591L7.65357 8.50761L8.14251 6.55188L9.26632 7.22616C9.56496 7.40535 9.90669 7.5 10.255 7.5C10.5894 7.5 10.918 7.41273 11.2083 7.24682L12.7458 6.36824L11.7536 4.63176L10.2559 5.48755L7.77668 4H4.754Z" fill="white"/>
</svg>
