<svg width="16" height="16" viewBox="0 0 16 16" fill="none" xmlns="http://www.w3.org/2000/svg">
<path fill-rule="evenodd" clip-rule="evenodd" d="M10.7636 1.78588L9.00046 2.80383V5.11323L10.0005 5.69059L12.0004 4.53591L12.0004 2.50001L14.0004 2.50001L14.0004 4.53589L15.7636 5.55385L14.7636 7.2859L13.0005 6.26795L11.0005 7.42265V8.57735L13.0005 9.73205L14.7636 8.7141L15.7636 10.4461L14.0005 11.4641V13.5H12.0005V11.4641L10.0005 10.3094L9.00046 10.8867V13.1961L10.7636 14.2141L9.7636 15.9461L8.00047 14.9282L6.23732 15.9462L5.23732 14.2141L7.00046 13.1962V10.8867L6.00047 10.3094L4.00046 11.4641L4.00046 13.5H2.00046L2.00046 11.4641L0.237305 10.4462L1.2373 8.71411L3.00044 9.73206L5.00046 8.57735V7.42264L3.00048 6.26795L1.23734 7.2859L0.237335 5.55385L2.00046 4.53591L2.00046 2.5H4.00046L4.00046 4.53589L6.00046 5.69059L7.00046 5.11324V2.80385L5.23732 1.7859L6.23732 0.0538512L8.00045 1.07179L9.7636 0.053833L10.7636 1.78588ZM9.00046 8C9.00046 8.55228 8.55274 9 8.00046 9C7.44817 9 7.00046 8.55228 7.00046 8C7.00046 7.44771 7.44817 7 8.00046 7C8.55274 7 9.00046 7.44771 9.00046 8Z" fill="white"/>
</svg>
