<svg width="20" height="20" viewBox="0 0 20 20" fill="none" xmlns="http://www.w3.org/2000/svg">
<mask id="path-1-inside-1" fill="white">
<path fill-rule="evenodd" clip-rule="evenodd" d="M6.9366 13.1756C10.3815 13.1756 13.1742 10.3829 13.1742 6.93798C13.1742 5.44463 12.6494 4.07385 11.7742 3C14.7874 3.83253 17 6.59381 17 9.87188C17 13.8089 13.8084 17.0005 9.87134 17.0005C6.59398 17.0005 3.83319 14.7889 3 11.7767C4.07365 12.6512 5.44389 13.1756 6.9366 13.1756Z"/>
</mask>
<path d="M11.7742 3L12.0405 2.03611L9.01787 1.20098L10.999 3.63177L11.7742 3ZM3 11.7767L3.63155 11.0013L1.20019 9.02087L2.03619 12.0433L3 11.7767ZM12.1742 6.93798C12.1742 9.83061 9.82924 12.1756 6.9366 12.1756L6.9366 14.1756C10.9338 14.1756 14.1742 10.9352 14.1742 6.93798H12.1742ZM10.999 3.63177C11.7341 4.53372 12.1742 5.68311 12.1742 6.93798H14.1742C14.1742 5.20614 13.5646 3.61398 12.5493 2.36823L10.999 3.63177ZM11.5079 3.96389C14.0988 4.67976 16 7.05508 16 9.87188L18 9.87188C18 6.13254 15.476 2.98531 12.0405 2.03611L11.5079 3.96389ZM16 9.87188C16 13.2566 13.2561 16.0005 9.87134 16.0005L9.87134 18.0005C14.3607 18.0005 18 14.3612 18 9.87188L16 9.87188ZM9.87134 16.0005C7.05515 16.0005 4.68024 14.1002 3.96381 11.5101L2.03619 12.0433C2.98613 15.4776 6.13281 18.0005 9.87134 18.0005L9.87134 16.0005ZM6.9366 12.1756C5.68227 12.1756 4.53333 11.7359 3.63155 11.0013L2.36845 12.552C3.61396 13.5665 5.20551 14.1756 6.9366 14.1756L6.9366 12.1756Z" fill="black" mask="url(#path-1-inside-1)"/>
</svg>
