<svg width="16" height="16" viewBox="0 0 16 16" fill="none" xmlns="http://www.w3.org/2000/svg">
<path d="M6.99982 0H8.99982V2H6.99982V0Z" fill="white"/>
<path d="M0.999817 9H6.99982V11H0.999817V9Z" fill="white"/>
<path d="M0.999817 15V13H14.9998V15H0.999817Z" fill="white"/>
<path d="M14.9998 9H8.99982V11H14.9998V9Z" fill="white"/>
<path d="M1.49713 4.22234L0.979492 6.15419L2.91134 6.67183L3.42898 4.73998L1.49713 4.22234Z" fill="white"/>
<path d="M14.5025 4.22234L15.0201 6.15419L13.0883 6.67183L12.5707 4.73998L14.5025 4.22234Z" fill="white"/>
<path d="M4.99982 7C4.99982 5.34315 6.34296 4 7.99982 4C9.65667 4 10.9998 5.34315 10.9998 7H4.99982Z" fill="white"/>
<path d="M11.4678 0.837769L13.0545 2.05529L11.837 3.642L10.2503 2.42448L11.4678 0.837769Z" fill="white"/>
<path d="M4.53184 0.837767L2.94513 2.05529L4.16265 3.642L5.74936 2.42447L4.53184 0.837767Z" fill="white"/>
</svg>
