<svg width="458" height="202" viewBox="0 0 458 202" fill="none" xmlns="http://www.w3.org/2000/svg">
<g clip-path="url(#clip0_1_36)">
<path fill-rule="evenodd" clip-rule="evenodd" d="M88.9151 66.5003C83.9151 53.0003 74.8151 16.1003 78.4151 -23.4997C82.0151 -63.0997 82.9152 -67.9997 82.9153 -65.4997C83.2485 -67.9998 84.9149 -73.2999 88.9151 -74.4999C92.9153 -75.6999 100.582 -69.3333 103.915 -65.9999C110.249 -60 123.915 -47 127.915 -43C129.497 -41.4188 132.628 -38.4374 136.25 -34.9889C144.081 -27.5329 154.206 -17.8931 155.915 -15.5C156.671 -14.4414 158.251 -12.468 160.197 -10.0363C164.686 -4.42825 171.125 3.61721 173.915 8.5C184.915 4.66666 211.015 -3.3 227.415 -4.5C247.915 -6 289.415 -6.5 293.915 -6C297.915 -17 308.515 -42.7 318.915 -57.5C322.312 -62.3342 325.948 -68.0903 329.761 -74.1258C340.539 -91.1875 352.727 -110.482 364.915 -117.5C366.415 -117.167 370.015 -115.6 372.415 -112C372.653 -111.643 372.939 -111.232 373.267 -110.76C377.067 -105.29 386.551 -91.6411 393.915 -58.5C400.315 -29.7 404.582 -2.5 405.915 7.5C406.749 15.5 408.515 33.1 408.915 39.5C420.749 52.1667 446.715 80.5 455.915 92.5C465.115 104.5 472.082 117.5 474.415 122.5C474.421 122.513 474.427 122.527 474.433 122.541C478.26 121.097 483.374 120.01 488.056 119.015L488.056 119.015C489.683 118.669 491.258 118.335 492.708 118C497.908 116.8 511.541 114.833 517.708 114L509.208 116.5L500.208 119C496.208 120 487.608 121.7 483.208 122.5C482.336 122.658 481.022 122.982 479.634 123.325C478.075 123.709 476.424 124.116 475.204 124.337C478.249 131.522 483.451 144.815 484.915 152.5C483.082 155.333 479.015 161.7 477.415 164.5C478.082 165.667 479.515 168.2 479.915 169C480.242 169.653 479.075 171.587 477.808 173.686C477.136 174.8 476.435 175.96 475.915 177C475.288 178.255 474.907 180.111 474.543 181.882C474.216 183.47 473.904 184.99 473.441 185.948C474.113 186.215 474.79 186.666 475.208 187C476.208 187.5 484.208 191.5 485.708 192C486.458 192.25 488.583 193.25 490.708 194.25C492.833 195.25 494.958 196.25 495.708 196.5C496.481 196.758 498.982 197.946 501.567 199.174C503.995 200.327 506.497 201.516 507.708 202C510.208 203 510.708 204.5 509.208 205C508.008 205.4 503.374 203.5 501.208 202.5C498.541 201.333 492.008 198.6 487.208 197C481.208 195 472.208 191 471.208 189.5C471.117 189.364 471.039 189.232 470.972 189.104C459.911 203.075 439.292 228.106 428.915 237C414.915 249 385.415 270 366.915 278.5C352.115 285.3 321.415 295 307.915 299C308.582 315.333 310.315 350.9 311.915 362.5C313.515 374.1 317.915 415 319.915 434C321.749 445 326.215 469.3 329.415 478.5C330.915 482.667 332.515 492.1 326.915 496.5C321.315 500.9 310.582 500.333 305.915 499.5C301.915 497 292.915 490.3 288.915 483.5C284.915 476.7 276.249 451.667 272.415 440L258.915 361.5C247.415 365.667 218.115 375 192.915 379C186.249 392.333 171.115 424.7 163.915 447.5C156.715 470.3 150.582 486.667 148.415 492C146.082 494.667 139.815 500.4 133.415 502C127.015 503.6 118.749 502.667 115.415 502C113.749 500.5 110.915 494 112.915 480C113.278 477.464 113.671 474.634 114.092 471.61C116.575 453.769 119.995 429.189 123.415 418.5C126.615 408.5 130.415 392.333 131.915 385.5C122.249 386.667 99.6153 389.1 86.4153 389.5C73.2153 389.9 59.2487 391 53.9153 391.5C49.582 400.167 39.0153 420 31.4153 430C23.8153 440 10.2486 449.833 4.41531 453.5C0.581985 454.333 -7.88469 459 -11.0847 471C-11.5594 472.78 -12.0342 474.61 -12.5148 476.462C-16.0835 490.215 -19.9749 505.212 -26.5847 510.5C-32.5847 515.3 -38.7514 515.833 -41.0847 515.5C-46.7514 514.667 -57.9847 509.6 -57.5847 496C-57.1847 482.4 -55.7514 468.333 -55.0848 463C-54.2515 458.5 -52.5848 452 -47.0848 445C-40.3585 436.439 -29.1848 417.8 -27.5848 407C-26.2515 402.833 -23.8848 393.9 -25.0848 391.5C-26.2848 389.1 -40.2515 405.167 -47.0848 413.5L-47.1957 413.614C-57.5918 424.346 -81.875 449.413 -93.0848 453C-95.7452 453.851 -98.7 454.748 -101.756 455.675C-113.061 459.106 -125.755 462.958 -130.085 466.5C-133.418 469.833 -141.785 479.9 -148.585 493.5C-155.385 507.1 -163.752 518.167 -167.085 522C-169.585 524.333 -176.985 528.8 -186.585 528C-196.185 527.2 -197.252 515.667 -196.585 510L-186.585 468C-184.418 458.667 -179.285 439.2 -176.085 436C-172.085 432 -154.085 414 -149.085 407.5L-148.992 407.379C-143.937 400.808 -132.011 385.306 -120.085 354C-110.485 328.8 -104.418 315.167 -102.585 311.5C-98.7514 305.333 -89.9848 291.9 -85.5848 287.5C-99.5848 281.333 -131.785 265.9 -148.585 253.5C-169.585 238 -191.585 211 -198.585 187C-205.585 163 -200.085 130.5 -192.085 117C-191.138 115.402 -190.162 113.698 -189.142 111.915C-181.542 98.6395 -171.421 80.9609 -151.585 69.5C-133.585 59.1 -127.752 70.1667 -127.085 77C-127.918 79.5 -131.385 86.4 -138.585 94C-139.896 95.384 -141.335 96.8635 -142.849 98.4215C-151.733 107.558 -163.241 119.394 -167.085 130.5C-168.378 134.236 -169.713 136.61 -170.875 138.676C-173.757 143.801 -175.579 147.041 -173.085 164.5C-170.285 184.1 -150.252 208.667 -140.585 218.5C-132.418 226 -112.885 242.6 -100.085 249C-87.285 255.4 -65.7516 264.333 -56.585 268C-50.085 263.667 -28.885 255.3 3.91504 256.5C36.715 257.7 70.915 252.333 83.915 249.5C75.0817 241.833 56.015 224 50.415 214C50.3758 213.93 50.3367 213.86 50.2976 213.79C49.3109 215.366 46.9555 218.113 45.7075 219.5C42.8742 222.333 37.0075 228.1 36.2075 228.5C35.2075 229 27.7075 237 25.2075 240C22.7075 243 17.2075 247.5 16.7075 246.5C16.3838 245.853 16.8983 245.205 17.844 244.015C18.3591 243.367 19.0022 242.558 19.7075 241.5C21.3075 239.1 27.7075 232.5 30.7075 229.5C32.5408 228.167 37.2075 224.3 41.2075 219.5C44.5112 215.536 47.5875 213.117 49.3096 212.02C42.8876 200.473 38.2814 191.278 35.915 178.5C35.6052 175.866 36.1785 170.631 37.5577 163.934C35.6579 163.189 27.9332 163 24.2075 163C19.5408 163.167 9.40752 163.5 6.20752 163.5C2.20752 163.5 -2.79248 164.5 -5.29248 165C-7.79248 165.5 -13.7925 165.5 -13.7925 164.5C-13.7925 163.5 -11.7925 163 -10.2925 163C-8.79248 163 -5.29248 162.5 -2.79248 162C-0.79248 161.6 7.70752 160.833 11.7075 160.5H32.2075C35.0075 160.5 37.0408 160.833 37.7075 161C37.8773 161.029 38.0291 161.072 38.1645 161.125C41.5044 146.329 48.3238 125.813 57.915 110C72.715 85.6 84.7484 70.8335 88.9151 66.5003Z" fill="#070A03"/>
<path d="M222.037 90.8626L221.867 91.3252L221.933 91.8134C223.594 104.274 230.531 115.927 233.821 120.257C244.819 134.807 277.725 166.403 323.041 163.544C350.902 161.787 367.076 157.914 377.836 153.167C386.478 149.355 391.597 144.969 396.261 140.973C397.411 139.988 398.533 139.027 399.673 138.103C405.013 133.78 410.864 128.186 415.775 122.191C420.659 116.229 424.743 109.714 426.35 103.554L426.453 103.159L426.393 102.756C424.301 88.6345 417.453 76.2589 397.329 56.1347C386.186 44.9918 371.318 35.3832 356.639 29.6845C345.173 25.2332 333.568 23.1036 326.489 21.8044C326.069 21.7274 325.665 21.6533 325.278 21.5818L325.216 21.5703L325.153 21.5627C312.335 20.0245 286.728 20.3376 262.166 39.9873C237.88 59.4162 225.329 81.8524 222.037 90.8626Z" fill="#EBFFD3" stroke="black" stroke-width="4"/>
<path d="M266.415 44.4995C246.649 59.2344 234.551 78.3016 229.76 88.4282C228.841 90.3713 228.907 92.6064 229.78 94.5708L236.415 109.5C244.415 120 265.115 142.5 283.915 148.5C302.715 154.5 317.415 155.333 322.415 155C338.415 155.333 374.415 152.6 390.415 139C410.415 122 419.415 107 419.415 103C419.415 99.8 415.082 90.6667 412.915 86.5C408.415 77 392.915 62 381.415 52.4999C363.965 38.0844 332.915 29.9996 318.415 28.9995C309.415 27.9999 288.415 28.0995 266.415 44.4995Z" fill="url(#paint0_radial_1_36)"/>
<path d="M289.915 45.5001C292.715 37.5001 297.415 37.5001 299.415 38.5001C303.915 42.0002 300.415 64.5 299.415 67.5C298.415 70.5 296.415 106 295.915 115C295.249 127 302.915 150.5 302.915 153C302.915 155.5 293.915 154.5 291.915 152.5C289.915 150.5 290.915 138 287.915 129.5C285.515 122.7 283.749 102 283.915 92.5C284.749 80.1667 287.115 53.5001 289.915 45.5001Z" fill="#DCFCB6"/>
<path d="M291.415 61.0003C293.015 46.2003 295.082 41.167 295.915 40.5003C298.915 38.5 297.364 44.9108 296.415 52.5003C295.415 60.5003 292.415 101 293.415 116.5C294.124 127.494 298.554 144.016 301.408 153.314C301.7 154.263 300.593 155.008 299.842 154.358C298.378 153.094 296.898 151.725 296.415 151C295.415 149.5 293.132 137.937 291.415 132.5C288.415 123 287.915 103 287.915 98.5003C287.915 94.0003 289.415 79.5003 291.415 61.0003Z" fill="#0E2602"/>
<path d="M208.5 84.2277L208.78 84.6073L208.856 85.0841C210.446 94.9847 207.749 102.296 206.049 106.903C205.766 107.671 205.51 108.364 205.307 108.981C203.216 118.045 197.152 132.66 187.052 146.286C176.905 159.976 162.545 172.85 143.839 177.962C121.031 184.195 107.589 185.055 98.2477 183.587C91.4431 182.518 86.7717 180.157 82.5562 178.026C81.0341 177.257 79.5714 176.518 78.0892 175.88C67.1421 171.171 56.8049 161.892 52.0836 149.831L51.9939 149.602L51.962 149.355C50.9552 141.552 50.5258 135.235 52.1728 128.158C53.8132 121.11 57.4682 113.488 64.29 102.927C64.5904 102.462 64.8913 101.995 65.1929 101.528C72.4818 90.2315 80.178 78.304 90.1721 69.4821C98.6562 61.9931 106.63 56.3864 112.001 53.2442L112.061 53.2094L112.122 53.1789C113.579 52.4525 114.931 51.6415 116.403 50.7586C117.324 50.2067 118.291 49.6268 119.359 49.0219C122.033 47.5085 125.056 46.0233 128.744 45.0446C136.158 43.0768 145.905 43.2465 160.638 48.5811C185.727 57.6655 201.361 74.5384 208.5 84.2277Z" fill="#EBFFD3" stroke="black" stroke-width="4"/>
<path d="M160.725 55.8875C182.531 64.181 194.224 77.4999 200.724 85.9998C202.724 89.0417 201.912 98.501 200.723 103.388C197.412 115.001 187.808 139.53 174.261 150.054C160.714 160.578 149.008 168.898 144.915 170C132.173 174.757 106.415 182 86.4658 171.405C66.6744 160.893 61.9893 153.216 60.225 150.054C56.225 142.886 59.047 131.657 59.725 127.386C60.918 117.772 68.42 105.954 75.225 94.3862C85.5509 76.8337 107.354 60.8115 118.725 55.8864C125.686 52.4962 138.919 47.5941 160.725 55.8875Z" fill="url(#paint1_radial_1_36)"/>
<path d="M115.414 74.5001C116.917 67.621 122.28 67.6315 124.471 68.3302C124.759 68.422 124.97 68.6647 125.037 68.9561C126.208 74.089 122.914 86.1238 122.914 93.5001C122.914 102 125.414 121 123.914 131.5C123.353 135.431 126.275 146.264 127.914 152.5C130.401 161.96 134.415 170 134.415 172C134.415 175.273 125.799 175.738 123.914 174C122.029 172.262 118.761 160.117 115.414 152.5C112.736 146.407 112.908 135.84 112.151 127.178C111.915 121.388 110.711 109.6 111.414 98.5001C112.081 87.9924 114.628 78.1017 115.414 74.5001Z" fill="#DCFCB6"/>
<path d="M115.915 86.5C117.051 73.1517 117.168 73.4998 118.416 70.9998C118.915 69.9998 121.188 69.7718 121.415 72.0001C121.627 74.0685 121.061 78.6372 120.915 81.9998C120.78 85.1196 119.546 94.4326 119.415 104C119.249 116.174 120.295 129.38 121.415 137.5C122.788 147.451 128.614 163.227 131.421 172.144C131.727 173.115 130.515 173.865 129.725 173.21C128.479 172.177 127.27 171.134 126.915 170.5C126.107 169.058 120.731 159.595 119.415 154.5C117.116 145.596 115.302 127.62 115.415 123.5C115.503 120.305 115.018 111.432 115.415 99.9999C115.53 96.6888 115.592 90.2988 115.915 86.5Z" fill="#0E2602"/>
<path d="M82.915 -16.5001C83.415 -26.0001 84.515 -47.1001 84.915 -55.5001C85.3099 -63.7934 88.0118 -68.87 89.3636 -70.4412C90.1224 -71.1941 91.0474 -70.7941 91.415 -70.5001L92.915 -69.0001C93.915 -68.0001 95.415 -67.5001 99.915 -64.0001C104.415 -60.5001 107.415 -56.5001 110.415 -53.5001C112.815 -51.1001 122.415 -38.1667 126.915 -32.0001C131.915 -25.1667 142.115 -11.2001 142.915 -10.0001L152.915 4.99995C153.915 6.49995 151.915 7.99995 151.415 8.99995C150.915 9.99995 151.915 15.4999 151.915 15.9999C151.915 16.3999 150.248 17.8333 149.415 18.4999C148.415 17.4999 146.215 15.5999 145.415 15.9999C144.615 16.3999 144.082 17.8333 143.915 18.4999C141.915 19.2999 141.748 23.8333 141.915 25.9999C141.082 26.6666 136.515 29.6999 124.915 36.4999C113.315 43.2999 98.0817 57.3333 91.915 63.5C91.2484 59.1666 89.515 49.3999 87.915 44.9999C86.315 40.5999 84.5817 28.8333 83.915 23.4999C82.9151 12.4999 82.5817 -7.50005 82.915 -16.5001Z" fill="#E2D9C8"/>
<path d="M87.4151 -14C86.6337 -33.1453 90.2413 -54.167 92.2731 -62.8988C92.3351 -63.1652 92.6632 -63.2529 92.8589 -63.0618C95.1601 -60.8132 100.439 -55.9822 106.415 -51.5C112.815 -46.7 131.082 -20.5 139.415 -8C143.082 -2.66667 150.315 8.4 149.915 10C149.515 11.6 142.082 19.6667 138.415 23.5C136.748 25.5 131.615 30.1 124.415 32.5C117.215 34.9 102.082 49.1667 95.415 56L90.915 36.5C90.0817 27.8333 88.2151 5.6 87.4151 -14Z" fill="url(#paint2_linear_1_36)"/>
<path d="M313.915 -11.4999C314.915 -10.9999 320.415 -6.99994 320.915 -6.49994C328.082 -2.33329 344.915 6.3 354.915 7.5C364.587 8.66063 380.651 16.1512 388.179 20.1097C388.513 20.2855 388.917 20.0451 388.925 19.6675C389.009 15.8781 389.606 9.43834 389.915 6.5C390.715 -0.699997 390.248 -18.8333 389.915 -27C390.315 -55.8 382.748 -82.6667 378.915 -92.5C374.115 -106.1 368.248 -112.5 365.915 -114C361.115 -111.6 349.248 -96.3333 343.915 -89C342.415 -87.5 330.915 -69 318.415 -50C309.116 -35.8662 303.709 -22.3664 301.79 -16.2542C301.551 -15.4931 301.814 -14.6749 302.435 -14.1744C305.267 -11.8919 309.561 -8.49994 309.915 -8.49994C310.415 -8.49994 312.915 -11.9999 313.915 -11.4999Z" fill="#DCC6B4"/>
<path d="M311.915 -13.5017C314.315 -14.7017 316.248 -14.6684 316.915 -14.5017C322.248 -11.3345 334.115 -4.5 338.915 -2.5C344.915 0 347.915 0.5 351.415 1C354.215 1.4 375.248 8.83334 385.415 12.5C385.582 7.33334 386.015 -4.2 386.415 -9C386.815 -13.8 385.582 -37.0013 384.915 -48.002C382.415 -69.002 376.915 -85.4983 372.915 -93.5C368.673 -101.986 365.415 -107.502 363.915 -107.002C362.415 -106.502 358.915 -101.002 352.415 -94.5018C347.215 -89.3018 328.915 -60.0018 320.415 -46.0018C315.082 -37.1685 304.815 -18.9018 306.415 -16.5018C308.015 -14.1018 310.748 -13.5018 311.915 -13.5017Z" fill="url(#paint3_linear_1_36)"/>
<path d="M242.415 184H242.122L241.84 184.084C238.458 185.099 231.166 187.141 228.167 187.515C225.835 187.807 224.907 187.402 223.716 186.883C223.095 186.612 222.402 186.31 221.4 186.06C221.137 185.994 220.539 185.748 219.579 185.276C218.69 184.839 217.649 184.289 216.54 183.704L216.474 183.669L216.391 183.625C214.232 182.486 211.722 181.161 210.047 180.603C208.938 180.233 207.659 180.37 206.609 180.581C205.482 180.809 204.252 181.204 203.06 181.656C200.669 182.562 198.214 183.779 196.622 184.653C195.683 185.169 195.272 186.243 195.537 187.215L201.45 208.895C201.973 212.833 203.169 218.827 205.107 224.248C206.086 226.989 207.28 229.655 208.716 231.851C210.133 234.017 211.916 235.928 214.154 236.849C216.459 237.799 218.456 238.207 220.277 238.098C222.131 237.987 223.635 237.349 224.951 236.484C226.111 235.722 227.177 234.742 228.175 233.826C228.261 233.747 228.346 233.669 228.43 233.592C229.542 232.574 230.663 231.572 232.024 230.664C235.493 228.352 237.946 224.687 239.84 219.855C241.73 215.031 243.132 208.865 244.388 201.329C245.398 195.268 245.634 191.344 245.473 188.871C245.394 187.65 245.211 186.649 244.894 185.887C244.649 185.299 243.942 184 242.415 184Z" fill="url(#paint4_linear_1_36)" stroke="black" stroke-width="4"/>
<path d="M224.889 194.489C220.362 192.483 206.412 188.003 204.915 189.5L207.915 206.5C209.082 212.167 211.815 224 213.415 226C215.415 228.5 219.915 232.5 224.915 230.5C229.915 228.5 233.915 218.5 234.915 215C235.704 212.238 237.856 199.354 237.434 192.767C237.424 192.621 237.291 192.52 237.147 192.543L224.944 194.496C224.925 194.499 224.907 194.497 224.889 194.489Z" fill="#E1B3B6"/>
</g>
<defs>
<radialGradient id="paint0_radial_1_36" cx="0" cy="0" r="1" gradientUnits="userSpaceOnUse" gradientTransform="translate(336.415 100) rotate(-82.875) scale(60.4669 83.6459)">
<stop stop-color="#C8EE9F"/>
<stop offset="0.48" stop-color="#C5EE9C"/>
<stop offset="1" stop-color="#C6E99E"/>
</radialGradient>
<radialGradient id="paint1_radial_1_36" cx="0" cy="0" r="1" gradientUnits="userSpaceOnUse" gradientTransform="translate(121.744 124.241) rotate(-112.338) scale(55.5086 67.6621)">
<stop stop-color="#C8EE9F"/>
<stop offset="0.48" stop-color="#C5EE9C"/>
<stop offset="1" stop-color="#C6E99E"/>
</radialGradient>
<linearGradient id="paint2_linear_1_36" x1="87.415" y1="-64" x2="124.915" y2="42.5" gradientUnits="userSpaceOnUse">
<stop stop-color="#D8B19F"/>
<stop offset="0.555" stop-color="#C9B493"/>
<stop offset="1" stop-color="#CBB590"/>
</linearGradient>
<linearGradient id="paint3_linear_1_36" x1="367.415" y1="-107" x2="320.176" y2="-3.40503" gradientUnits="userSpaceOnUse">
<stop stop-color="#D5B59D"/>
<stop offset="0.555" stop-color="#CCB394"/>
<stop offset="1" stop-color="#CAB193"/>
</linearGradient>
<linearGradient id="paint4_linear_1_36" x1="220.467" y1="182.372" x2="220.467" y2="236.115" gradientUnits="userSpaceOnUse">
<stop stop-color="#FBDEDC"/>
<stop offset="1" stop-color="#EEC9C9"/>
</linearGradient>
<clipPath id="clip0_1_36">
<rect width="458" height="202" fill="white"/>
</clipPath>
</defs>
</svg>
