<svg width="458" height="202" viewBox="0 0 458 202" fill="none" xmlns="http://www.w3.org/2000/svg">
<g clip-path="url(#clip0_1_116)">
<path fill-rule="evenodd" clip-rule="evenodd" d="M88.9151 66.5003C83.9151 53.0003 74.8151 16.1003 78.4151 -23.4997C82.0151 -63.0997 82.9152 -67.9997 82.9153 -65.4997C83.2485 -67.9998 84.9149 -73.2999 88.9151 -74.4999C92.9153 -75.6999 100.582 -69.3333 103.915 -65.9999C110.249 -60 123.915 -47 127.915 -43C129.497 -41.4188 132.628 -38.4374 136.25 -34.9889C144.081 -27.5329 154.206 -17.8931 155.915 -15.5C156.671 -14.4414 158.251 -12.468 160.197 -10.0363C164.686 -4.42825 171.125 3.61721 173.915 8.5C184.915 4.66666 211.015 -3.3 227.415 -4.5C247.915 -6 289.415 -6.5 293.915 -6C297.915 -17 308.515 -42.7 318.915 -57.5C322.312 -62.3342 325.948 -68.0903 329.761 -74.1258C340.539 -91.1875 352.727 -110.482 364.915 -117.5C366.415 -117.167 370.015 -115.6 372.415 -112C372.653 -111.643 372.939 -111.232 373.267 -110.76C377.067 -105.29 386.551 -91.6411 393.915 -58.5C400.315 -29.7 404.582 -2.5 405.915 7.5C406.749 15.5 408.515 33.1 408.915 39.5C420.749 52.1667 446.715 80.5 455.915 92.5C465.115 104.5 472.082 117.5 474.415 122.5C474.421 122.513 474.427 122.527 474.433 122.541C478.26 121.097 483.374 120.01 488.056 119.015L488.056 119.015C489.683 118.669 491.258 118.335 492.708 118C497.908 116.8 511.541 114.833 517.708 114L509.208 116.5L500.208 119C496.208 120 487.608 121.7 483.208 122.5C482.336 122.658 481.022 122.982 479.634 123.325C478.075 123.709 476.424 124.116 475.204 124.337C478.249 131.522 483.451 144.815 484.915 152.5C483.082 155.333 479.015 161.7 477.415 164.5C478.082 165.667 479.515 168.2 479.915 169C480.242 169.653 479.075 171.587 477.808 173.686C477.136 174.8 476.435 175.96 475.915 177C475.288 178.255 474.907 180.111 474.543 181.882C474.216 183.47 473.904 184.99 473.441 185.948C474.113 186.215 474.79 186.666 475.208 187C476.208 187.5 484.208 191.5 485.708 192C486.458 192.25 488.583 193.25 490.708 194.25C492.833 195.25 494.958 196.25 495.708 196.5C496.481 196.758 498.982 197.946 501.567 199.174C503.995 200.327 506.497 201.516 507.708 202C510.208 203 510.708 204.5 509.208 205C508.008 205.4 503.374 203.5 501.208 202.5C498.541 201.333 492.008 198.6 487.208 197C481.208 195 472.208 191 471.208 189.5C471.117 189.364 471.039 189.232 470.972 189.104C459.911 203.075 439.292 228.106 428.915 237C414.915 249 385.415 270 366.915 278.5C352.115 285.3 321.415 295 307.915 299C308.582 315.333 310.315 350.9 311.915 362.5C313.515 374.1 317.915 415 319.915 434C321.749 445 326.215 469.3 329.415 478.5C330.915 482.667 332.515 492.1 326.915 496.5C321.315 500.9 310.582 500.333 305.915 499.5C301.915 497 292.915 490.3 288.915 483.5C284.915 476.7 276.249 451.667 272.415 440L258.915 361.5C247.415 365.667 218.115 375 192.915 379C186.249 392.333 171.115 424.7 163.915 447.5C156.715 470.3 150.582 486.667 148.415 492C146.082 494.667 139.815 500.4 133.415 502C127.015 503.6 118.749 502.667 115.415 502C113.749 500.5 110.915 494 112.915 480C113.278 477.464 113.671 474.634 114.092 471.61C116.575 453.769 119.995 429.189 123.415 418.5C126.615 408.5 130.415 392.333 131.915 385.5C122.249 386.667 99.6153 389.1 86.4153 389.5C73.2153 389.9 59.2487 391 53.9153 391.5C49.582 400.167 39.0153 420 31.4153 430C23.8153 440 10.2486 449.833 4.41531 453.5C0.581985 454.333 -7.88469 459 -11.0847 471C-11.5594 472.78 -12.0342 474.61 -12.5148 476.462C-16.0835 490.215 -19.9749 505.212 -26.5847 510.5C-32.5847 515.3 -38.7514 515.833 -41.0847 515.5C-46.7514 514.667 -57.9847 509.6 -57.5847 496C-57.1847 482.4 -55.7514 468.333 -55.0848 463C-54.2515 458.5 -52.5848 452 -47.0848 445C-40.3585 436.439 -29.1848 417.8 -27.5848 407C-26.2515 402.833 -23.8848 393.9 -25.0848 391.5C-26.2848 389.1 -40.2515 405.167 -47.0848 413.5L-47.1957 413.614C-57.5918 424.346 -81.875 449.413 -93.0848 453C-95.7452 453.851 -98.7 454.748 -101.756 455.675C-113.061 459.106 -125.755 462.958 -130.085 466.5C-133.418 469.833 -141.785 479.9 -148.585 493.5C-155.385 507.1 -163.752 518.167 -167.085 522C-169.585 524.333 -176.985 528.8 -186.585 528C-196.185 527.2 -197.252 515.667 -196.585 510L-186.585 468C-184.418 458.667 -179.285 439.2 -176.085 436C-172.085 432 -154.085 414 -149.085 407.5L-148.992 407.379C-143.937 400.808 -132.011 385.306 -120.085 354C-110.485 328.8 -104.418 315.167 -102.585 311.5C-98.7514 305.333 -89.9848 291.9 -85.5848 287.5C-99.5848 281.333 -131.785 265.9 -148.585 253.5C-169.585 238 -191.585 211 -198.585 187C-205.585 163 -200.085 130.5 -192.085 117C-191.138 115.402 -190.162 113.698 -189.142 111.915C-181.542 98.6395 -171.421 80.9609 -151.585 69.5C-133.585 59.1 -127.752 70.1667 -127.085 77C-127.918 79.5 -131.385 86.4 -138.585 94C-139.896 95.384 -141.335 96.8635 -142.849 98.4215C-151.733 107.558 -163.241 119.394 -167.085 130.5C-168.378 134.236 -169.713 136.61 -170.875 138.676C-173.757 143.801 -175.579 147.041 -173.085 164.5C-170.285 184.1 -150.252 208.667 -140.585 218.5C-132.418 226 -112.885 242.6 -100.085 249C-87.285 255.4 -65.7516 264.333 -56.585 268C-50.085 263.667 -28.885 255.3 3.91504 256.5C36.715 257.7 70.915 252.333 83.915 249.5C75.0817 241.833 56.015 224 50.415 214C50.3758 213.93 50.3367 213.86 50.2976 213.79C49.3109 215.366 46.9555 218.113 45.7075 219.5C42.8742 222.333 37.0075 228.1 36.2075 228.5C35.2075 229 27.7075 237 25.2075 240C22.7075 243 17.2075 247.5 16.7075 246.5C16.3838 245.853 16.8983 245.205 17.844 244.015C18.3591 243.367 19.0022 242.558 19.7075 241.5C21.3075 239.1 27.7075 232.5 30.7075 229.5C32.5408 228.167 37.2075 224.3 41.2075 219.5C44.5112 215.536 47.5875 213.117 49.3096 212.02C42.8876 200.473 38.2814 191.278 35.915 178.5C35.6052 175.866 36.1785 170.631 37.5577 163.934C35.6579 163.189 27.9332 163 24.2075 163C19.5408 163.167 9.40752 163.5 6.20752 163.5C2.20752 163.5 -2.79248 164.5 -5.29248 165C-7.79248 165.5 -13.7925 165.5 -13.7925 164.5C-13.7925 163.5 -11.7925 163 -10.2925 163C-8.79248 163 -5.29248 162.5 -2.79248 162C-0.79248 161.6 7.70752 160.833 11.7075 160.5H32.2075C35.0075 160.5 37.0408 160.833 37.7075 161C37.8773 161.029 38.0291 161.072 38.1645 161.125C41.5044 146.329 48.3238 125.813 57.915 110C72.715 85.6 84.7484 70.8335 88.9151 66.5003Z" fill="#070A03"/>
<path d="M224.156 93.6219L223.932 94.1618L224.034 94.7375C225.899 105.278 233.06 114.976 236.412 118.547C247.657 130.591 280.907 156.355 325.899 153.191C353.64 151.24 369.678 147.726 380.307 143.584C388.852 140.254 393.886 136.505 398.48 133.084C399.614 132.239 400.721 131.414 401.847 130.621C407.111 126.914 412.872 122.13 417.694 117.021C422.475 111.955 426.513 106.382 428.06 101.088L428.196 100.622L428.103 100.145C425.774 88.1831 418.654 77.8843 398.312 61.426C387.024 52.2931 372.061 44.5253 357.368 40.0246C345.89 36.5088 334.307 34.9325 327.228 33.9691C326.809 33.912 326.406 33.8572 326.019 33.8041L325.966 33.7969L325.913 33.7925C313.176 32.7345 287.715 33.4239 263.529 50.2599C239.589 66.9253 227.348 85.9356 224.156 93.6219Z" fill="#EBFFD3" stroke="black" stroke-width="4"/>
<path d="M264.987 54.4385C246.224 65.879 237.785 84.8327 233.83 93.8326C232.936 95.8675 232.863 98.186 233.674 100.255L238.084 111.502C246.43 118.852 268.075 138.432 287.058 141.979C306.041 145.526 320.754 145.464 325.737 144.989C341.731 144.5 378.166 142.261 395.835 124.486C412.465 107.756 423.724 99.637 423.589 96.6973C423.481 94.3455 418.844 87.8321 416.539 84.8693C411.723 78.094 391.945 61.4949 380.136 55.0408C362.218 45.2472 330.928 40.7304 316.409 40.6608C307.385 40.3392 286.41 41.3761 264.987 54.4385Z" fill="url(#paint0_radial_1_116)"/>
<path d="M286.322 52.6991C290.797 45.1734 298.944 44.7495 302.459 45.4782C310.425 48.2543 319.354 69.1829 317.763 72.0005C316.171 74.8181 314.384 107.273 313.943 115.5C313.355 126.47 313.825 146.985 313.943 149.258C314.061 151.531 298.412 151.434 294.85 149.796C291.289 148.158 292.431 136.704 286.828 129.247C282.346 123.281 278.305 104.621 278.144 95.9695C279.005 84.6817 281.846 60.2247 286.322 52.6991Z" fill="#DCFCB6"/>
<path d="M289.417 66.7814C291.361 53.1809 294.539 48.4245 295.884 47.7464C300.749 45.6688 307.774 53.2268 306.565 60.2122C305.291 67.5755 304.613 103.986 307 118C308.693 127.941 307.639 141.88 310.721 149.93C311.069 150.839 310.118 151.934 309.216 151.571C306.342 150.417 302.939 148.96 301.942 148.22C300.218 146.942 295.896 136.619 292.801 131.822C287.393 123.438 285.62 105.288 285.407 101.195C285.194 97.1012 286.987 83.7821 289.417 66.7814Z" fill="#0E2602"/>
<path d="M300.42 79C242.411 89.5704 225.828 99.7833 219.654 113.104C222.315 103.533 208.785 76.2316 219.654 60C228.395 46.9464 260.977 38.3031 275.374 29.208C315.746 3.70245 377.288 33.6509 400.635 39.9672C419.313 45.0204 436.938 85.4886 437.945 97.2826C423.659 83.4379 358.43 68.4296 300.42 79Z" fill="#070A03"/>
<path d="M352.8 128.709C410.143 114.977 427.768 96.667 433.203 83.0282C429.355 100.534 413.878 141.081 382.745 163.224C343.83 190.902 280.741 164.369 257.082 159.341C238.156 155.319 224.622 120.275 222.971 108.554C237.994 121.595 295.457 142.44 352.8 128.709Z" fill="#070A03"/>
<g clip-path="url(#clip1_1_116)">
<path d="M199.771 98.8561L200.074 99.2725L200.085 99.8027C200.229 106.446 197.071 111.271 195.168 114.18C194.863 114.647 194.589 115.064 194.367 115.432C191.582 121.295 184.947 130.587 175.202 139.123C165.388 147.718 152.313 155.643 136.674 158.497C117.5 161.995 106.554 162.243 99.1957 161.093C93.816 160.253 90.3027 158.625 87.1354 157.158C85.9918 156.628 84.8934 156.119 83.7685 155.676C75.4622 152.402 67.9897 146.131 65.4833 137.987L65.4035 137.728L65.4084 137.452C65.4994 132.362 65.8901 128.17 68.0987 123.536C70.2786 118.963 74.1572 114.108 80.8993 107.467C81.1939 107.177 81.489 106.886 81.7847 106.594C89.0101 99.4712 96.6246 91.9643 105.727 86.5155C113.459 81.8874 120.554 78.4628 125.248 76.5676L125.29 76.5506L125.333 76.5359C126.607 76.0974 127.817 75.5967 129.123 75.0566C129.931 74.7224 130.776 74.3732 131.694 74.0143C134.022 73.1046 136.614 72.2266 139.675 71.6859C145.824 70.5998 153.658 70.9104 164.985 74.6822C184.277 81.1062 195.048 92.3652 199.771 98.8561Z" fill="#EBFFD3" stroke="black" stroke-width="3.40284"/>
<path d="M154.784 83.6753C170.399 87.1009 178.316 94.0452 182.661 98.5365C183.976 100.164 182.893 105.66 181.767 108.547C178.736 115.437 170.412 130.152 159.906 137.049C149.401 143.945 140.363 149.459 137.296 150.347C127.678 153.873 108.359 159.636 94.2289 154.771C80.2104 149.944 77.1583 145.814 76.0228 144.103C73.4485 140.224 76.1009 133.584 76.819 131.084C78.1902 125.475 84.3154 118.207 89.915 111.127C98.4119 100.384 115.273 89.8112 123.89 86.2726C129.184 83.8903 139.17 80.2496 154.784 83.6753Z" fill="url(#paint1_radial_1_116)"/>
<path d="M118.979 79.8852C123.109 74.2764 135.688 74.3519 139.97 74.8968C140.223 74.929 140.468 75.0704 140.588 75.3C142.654 79.2474 134.259 88.685 133.537 94.41C132.704 101.006 136.317 115.676 132.004 123.868C130.39 126.935 135.727 135.256 138.704 140.047C143.222 147.315 151.223 153.437 151.027 154.989C150.706 157.528 131.797 158.14 127.841 156.847C123.885 155.554 117.918 146.224 111.337 140.412C106.071 135.761 107.483 127.556 106.674 120.857C106.725 116.371 105.242 107.259 107.871 98.6254C110.359 90.4522 116.904 82.7029 118.979 79.8852Z" fill="#DCFCB6"/>
<path d="M124.376 84.4029C130.304 74.8179 130.528 75.1402 134.316 73.8573C135.832 73.3441 141.76 74.295 141.849 76.1014C141.932 77.7782 139.447 80.9717 138.315 83.4555C137.266 85.7599 136.797 91.7919 134.316 99C131.159 108.173 130.906 118.729 131.983 125.455C133.333 133.884 141.508 149.594 145.782 157.703C146.151 158.404 145.169 159.26 144.414 158.903C140.552 157.078 135.115 154.638 134.004 153.698C132.237 152.202 120.454 142.35 118.193 137.825C114.242 129.92 113.578 115.358 114.793 112.282C115.736 109.897 116.471 102.912 120.059 94.4178C121.098 91.9578 122.689 87.1308 124.376 84.4029Z" fill="#0E2602"/>
<path d="M116 111C66.008 132.044 60.5409 147.404 55 161C58.9836 143.525 53.937 91.4148 85.2409 69.5153C124.371 42.1409 187.251 69.1646 210.87 74.377C229.765 78.5469 207.043 104.569 208.602 116.303C193.681 103.145 170.346 88.1232 116 111Z" fill="#070A03"/>
<path d="M142.5 145C198.618 126.9 196.764 96.9807 201.134 82.9643C198.644 100.714 205.279 159.174 175.941 183.645C139.269 214.233 74.3263 192.629 50.3514 189.435C31.1715 186.879 55.7366 144.646 53.1892 133.086C69.1706 144.934 86.3823 163.099 142.5 145Z" fill="#070A03"/>
</g>
<path d="M82.915 -16.5001C83.415 -26.0001 84.515 -47.1001 84.915 -55.5001C85.3099 -63.7934 88.0118 -68.87 89.3636 -70.4412C90.1224 -71.1941 91.0474 -70.7941 91.415 -70.5001L92.915 -69.0001C93.915 -68.0001 95.415 -67.5001 99.915 -64.0001C104.415 -60.5001 107.415 -56.5001 110.415 -53.5001C112.815 -51.1001 122.415 -38.1667 126.915 -32.0001C131.915 -25.1667 142.115 -11.2001 142.915 -10.0001L152.915 4.99995C153.915 6.49995 151.915 7.99995 151.415 8.99995C150.915 9.99995 151.915 15.4999 151.915 15.9999C151.915 16.3999 150.248 17.8333 149.415 18.4999C148.415 17.4999 146.215 15.5999 145.415 15.9999C144.615 16.3999 144.082 17.8333 143.915 18.4999C141.915 19.2999 141.748 23.8333 141.915 25.9999C141.082 26.6666 136.515 29.6999 124.915 36.4999C113.315 43.2999 98.0817 57.3333 91.915 63.5C91.2484 59.1666 89.515 49.3999 87.915 44.9999C86.315 40.5999 84.5817 28.8333 83.915 23.4999C82.9151 12.4999 82.5817 -7.50005 82.915 -16.5001Z" fill="#E2D9C8"/>
<path d="M87.4151 -14C86.6337 -33.1453 90.2413 -54.167 92.2731 -62.8988C92.3351 -63.1652 92.6632 -63.2529 92.8589 -63.0618C95.1601 -60.8132 100.439 -55.9822 106.415 -51.5C112.815 -46.7 131.082 -20.5 139.415 -8C143.082 -2.66667 150.315 8.4 149.915 10C149.515 11.6 142.082 19.6667 138.415 23.5C136.748 25.5 131.615 30.1 124.415 32.5C117.215 34.9 102.082 49.1667 95.415 56L90.915 36.5C90.0817 27.8333 88.2151 5.6 87.4151 -14Z" fill="url(#paint2_linear_1_116)"/>
<path d="M313.915 -11.4999C314.915 -10.9999 320.415 -6.99994 320.915 -6.49994C328.082 -2.33329 344.915 6.3 354.915 7.5C364.587 8.66063 380.651 16.1512 388.179 20.1097C388.513 20.2855 388.917 20.0451 388.925 19.6675C389.009 15.8781 389.606 9.43834 389.915 6.5C390.715 -0.699997 390.248 -18.8333 389.915 -27C390.315 -55.8 382.748 -82.6667 378.915 -92.5C374.115 -106.1 368.248 -112.5 365.915 -114C361.115 -111.6 349.248 -96.3333 343.915 -89C342.415 -87.5 330.915 -69 318.415 -50C309.116 -35.8662 303.709 -22.3664 301.79 -16.2542C301.551 -15.4931 301.814 -14.6749 302.435 -14.1744C305.267 -11.8919 309.561 -8.49994 309.915 -8.49994C310.415 -8.49994 312.915 -11.9999 313.915 -11.4999Z" fill="#DCC6B4"/>
<path d="M311.915 -13.5017C314.315 -14.7017 316.248 -14.6684 316.915 -14.5017C322.248 -11.3345 334.115 -4.5 338.915 -2.5C344.915 0 347.915 0.5 351.415 1C354.215 1.4 375.248 8.83334 385.415 12.5C385.582 7.33334 386.015 -4.2 386.415 -9C386.815 -13.8 385.582 -37.0013 384.915 -48.002C382.415 -69.002 376.915 -85.4983 372.915 -93.5C368.673 -101.986 365.415 -107.502 363.915 -107.002C362.415 -106.502 358.915 -101.002 352.415 -94.5018C347.215 -89.3018 328.915 -60.0018 320.415 -46.0018C315.082 -37.1685 304.815 -18.9018 306.415 -16.5018C308.015 -14.1018 310.748 -13.5018 311.915 -13.5017Z" fill="url(#paint3_linear_1_116)"/>
<path d="M242.415 184H242.122L241.84 184.084C238.458 185.099 231.166 187.141 228.167 187.515C225.835 187.807 224.907 187.402 223.716 186.883C223.095 186.612 222.402 186.31 221.4 186.06C221.137 185.994 220.539 185.748 219.579 185.276C218.69 184.839 217.649 184.289 216.54 183.704L216.474 183.669L216.391 183.625C214.232 182.486 211.722 181.161 210.047 180.603C208.938 180.233 207.659 180.37 206.609 180.581C205.482 180.809 204.252 181.204 203.06 181.656C200.669 182.562 198.214 183.779 196.622 184.653C195.683 185.169 195.272 186.243 195.537 187.215L201.45 208.895C201.973 212.833 203.169 218.827 205.107 224.248C206.086 226.989 207.28 229.655 208.716 231.851C210.133 234.017 211.916 235.928 214.154 236.849C216.459 237.799 218.456 238.207 220.277 238.098C222.131 237.987 223.635 237.349 224.951 236.484C226.111 235.722 227.177 234.742 228.175 233.826C228.261 233.747 228.346 233.669 228.43 233.592C229.542 232.574 230.663 231.572 232.024 230.664C235.493 228.352 237.946 224.687 239.84 219.855C241.73 215.031 243.132 208.865 244.388 201.329C245.398 195.268 245.634 191.344 245.473 188.871C245.394 187.65 245.211 186.649 244.894 185.887C244.649 185.299 243.942 184 242.415 184Z" fill="url(#paint4_linear_1_116)" stroke="black" stroke-width="4"/>
<path d="M224.889 194.489C220.362 192.483 206.412 188.003 204.915 189.5L207.915 206.5C209.082 212.167 211.815 224 213.415 226C215.415 228.5 219.915 232.5 224.915 230.5C229.915 228.5 233.915 218.5 234.915 215C235.704 212.238 237.856 199.354 237.434 192.767C237.424 192.621 237.291 192.52 237.147 192.543L224.944 194.496C224.925 194.499 224.907 194.497 224.889 194.489Z" fill="#E1B3B6"/>
</g>
<defs>
<radialGradient id="paint0_radial_1_116" cx="0" cy="0" r="1" gradientUnits="userSpaceOnUse" gradientTransform="translate(340.575 98.3015) rotate(-82.9875) scale(44.7747 83.1059)">
<stop stop-color="#C8EE9F"/>
<stop offset="0.48" stop-color="#C5EE9C"/>
<stop offset="1" stop-color="#C6E99E"/>
</radialGradient>
<radialGradient id="paint1_radial_1_116" cx="0" cy="0" r="1" gradientUnits="userSpaceOnUse" gradientTransform="translate(122.601 125.437) rotate(-114.512) scale(31.0512 50.8372)">
<stop stop-color="#C8EE9F"/>
<stop offset="0.48" stop-color="#C5EE9C"/>
<stop offset="1" stop-color="#C6E99E"/>
</radialGradient>
<linearGradient id="paint2_linear_1_116" x1="87.415" y1="-64" x2="124.915" y2="42.5" gradientUnits="userSpaceOnUse">
<stop stop-color="#D8B19F"/>
<stop offset="0.555" stop-color="#C9B493"/>
<stop offset="1" stop-color="#CBB590"/>
</linearGradient>
<linearGradient id="paint3_linear_1_116" x1="367.415" y1="-107" x2="320.176" y2="-3.40503" gradientUnits="userSpaceOnUse">
<stop stop-color="#D5B59D"/>
<stop offset="0.555" stop-color="#CCB394"/>
<stop offset="1" stop-color="#CAB193"/>
</linearGradient>
<linearGradient id="paint4_linear_1_116" x1="220.467" y1="182.372" x2="220.467" y2="236.115" gradientUnits="userSpaceOnUse">
<stop stop-color="#FBDEDC"/>
<stop offset="1" stop-color="#EEC9C9"/>
</linearGradient>
<clipPath id="clip0_1_116">
<rect width="458" height="202" fill="white"/>
</clipPath>
<clipPath id="clip1_1_116">
<rect width="162.415" height="149.829" fill="white" transform="translate(48.2424 39)"/>
</clipPath>
</defs>
</svg>
