<svg width="458" height="202" viewBox="0 0 458 202" fill="none" xmlns="http://www.w3.org/2000/svg">
<g clip-path="url(#clip0_1_228)">
<path fill-rule="evenodd" clip-rule="evenodd" d="M88.9151 66.5003C83.9151 53.0003 74.8151 16.1003 78.4151 -23.4997C82.0151 -63.0997 82.9152 -67.9997 82.9153 -65.4997C83.2485 -67.9998 84.9149 -73.2999 88.9151 -74.4999C92.9153 -75.6999 100.582 -69.3333 103.915 -65.9999C110.249 -60 123.915 -47 127.915 -43C129.497 -41.4188 132.628 -38.4374 136.25 -34.9889C144.081 -27.5329 154.206 -17.8931 155.915 -15.5C156.671 -14.4414 158.251 -12.468 160.197 -10.0363C164.686 -4.42825 171.125 3.61721 173.915 8.5C184.915 4.66666 211.015 -3.3 227.415 -4.5C247.915 -6 289.415 -6.5 293.915 -6C297.915 -17 308.515 -42.7 318.915 -57.5C322.312 -62.3342 325.948 -68.0903 329.761 -74.1258C340.539 -91.1875 352.727 -110.482 364.915 -117.5C366.415 -117.167 370.015 -115.6 372.415 -112C372.653 -111.643 372.939 -111.232 373.267 -110.76C377.067 -105.29 386.551 -91.6411 393.915 -58.5C400.315 -29.7 404.582 -2.5 405.915 7.5C406.749 15.5 408.515 33.1 408.915 39.5C420.749 52.1667 446.715 80.5 455.915 92.5C465.115 104.5 472.082 117.5 474.415 122.5C474.421 122.513 474.427 122.527 474.433 122.541C478.26 121.097 483.374 120.01 488.056 119.015L488.056 119.015C489.683 118.669 491.258 118.335 492.708 118C497.908 116.8 511.541 114.833 517.708 114L509.208 116.5L500.208 119C496.208 120 487.608 121.7 483.208 122.5C482.336 122.658 481.022 122.982 479.634 123.325C478.075 123.709 476.424 124.116 475.204 124.337C478.249 131.522 483.451 144.815 484.915 152.5C483.082 155.333 479.015 161.7 477.415 164.5C478.082 165.667 479.515 168.2 479.915 169C480.242 169.653 479.075 171.587 477.808 173.686C477.136 174.8 476.435 175.96 475.915 177C475.288 178.255 474.907 180.111 474.543 181.882C474.216 183.47 473.904 184.99 473.441 185.948C474.113 186.215 474.79 186.666 475.208 187C476.208 187.5 484.208 191.5 485.708 192C486.458 192.25 488.583 193.25 490.708 194.25C492.833 195.25 494.958 196.25 495.708 196.5C496.481 196.758 498.982 197.946 501.567 199.174C503.995 200.327 506.497 201.516 507.708 202C510.208 203 510.708 204.5 509.208 205C508.008 205.4 503.374 203.5 501.208 202.5C498.541 201.333 492.008 198.6 487.208 197C481.208 195 472.208 191 471.208 189.5C471.117 189.364 471.039 189.232 470.972 189.104C459.911 203.075 439.292 228.106 428.915 237C414.915 249 385.415 270 366.915 278.5C352.115 285.3 321.415 295 307.915 299C308.582 315.333 310.315 350.9 311.915 362.5C313.515 374.1 317.915 415 319.915 434C321.749 445 326.215 469.3 329.415 478.5C330.915 482.667 332.515 492.1 326.915 496.5C321.315 500.9 310.582 500.333 305.915 499.5C301.915 497 292.915 490.3 288.915 483.5C284.915 476.7 276.249 451.667 272.415 440L258.915 361.5C247.415 365.667 218.115 375 192.915 379C186.249 392.333 171.115 424.7 163.915 447.5C156.715 470.3 150.582 486.667 148.415 492C146.082 494.667 139.815 500.4 133.415 502C127.015 503.6 118.749 502.667 115.415 502C113.749 500.5 110.915 494 112.915 480C113.278 477.464 113.671 474.634 114.092 471.61C116.575 453.769 119.995 429.189 123.415 418.5C126.615 408.5 130.415 392.333 131.915 385.5C122.249 386.667 99.6153 389.1 86.4153 389.5C73.2153 389.9 59.2487 391 53.9153 391.5C49.582 400.167 39.0153 420 31.4153 430C23.8153 440 10.2486 449.833 4.41531 453.5C0.581985 454.333 -7.88469 459 -11.0847 471C-11.5594 472.78 -12.0342 474.61 -12.5148 476.462C-16.0835 490.215 -19.9749 505.212 -26.5847 510.5C-32.5847 515.3 -38.7514 515.833 -41.0847 515.5C-46.7514 514.667 -57.9847 509.6 -57.5847 496C-57.1847 482.4 -55.7514 468.333 -55.0848 463C-54.2515 458.5 -52.5848 452 -47.0848 445C-40.3585 436.439 -29.1848 417.8 -27.5848 407C-26.2515 402.833 -23.8848 393.9 -25.0848 391.5C-26.2848 389.1 -40.2515 405.167 -47.0848 413.5L-47.1957 413.614C-57.5918 424.346 -81.875 449.413 -93.0848 453C-95.7452 453.851 -98.7 454.748 -101.756 455.675C-113.061 459.106 -125.755 462.958 -130.085 466.5C-133.418 469.833 -141.785 479.9 -148.585 493.5C-155.385 507.1 -163.752 518.167 -167.085 522C-169.585 524.333 -176.985 528.8 -186.585 528C-196.185 527.2 -197.252 515.667 -196.585 510L-186.585 468C-184.418 458.667 -179.285 439.2 -176.085 436C-172.085 432 -154.085 414 -149.085 407.5L-148.992 407.379C-143.937 400.808 -132.011 385.306 -120.085 354C-110.485 328.8 -104.418 315.167 -102.585 311.5C-98.7514 305.333 -89.9848 291.9 -85.5848 287.5C-99.5848 281.333 -131.785 265.9 -148.585 253.5C-169.585 238 -191.585 211 -198.585 187C-205.585 163 -200.085 130.5 -192.085 117C-191.138 115.402 -190.162 113.698 -189.142 111.915C-181.542 98.6395 -171.421 80.9609 -151.585 69.5C-133.585 59.1 -127.752 70.1667 -127.085 77C-127.918 79.5 -131.385 86.4 -138.585 94C-139.896 95.384 -141.335 96.8635 -142.849 98.4215C-151.733 107.558 -163.241 119.394 -167.085 130.5C-168.378 134.236 -169.713 136.61 -170.875 138.676C-173.757 143.801 -175.579 147.041 -173.085 164.5C-170.285 184.1 -150.252 208.667 -140.585 218.5C-132.418 226 -112.885 242.6 -100.085 249C-87.285 255.4 -65.7516 264.333 -56.585 268C-50.085 263.667 -28.885 255.3 3.91504 256.5C36.715 257.7 70.915 252.333 83.915 249.5C75.0817 241.833 56.015 224 50.415 214C50.3758 213.93 50.3367 213.86 50.2976 213.79C49.3109 215.366 46.9555 218.113 45.7075 219.5C42.8742 222.333 37.0075 228.1 36.2075 228.5C35.2075 229 27.7075 237 25.2075 240C22.7075 243 17.2075 247.5 16.7075 246.5C16.3838 245.853 16.8983 245.205 17.844 244.015C18.3591 243.367 19.0022 242.558 19.7075 241.5C21.3075 239.1 27.7075 232.5 30.7075 229.5C32.5408 228.167 37.2075 224.3 41.2075 219.5C44.5112 215.536 47.5875 213.117 49.3096 212.02C42.8876 200.473 38.2814 191.278 35.915 178.5C35.6052 175.866 36.1785 170.631 37.5577 163.934C35.6579 163.189 27.9332 163 24.2075 163C19.5408 163.167 9.40752 163.5 6.20752 163.5C2.20752 163.5 -2.79248 164.5 -5.29248 165C-7.79248 165.5 -13.7925 165.5 -13.7925 164.5C-13.7925 163.5 -11.7925 163 -10.2925 163C-8.79248 163 -5.29248 162.5 -2.79248 162C-0.79248 161.6 7.70752 160.833 11.7075 160.5H32.2075C35.0075 160.5 37.0408 160.833 37.7075 161C37.8773 161.029 38.0291 161.072 38.1645 161.125C41.5044 146.329 48.3238 125.813 57.915 110C72.715 85.6 84.7484 70.8335 88.9151 66.5003Z" fill="#070A03"/>
<path d="M224.156 93.622L223.932 94.1619L224.034 94.7376C225.899 105.278 233.06 114.976 236.412 118.547C247.657 130.591 280.907 156.355 325.899 153.191C353.64 151.24 369.678 147.726 380.307 143.585C388.852 140.255 393.886 136.505 398.48 133.084C399.614 132.239 400.721 131.415 401.847 130.621C407.111 126.914 412.872 122.13 417.694 117.021C422.475 111.955 426.513 106.382 428.06 101.088L428.196 100.622L428.103 100.145C425.774 88.1832 418.654 77.8844 398.312 61.4261C387.024 52.2932 372.061 44.5254 357.368 40.0247C345.89 36.5089 334.307 34.9326 327.228 33.9692C326.809 33.9122 326.406 33.8573 326.019 33.8043L325.966 33.797L325.913 33.7926C313.176 32.7346 287.715 33.424 263.529 50.2601C239.589 66.9254 227.348 85.9357 224.156 93.622Z" fill="#EBFFD3" stroke="black" stroke-width="4"/>
<path d="M264.987 54.4387C246.224 65.8791 237.785 84.8328 233.83 93.8327C232.936 95.8676 232.863 98.1862 233.674 100.256L238.084 111.502C246.43 118.852 268.075 138.432 287.058 141.979C306.041 145.526 320.754 145.464 325.737 144.989C341.731 144.5 378.166 142.261 395.835 124.486C412.465 107.756 423.724 99.6371 423.589 96.6974C423.481 94.3457 418.844 87.8322 416.539 84.8694C411.723 78.0941 391.945 61.495 380.136 55.0409C362.218 45.2473 330.928 40.7306 316.409 40.661C307.385 40.3394 286.41 41.3763 264.987 54.4387Z" fill="url(#paint0_radial_1_228)"/>
<path d="M280.169 52.699C287.899 45.1733 301.972 44.7493 308.043 45.478C321.803 48.2541 313.162 69.0252 310.413 71.8428C307.663 74.6604 323.762 106.273 323 114.5C321.984 125.47 327.674 146.985 327.879 149.258C328.083 151.531 301.053 151.434 294.901 149.796C288.749 148.158 290.722 136.703 281.045 129.246C273.303 123.281 266.322 104.621 266.044 95.9694C267.532 84.6816 272.439 60.2246 280.169 52.699Z" fill="#DCFCB6"/>
<path d="M285.515 66.7813C288.873 53.1807 294.362 48.4244 296.687 47.7462C305.089 45.6686 315.588 51.0145 313.5 57.9999C311.299 65.3631 310.128 101.774 314.251 115.788C317.171 125.716 316.643 141.368 322.235 149.82C322.813 150.694 322.055 152.111 321.044 151.878C315.856 150.688 309.029 149.027 307.149 148.22C304.172 146.942 296.707 136.619 291.361 131.822C282.019 123.438 278.957 105.288 278.589 101.194C278.221 97.101 281.318 83.782 285.515 66.7813Z" fill="#0E2602"/>
<path d="M298.92 145.5C245.5 139.282 227.674 125.462 221.5 138.782C224.161 129.211 208.785 76.2315 219.654 59.9999C228.395 46.9464 260.977 38.303 275.374 29.2079C315.746 3.70237 377.288 33.6508 400.635 39.9672C419.313 45.0203 436.938 108.706 437.945 120.5C423.659 106.655 357.489 152.317 298.92 145.5Z" fill="#070A03"/>
<path d="M352.8 128.709C410.143 114.977 427.768 96.667 433.203 83.0282C429.355 100.534 413.878 141.081 382.745 163.224C343.83 190.902 280.741 164.369 257.082 159.341C238.156 155.319 224.622 120.275 222.971 108.554C237.994 121.595 295.457 142.44 352.8 128.709Z" fill="#070A03"/>
<mask id="mask0_1_228" style="mask-type:alpha" maskUnits="userSpaceOnUse" x="56" y="71" width="158" height="89">
<path d="M211.114 110.191L211.399 110.688L211.321 111.261C210.421 117.878 206.182 122.097 203.64 124.627C203.232 125.033 202.868 125.396 202.568 125.718C198.591 131.011 189.86 139.004 177.851 145.703C165.76 152.449 150.229 157.948 132.714 158.014C111.161 158.095 99.1649 156.413 91.3263 153.997C85.5969 152.231 82.0392 150.027 78.806 148.025C77.6314 147.297 76.4996 146.596 75.3221 145.952C66.788 141.286 59.5678 133.79 58.1024 125.254L58.0517 124.958L58.1053 124.662C59.0143 119.639 60.1119 115.556 63.2686 111.368C66.375 107.246 71.3804 103.147 79.8112 97.7828C80.1768 97.5503 80.543 97.317 80.91 97.0834C89.9668 91.316 99.4794 85.2585 110.287 81.4917C119.481 78.2871 127.784 76.1588 133.211 75.1171L133.251 75.1094L133.292 75.1036C134.765 74.8936 136.19 74.6087 137.716 74.3036C138.653 74.1162 139.629 73.9211 140.677 73.731C143.362 73.2445 146.317 72.8373 149.727 72.8421C156.573 72.8515 165.064 74.5191 176.859 80.2256C196.942 89.9426 206.959 102.937 211.114 110.191Z" fill="#EBFFD3" stroke="black" stroke-width="3.40284"/>
</mask>
<g mask="url(#mask0_1_228)">
<path d="M211.114 110.191L211.399 110.688L211.321 111.261C210.421 117.878 206.182 122.097 203.64 124.627C203.232 125.033 202.868 125.396 202.568 125.718C198.591 131.011 189.86 139.004 177.851 145.703C165.76 152.449 150.229 157.948 132.714 158.014C111.161 158.095 99.1649 156.413 91.3263 153.997C85.5969 152.231 82.0392 150.027 78.806 148.025C77.6314 147.297 76.4996 146.596 75.3221 145.952C66.788 141.286 59.5678 133.79 58.1024 125.254L58.0517 124.958L58.1053 124.662C59.0143 119.639 60.1119 115.556 63.2686 111.368C66.375 107.246 71.3804 103.147 79.8112 97.7828C80.1768 97.5503 80.543 97.317 80.91 97.0834C89.9668 91.316 99.4794 85.2585 110.287 81.4917C119.481 78.2871 127.784 76.1588 133.211 75.1171L133.251 75.1094L133.292 75.1036C134.765 74.8936 136.19 74.6087 137.716 74.3036C138.653 74.1162 139.629 73.9211 140.677 73.731C143.362 73.2445 146.317 72.8373 149.727 72.8421C156.573 72.8515 165.064 74.5191 176.859 80.2256C196.942 89.9426 206.959 102.937 211.114 110.191Z" fill="#EBFFD3" stroke="black" stroke-width="3.40284"/>
<path d="M170.016 87.4636C185.49 95.9902 191.756 105.275 194.987 111.019C195.884 113.013 193.07 117.884 191.003 120.255C185.704 125.799 172.432 137.013 159.227 140.044C146.023 143.074 134.79 145.281 131.276 145.093C120.033 145.211 97.8514 144.191 84.3841 134.793C71.0234 125.468 69.0495 120.505 68.3681 118.492C66.8233 113.928 71.6445 108.496 73.1631 106.356C76.3164 101.474 85.0013 96.6141 93.0734 91.7555C105.322 84.383 126.365 79.9926 136.553 79.5253C142.876 79.04 154.543 78.937 170.016 87.4636Z" fill="url(#paint1_radial_1_228)"/>
<path d="M130.858 78.1591C144.997 74.3544 180.972 79.7502 191.519 81.852C191.659 81.8799 191.799 81.9491 191.913 82.049C197.178 86.6602 169.072 92.4466 164.515 97.7047C159.365 103.649 162.911 119.022 147.513 125.113C141.748 127.393 152.786 137.408 158.881 143.137C168.126 151.828 187.433 160.8 186.221 162.199C184.238 164.487 132.057 157.622 121.758 154.834C111.459 152.046 99.1309 140.824 83.5861 132.704C71.1503 126.209 78.5897 118.962 79.2793 112.274C81.3657 108.028 81.2547 98.779 92.2206 91.6042C102.601 84.8122 123.938 80.0213 130.858 78.1591Z" fill="#DCFCB6"/>
<path d="M123.701 78.5302C132.654 70.4534 133.001 70.8673 138.793 70.7948C141.11 70.7658 150.216 73.761 150.379 75.6895C150.53 77.4795 146.765 79.9988 145.066 82.228C143.489 84.2964 163.364 90.4776 159.663 97.2172C154.954 105.793 154.719 116.802 156.468 124.233C158.644 133.472 155.059 152.505 158.149 162.531C158.39 163.313 156.946 164.347 156.159 163.92C150.187 160.678 141.252 156.006 139.472 154.594C136.74 152.427 118.525 138.106 114.992 132.59C108.818 122.951 107.588 107.424 109.408 104.601C110.82 102.412 111.845 95.3195 117.225 87.6012C118.783 85.3659 121.153 80.8289 123.701 78.5302Z" fill="#0E2602"/>
<path d="M124.037 112.055C64.2328 115.145 50.6179 140.289 36.7949 138.07C36.412 115.22 51.3929 86.1424 89.1733 70.0278C136.399 49.8846 201.032 87.6307 226.092 96.933C246.139 104.375 217.536 111.652 217.386 123.512C194.323 115.758 190.855 108.603 124.037 112.055Z" fill="#070A03"/>
<path d="M141.9 137.357C206.274 129.36 211.145 117.842 218.156 104.771C212.614 121.858 204.744 161.249 168.711 180.248C123.669 203.997 55.9168 171.239 30.1467 163.866C9.53063 157.968 45.9596 126.862 45 115L45.1186 115.11C60.7232 129.59 77.689 145.333 141.9 137.357Z" fill="#070A03"/>
<path d="M109.117 140.474C55.3506 139.217 36.3238 127.102 31.407 140.936C33.1722 131.16 13.4874 101.655 22.8103 84.489C30.3079 70.6839 61.9524 59.0678 75.4474 48.6818C113.292 19.5561 177.336 43.6918 201.167 47.8246C220.232 51.1308 243.665 112.916 245.756 124.567C230.252 112.101 168.065 141.851 109.117 140.474Z" fill="#070A03"/>
</g>
<path d="M82.915 -16.5001C83.415 -26.0001 84.515 -47.1001 84.915 -55.5001C85.3099 -63.7934 88.0118 -68.87 89.3636 -70.4412C90.1224 -71.1941 91.0474 -70.7941 91.415 -70.5001L92.915 -69.0001C93.915 -68.0001 95.415 -67.5001 99.915 -64.0001C104.415 -60.5001 107.415 -56.5001 110.415 -53.5001C112.815 -51.1001 122.415 -38.1667 126.915 -32.0001C131.915 -25.1667 142.115 -11.2001 142.915 -10.0001L152.915 4.99995C153.915 6.49995 151.915 7.99995 151.415 8.99995C150.915 9.99995 151.915 15.4999 151.915 15.9999C151.915 16.3999 150.248 17.8333 149.415 18.4999C148.415 17.4999 146.215 15.5999 145.415 15.9999C144.615 16.3999 144.082 17.8333 143.915 18.4999C141.915 19.2999 141.748 23.8333 141.915 25.9999C141.082 26.6666 136.515 29.6999 124.915 36.4999C113.315 43.2999 98.0817 57.3333 91.915 63.5C91.2484 59.1666 89.515 49.3999 87.915 44.9999C86.315 40.5999 84.5817 28.8333 83.915 23.4999C82.9151 12.4999 82.5817 -7.50005 82.915 -16.5001Z" fill="#E2D9C8"/>
<path d="M87.4151 -14C86.6337 -33.1453 90.2413 -54.167 92.2731 -62.8988C92.3351 -63.1652 92.6632 -63.2529 92.8589 -63.0618C95.1601 -60.8132 100.439 -55.9822 106.415 -51.5C112.815 -46.7 131.082 -20.5 139.415 -8C143.082 -2.66667 150.315 8.4 149.915 10C149.515 11.6 142.082 19.6667 138.415 23.5C136.748 25.5 131.615 30.1 124.415 32.5C117.215 34.9 102.082 49.1667 95.415 56L90.915 36.5C90.0817 27.8333 88.2151 5.6 87.4151 -14Z" fill="url(#paint2_linear_1_228)"/>
<path d="M313.915 -11.4999C314.915 -10.9999 320.415 -6.99994 320.915 -6.49994C328.082 -2.33329 344.915 6.3 354.915 7.5C364.587 8.66063 380.651 16.1512 388.179 20.1097C388.513 20.2855 388.917 20.0451 388.925 19.6675C389.009 15.8781 389.606 9.43834 389.915 6.5C390.715 -0.699997 390.248 -18.8333 389.915 -27C390.315 -55.8 382.748 -82.6667 378.915 -92.5C374.115 -106.1 368.248 -112.5 365.915 -114C361.115 -111.6 349.248 -96.3333 343.915 -89C342.415 -87.5 330.915 -69 318.415 -50C309.116 -35.8662 303.709 -22.3664 301.79 -16.2542C301.551 -15.4931 301.814 -14.6749 302.435 -14.1744C305.267 -11.8919 309.561 -8.49994 309.915 -8.49994C310.415 -8.49994 312.915 -11.9999 313.915 -11.4999Z" fill="#DCC6B4"/>
<path d="M311.915 -13.5017C314.315 -14.7017 316.248 -14.6684 316.915 -14.5017C322.248 -11.3345 334.115 -4.5 338.915 -2.5C344.915 0 347.915 0.5 351.415 1C354.215 1.4 375.248 8.83334 385.415 12.5C385.582 7.33334 386.015 -4.2 386.415 -9C386.815 -13.8 385.582 -37.0013 384.915 -48.002C382.415 -69.002 376.915 -85.4983 372.915 -93.5C368.673 -101.986 365.415 -107.502 363.915 -107.002C362.415 -106.502 358.915 -101.002 352.415 -94.5018C347.215 -89.3018 328.915 -60.0018 320.415 -46.0018C315.082 -37.1685 304.815 -18.9018 306.415 -16.5018C308.015 -14.1018 310.748 -13.5018 311.915 -13.5017Z" fill="url(#paint3_linear_1_228)"/>
<path d="M242.415 184H242.122L241.84 184.084C238.458 185.099 231.166 187.141 228.167 187.515C225.835 187.807 224.907 187.402 223.716 186.883C223.095 186.612 222.402 186.31 221.4 186.06C221.137 185.994 220.539 185.748 219.579 185.276C218.69 184.839 217.649 184.289 216.54 183.704L216.474 183.669L216.391 183.625C214.232 182.486 211.722 181.161 210.047 180.603C208.938 180.233 207.659 180.37 206.609 180.581C205.482 180.809 204.252 181.204 203.06 181.656C200.669 182.562 198.214 183.779 196.622 184.653C195.683 185.169 195.272 186.243 195.537 187.215L201.45 208.895C201.973 212.833 203.169 218.827 205.107 224.248C206.086 226.989 207.28 229.655 208.716 231.851C210.133 234.017 211.916 235.928 214.154 236.849C216.459 237.799 218.456 238.207 220.277 238.098C222.131 237.987 223.635 237.349 224.951 236.484C226.111 235.722 227.177 234.742 228.175 233.826C228.261 233.747 228.346 233.669 228.43 233.592C229.542 232.574 230.663 231.572 232.024 230.664C235.493 228.352 237.946 224.687 239.84 219.855C241.73 215.031 243.132 208.865 244.388 201.329C245.398 195.268 245.634 191.344 245.473 188.871C245.394 187.65 245.211 186.649 244.894 185.887C244.649 185.299 243.942 184 242.415 184Z" fill="url(#paint4_linear_1_228)" stroke="black" stroke-width="4"/>
<path d="M224.889 194.489C220.362 192.483 206.412 188.003 204.915 189.5L207.915 206.5C209.082 212.167 211.815 224 213.415 226C215.415 228.5 219.915 232.5 224.915 230.5C229.915 228.5 233.915 218.5 234.915 215C235.704 212.238 237.856 199.354 237.434 192.767C237.424 192.621 237.291 192.52 237.147 192.543L224.944 194.496C224.925 194.499 224.907 194.497 224.889 194.489Z" fill="#E1B3B6"/>
</g>
<defs>
<radialGradient id="paint0_radial_1_228" cx="0" cy="0" r="1" gradientUnits="userSpaceOnUse" gradientTransform="translate(340.575 98.3016) rotate(-82.9875) scale(44.7747 83.1059)">
<stop stop-color="#C8EE9F"/>
<stop offset="0.48" stop-color="#C5EE9C"/>
<stop offset="1" stop-color="#C6E99E"/>
</radialGradient>
<radialGradient id="paint1_radial_1_228" cx="0" cy="0" r="1" gradientUnits="userSpaceOnUse" gradientTransform="translate(123.298 116.406) rotate(-99.1698) scale(31.6656 55.3361)">
<stop stop-color="#C8EE9F"/>
<stop offset="0.48" stop-color="#C5EE9C"/>
<stop offset="1" stop-color="#C6E99E"/>
</radialGradient>
<linearGradient id="paint2_linear_1_228" x1="87.415" y1="-64" x2="124.915" y2="42.5" gradientUnits="userSpaceOnUse">
<stop stop-color="#D8B19F"/>
<stop offset="0.555" stop-color="#C9B493"/>
<stop offset="1" stop-color="#CBB590"/>
</linearGradient>
<linearGradient id="paint3_linear_1_228" x1="367.415" y1="-107" x2="320.176" y2="-3.40503" gradientUnits="userSpaceOnUse">
<stop stop-color="#D5B59D"/>
<stop offset="0.555" stop-color="#CCB394"/>
<stop offset="1" stop-color="#CAB193"/>
</linearGradient>
<linearGradient id="paint4_linear_1_228" x1="220.467" y1="182.372" x2="220.467" y2="236.115" gradientUnits="userSpaceOnUse">
<stop stop-color="#FBDEDC"/>
<stop offset="1" stop-color="#EEC9C9"/>
</linearGradient>
<clipPath id="clip0_1_228">
<rect width="458" height="202" fill="white"/>
</clipPath>
</defs>
</svg>
