<svg width="458" height="202" viewBox="0 0 458 202" fill="none" xmlns="http://www.w3.org/2000/svg">
<g clip-path="url(#clip0_8_34)">
<path fill-rule="evenodd" clip-rule="evenodd" d="M88.9151 66.5003C83.9151 53.0003 74.8151 16.1003 78.4151 -23.4997C82.0151 -63.0997 82.9152 -67.9997 82.9153 -65.4997C83.2485 -67.9998 84.9149 -73.2999 88.9151 -74.4999C92.9153 -75.6999 100.582 -69.3333 103.915 -65.9999C110.249 -60 123.915 -47 127.915 -43C129.497 -41.4188 132.628 -38.4374 136.25 -34.9889C144.081 -27.5329 154.206 -17.8931 155.915 -15.5C156.671 -14.4414 158.251 -12.468 160.197 -10.0363C164.686 -4.42825 171.125 3.61721 173.915 8.5C184.915 4.66666 211.015 -3.3 227.415 -4.5C247.915 -6 289.415 -6.5 293.915 -6C297.915 -17 308.515 -42.7 318.915 -57.5C322.312 -62.3342 325.948 -68.0903 329.761 -74.1258C340.539 -91.1875 352.727 -110.482 364.915 -117.5C366.415 -117.167 370.015 -115.6 372.415 -112C372.653 -111.643 372.939 -111.232 373.267 -110.76C377.067 -105.29 386.551 -91.6411 393.915 -58.5C400.315 -29.7 404.582 -2.5 405.915 7.5C406.749 15.5 408.515 33.1 408.915 39.5C420.749 52.1667 446.715 80.5 455.915 92.5C465.115 104.5 472.082 117.5 474.415 122.5C474.421 122.513 474.427 122.527 474.433 122.541C478.26 121.097 483.374 120.01 488.056 119.015L488.056 119.015C489.683 118.669 491.258 118.335 492.708 118C497.908 116.8 511.541 114.833 517.708 114L509.208 116.5L500.208 119C496.208 120 487.608 121.7 483.208 122.5C482.336 122.658 481.022 122.982 479.634 123.325C478.075 123.709 476.424 124.116 475.204 124.337C478.249 131.522 483.451 144.815 484.915 152.5C483.082 155.333 479.015 161.7 477.415 164.5C478.082 165.667 479.515 168.2 479.915 169C480.242 169.653 479.075 171.587 477.808 173.686C477.136 174.8 476.435 175.96 475.915 177C475.288 178.255 474.907 180.111 474.543 181.882C474.216 183.47 473.904 184.99 473.441 185.948C474.113 186.215 474.79 186.666 475.208 187C476.208 187.5 484.208 191.5 485.708 192C486.458 192.25 488.583 193.25 490.708 194.25C492.833 195.25 494.958 196.25 495.708 196.5C496.481 196.758 498.982 197.946 501.567 199.174C503.995 200.327 506.497 201.516 507.708 202C510.208 203 510.708 204.5 509.208 205C508.008 205.4 503.374 203.5 501.208 202.5C498.541 201.333 492.008 198.6 487.208 197C481.208 195 472.208 191 471.208 189.5C471.117 189.364 471.039 189.232 470.972 189.104C459.911 203.075 439.292 228.106 428.915 237C414.915 249 385.415 270 366.915 278.5C352.115 285.3 321.415 295 307.915 299C308.582 315.333 310.315 350.9 311.915 362.5C313.515 374.1 317.915 415 319.915 434C321.749 445 326.215 469.3 329.415 478.5C330.915 482.667 332.515 492.1 326.915 496.5C321.315 500.9 310.582 500.333 305.915 499.5C301.915 497 292.915 490.3 288.915 483.5C284.915 476.7 276.249 451.667 272.415 440L258.915 361.5C247.415 365.667 218.115 375 192.915 379C186.249 392.333 171.115 424.7 163.915 447.5C156.715 470.3 150.582 486.667 148.415 492C146.082 494.667 139.815 500.4 133.415 502C127.015 503.6 118.749 502.667 115.415 502C113.749 500.5 110.915 494 112.915 480C113.278 477.464 113.671 474.634 114.092 471.61C116.575 453.769 119.995 429.189 123.415 418.5C126.615 408.5 130.415 392.333 131.915 385.5C122.249 386.667 99.6153 389.1 86.4153 389.5C73.2153 389.9 59.2487 391 53.9153 391.5C49.582 400.167 39.0153 420 31.4153 430C23.8153 440 10.2486 449.833 4.41531 453.5C0.581985 454.333 -7.88469 459 -11.0847 471C-11.5594 472.78 -12.0342 474.61 -12.5148 476.462C-16.0835 490.215 -19.9749 505.212 -26.5847 510.5C-32.5847 515.3 -38.7514 515.833 -41.0847 515.5C-46.7514 514.667 -57.9847 509.6 -57.5847 496C-57.1847 482.4 -55.7514 468.333 -55.0848 463C-54.2515 458.5 -52.5848 452 -47.0848 445C-40.3585 436.439 -29.1848 417.8 -27.5848 407C-26.2515 402.833 -23.8848 393.9 -25.0848 391.5C-26.2848 389.1 -40.2515 405.167 -47.0848 413.5L-47.1957 413.614C-57.5918 424.346 -81.875 449.413 -93.0848 453C-95.7452 453.851 -98.7 454.748 -101.756 455.675C-113.061 459.106 -125.755 462.958 -130.085 466.5C-133.418 469.833 -141.785 479.9 -148.585 493.5C-155.385 507.1 -163.752 518.167 -167.085 522C-169.585 524.333 -176.985 528.8 -186.585 528C-196.185 527.2 -197.252 515.667 -196.585 510L-186.585 468C-184.418 458.667 -179.285 439.2 -176.085 436C-172.085 432 -154.085 414 -149.085 407.5L-148.992 407.379C-143.937 400.808 -132.011 385.306 -120.085 354C-110.485 328.8 -104.418 315.167 -102.585 311.5C-98.7514 305.333 -89.9848 291.9 -85.5848 287.5C-99.5848 281.333 -131.785 265.9 -148.585 253.5C-169.585 238 -191.585 211 -198.585 187C-205.585 163 -200.085 130.5 -192.085 117C-191.138 115.402 -190.162 113.698 -189.142 111.915C-181.542 98.6395 -171.421 80.9609 -151.585 69.5C-133.585 59.1 -127.752 70.1667 -127.085 77C-127.918 79.5 -131.385 86.4 -138.585 94C-139.896 95.384 -141.335 96.8635 -142.849 98.4215C-151.733 107.558 -163.241 119.394 -167.085 130.5C-168.378 134.236 -169.713 136.61 -170.875 138.676C-173.757 143.801 -175.579 147.041 -173.085 164.5C-170.285 184.1 -150.252 208.667 -140.585 218.5C-132.418 226 -112.885 242.6 -100.085 249C-87.285 255.4 -65.7516 264.333 -56.585 268C-50.085 263.667 -28.885 255.3 3.91504 256.5C36.715 257.7 70.915 252.333 83.915 249.5C75.0817 241.833 56.015 224 50.415 214C50.3758 213.93 50.3367 213.86 50.2976 213.79C49.3109 215.366 46.9555 218.113 45.7075 219.5C42.8742 222.333 37.0075 228.1 36.2075 228.5C35.2075 229 27.7075 237 25.2075 240C22.7075 243 17.2075 247.5 16.7075 246.5C16.3838 245.853 16.8983 245.205 17.844 244.015C18.3591 243.367 19.0022 242.558 19.7075 241.5C21.3075 239.1 27.7075 232.5 30.7075 229.5C32.5408 228.167 37.2075 224.3 41.2075 219.5C44.5112 215.536 47.5875 213.117 49.3096 212.02C42.8876 200.473 38.2814 191.278 35.915 178.5C35.6052 175.866 36.1785 170.631 37.5577 163.934C35.6579 163.189 27.9332 163 24.2075 163C19.5408 163.167 9.40752 163.5 6.20752 163.5C2.20752 163.5 -2.79248 164.5 -5.29248 165C-7.79248 165.5 -13.7925 165.5 -13.7925 164.5C-13.7925 163.5 -11.7925 163 -10.2925 163C-8.79248 163 -5.29248 162.5 -2.79248 162C-0.79248 161.6 7.70752 160.833 11.7075 160.5H32.2075C35.0075 160.5 37.0408 160.833 37.7075 161C37.8773 161.029 38.0291 161.072 38.1645 161.125C41.5044 146.329 48.3238 125.813 57.915 110C72.715 85.6 84.7484 70.8335 88.9151 66.5003Z" fill="#070A03"/>
<path d="M224.226 88.423L223.974 88.9506L224.046 89.5308C225.36 100.154 232.008 110.211 235.17 113.952C245.774 126.564 277.64 154.02 322.736 153.199C350.541 152.692 366.74 150.017 377.569 146.433C386.276 143.551 391.498 140.069 396.263 136.891C397.44 136.106 398.588 135.34 399.754 134.606C405.203 131.178 411.205 126.7 416.286 121.848C421.324 117.037 425.646 111.682 427.466 106.476L427.626 106.017L427.558 105.536C425.854 93.4692 419.278 82.8143 399.82 65.3211C389.022 55.6139 374.482 47.0791 360.043 41.8209C348.763 37.7133 337.278 35.5373 330.259 34.2073C329.843 34.1285 329.443 34.0528 329.06 33.9797L329.008 33.9697L328.955 33.9625C316.29 32.2441 290.827 31.6094 265.799 47.1658C241.025 62.5645 227.813 80.913 224.226 88.423Z" fill="#EBFFD3" stroke="black" stroke-width="4"/>
<path d="M267.038 51.4145C247.706 61.8644 238.293 80.3539 233.876 89.1362C232.877 91.1218 232.684 93.4335 233.386 95.5422L237.205 107.003C245.158 114.776 265.757 135.455 284.53 139.984C303.303 144.512 317.999 145.215 323 145C338.998 145.343 375.5 145 394.069 128.167C411.545 112.324 423.212 104.801 423.23 101.858C423.244 99.5041 418.951 92.7585 416.804 89.6799C412.346 82.6635 393.457 65.059 382 58C364.615 47.2885 333.602 41.1517 319.106 40.3277C310.111 39.5376 289.111 39.4831 267.038 51.4145Z" fill="url(#paint0_radial_8_34)"/>
<path d="M291.007 50.786C293.806 43.5031 298.503 43.5031 300.502 44.4135C305 47.5998 301.502 68.0828 300.502 70.8139C299.503 73.545 297.504 105.863 297.004 114.056C296.338 124.98 304 146.374 304 148.65C304 150.926 295.005 150.015 293.006 148.195C291.007 146.374 292.007 134.994 289.008 127.256C286.61 121.066 284.844 102.221 285.011 93.573C285.844 82.3452 288.209 58.0689 291.007 50.786Z" fill="#DCFCB6"/>
<path d="M292.379 65.0102C293.924 51.529 295.92 46.9442 296.724 46.337C299.621 44.5149 298.123 50.3545 297.207 57.2676C296.241 64.5547 293.345 101.446 294.31 115.564C294.99 125.496 299.202 140.382 301.96 148.888C302.264 149.827 301.183 150.595 300.418 149.97C299.037 148.84 297.663 147.635 297.207 146.99C296.241 145.624 294.037 135.091 292.379 130.139C289.483 121.485 289 103.267 289 99.1685C289 95.0695 290.448 81.8616 292.379 65.0102Z" fill="#0E2602"/>
<path d="M196.684 88.7817L197.007 89.1552L197.073 89.6593C197.992 96.6793 195.339 102.082 193.721 105.375C193.459 105.909 193.224 106.387 193.036 106.808C190.869 113.315 185.144 123.862 176.125 133.904C167.047 144.011 154.533 153.717 138.782 158.249C119.478 163.802 108.252 165.103 100.552 164.572C94.9256 164.184 91.1291 162.781 87.7015 161.514C86.4627 161.056 85.2721 160.616 84.0607 160.248C75.1362 157.538 66.7651 151.56 63.2623 143.17L63.1622 142.93L63.1379 142.667C62.6354 137.233 62.5472 132.749 64.2639 127.622C65.9619 122.55 69.3715 117.007 75.5252 109.273C75.794 108.935 76.0633 108.596 76.3332 108.257C82.9255 99.9646 89.8717 91.2272 98.59 84.546C105.996 78.8701 112.889 74.5398 117.494 72.0704L117.536 72.048L117.579 72.028C118.836 71.4392 120.021 70.7901 121.3 70.0899C122.092 69.6563 122.919 69.2032 123.822 68.7324C126.11 67.5399 128.672 66.3559 131.758 65.4878C137.958 63.7439 146.049 63.335 158.132 66.2895C178.709 71.3213 191.086 82.3174 196.684 88.7817Z" fill="#EBFFD3" stroke="black" stroke-width="3.40284"/>
<path d="M158.668 73.5932C176.332 77.5817 185.31 85.5543 190.239 90.7071C191.732 92.573 190.53 98.848 189.269 102.141C185.869 110.001 176.517 126.776 164.668 134.607C152.819 142.438 142.624 148.696 139.16 149.696C128.302 153.68 106.485 160.174 90.4925 154.547C74.6263 148.965 71.1598 144.231 69.8695 142.27C66.9441 137.825 69.9165 130.251 70.7183 127.397C72.2464 120.995 79.1421 112.719 85.4443 104.655C95.0073 92.4188 114.026 80.4176 123.753 76.4148C129.729 73.7176 141.003 69.6048 158.668 73.5932Z" fill="url(#paint1_radial_8_34)"/>
<path d="M117.51 79.8706C118.784 74.568 123.325 74.5615 125.199 75.0971C125.452 75.1696 125.645 75.3759 125.706 75.6292C126.671 79.621 123.89 88.876 123.89 94.5566C123.89 101.127 126.017 115.813 124.741 123.929C124.263 126.967 126.749 135.341 128.143 140.161C130.259 147.473 133.674 153.687 133.674 155.233C133.674 157.763 126.344 158.122 124.741 156.779C123.137 155.436 120.357 146.048 117.509 140.161C115.231 135.451 115.378 127.283 114.734 120.588C114.533 116.113 113.508 107.001 114.107 98.4214C114.674 90.2995 116.841 82.6544 117.51 79.8706Z" fill="#DCFCB6"/>
<path d="M117.936 89.1457C118.902 78.8281 119.001 79.0971 120.063 77.1648C120.488 76.3918 122.421 76.2156 122.615 77.938C122.794 79.5368 122.314 83.0681 122.189 85.6672C122.074 88.0787 121.024 95.2772 120.913 102.672C120.772 112.083 121.662 122.29 122.615 128.566C123.775 136.21 128.677 148.3 131.082 155.214C131.363 156.022 130.377 156.69 129.69 156.172C128.628 155.373 127.596 154.564 127.294 154.074C126.606 152.959 122.032 145.645 120.913 141.706C118.957 134.824 117.414 120.929 117.51 117.745C117.585 115.276 117.173 108.417 117.511 99.5804C117.608 97.0211 117.661 92.082 117.936 89.1457Z" fill="#0E2602"/>
<path d="M82.915 -16.5001C83.415 -26.0001 84.515 -47.1001 84.915 -55.5001C85.3099 -63.7934 88.0118 -68.87 89.3636 -70.4412C90.1224 -71.1941 91.0474 -70.7941 91.415 -70.5001L92.915 -69.0001C93.915 -68.0001 95.415 -67.5001 99.915 -64.0001C104.415 -60.5001 107.415 -56.5001 110.415 -53.5001C112.815 -51.1001 122.415 -38.1667 126.915 -32.0001C131.915 -25.1667 142.115 -11.2001 142.915 -10.0001L152.915 4.99995C153.915 6.49995 151.915 7.99995 151.415 8.99995C150.915 9.99995 151.915 15.4999 151.915 15.9999C151.915 16.3999 150.248 17.8333 149.415 18.4999C148.415 17.4999 146.215 15.5999 145.415 15.9999C144.615 16.3999 144.082 17.8333 143.915 18.4999C141.915 19.2999 141.748 23.8333 141.915 25.9999C141.082 26.6666 136.515 29.6999 124.915 36.4999C113.315 43.2999 98.0817 57.3333 91.915 63.5C91.2484 59.1666 89.515 49.3999 87.915 44.9999C86.315 40.5999 84.5817 28.8333 83.915 23.4999C82.9151 12.4999 82.5817 -7.50005 82.915 -16.5001Z" fill="#E2D9C8"/>
<path d="M87.4151 -14C86.6337 -33.1453 90.2413 -54.167 92.2731 -62.8988C92.3351 -63.1652 92.6632 -63.2529 92.8589 -63.0618C95.1601 -60.8132 100.439 -55.9822 106.415 -51.5C112.815 -46.7 131.082 -20.5 139.415 -8C143.082 -2.66667 150.315 8.4 149.915 10C149.515 11.6 142.082 19.6667 138.415 23.5C136.748 25.5 131.615 30.1 124.415 32.5C117.215 34.9 102.082 49.1667 95.415 56L90.915 36.5C90.0817 27.8333 88.2151 5.6 87.4151 -14Z" fill="url(#paint2_linear_8_34)"/>
<path d="M313.915 -11.4999C314.915 -10.9999 320.415 -6.99994 320.915 -6.49994C328.082 -2.33329 344.915 6.3 354.915 7.5C364.587 8.66063 380.651 16.1512 388.179 20.1097C388.513 20.2855 388.917 20.0451 388.925 19.6675C389.009 15.8781 389.606 9.43834 389.915 6.5C390.715 -0.699997 390.248 -18.8333 389.915 -27C390.315 -55.8 382.748 -82.6667 378.915 -92.5C374.115 -106.1 368.248 -112.5 365.915 -114C361.115 -111.6 349.248 -96.3333 343.915 -89C342.415 -87.5 330.915 -69 318.415 -50C309.116 -35.8662 303.709 -22.3664 301.79 -16.2542C301.551 -15.4931 301.814 -14.6749 302.435 -14.1744C305.267 -11.8919 309.561 -8.49994 309.915 -8.49994C310.415 -8.49994 312.915 -11.9999 313.915 -11.4999Z" fill="#DCC6B4"/>
<path d="M311.915 -13.5017C314.315 -14.7017 316.248 -14.6684 316.915 -14.5017C322.248 -11.3345 334.115 -4.5 338.915 -2.5C344.915 0 347.915 0.5 351.415 1C354.215 1.4 375.248 8.83334 385.415 12.5C385.582 7.33334 386.015 -4.2 386.415 -9C386.815 -13.8 385.582 -37.0013 384.915 -48.002C382.415 -69.002 376.915 -85.4983 372.915 -93.5C368.673 -101.986 365.415 -107.502 363.915 -107.002C362.415 -106.502 358.915 -101.002 352.415 -94.5018C347.215 -89.3018 328.915 -60.0018 320.415 -46.0018C315.082 -37.1685 304.815 -18.9018 306.415 -16.5018C308.015 -14.1018 310.748 -13.5018 311.915 -13.5017Z" fill="url(#paint3_linear_8_34)"/>
<path d="M242.415 184H242.122L241.84 184.084C238.458 185.099 231.166 187.141 228.167 187.515C225.835 187.807 224.907 187.402 223.716 186.883C223.095 186.612 222.402 186.31 221.4 186.06C221.137 185.994 220.539 185.748 219.579 185.276C218.69 184.839 217.649 184.289 216.54 183.704L216.474 183.669L216.391 183.625C214.232 182.486 211.722 181.161 210.047 180.603C208.938 180.233 207.659 180.37 206.609 180.581C205.482 180.809 204.252 181.204 203.06 181.656C200.669 182.562 198.214 183.779 196.622 184.653C195.683 185.169 195.272 186.243 195.537 187.215L201.45 208.895C201.973 212.833 203.169 218.827 205.107 224.248C206.086 226.989 207.28 229.655 208.716 231.851C210.133 234.017 211.916 235.928 214.154 236.849C216.459 237.799 218.456 238.207 220.277 238.098C222.131 237.987 223.635 237.349 224.951 236.484C226.111 235.722 227.177 234.742 228.175 233.826C228.261 233.747 228.346 233.669 228.43 233.592C229.542 232.574 230.663 231.572 232.024 230.664C235.493 228.352 237.946 224.687 239.84 219.855C241.73 215.031 243.132 208.865 244.388 201.329C245.398 195.268 245.634 191.344 245.473 188.871C245.394 187.65 245.211 186.649 244.894 185.887C244.649 185.299 243.942 184 242.415 184Z" fill="url(#paint4_linear_8_34)" stroke="black" stroke-width="4"/>
<path d="M224.889 194.489C220.362 192.483 206.412 188.003 204.915 189.5L207.915 206.5C209.082 212.167 211.815 224 213.415 226C215.415 228.5 219.915 232.5 224.915 230.5C229.915 228.5 233.915 218.5 234.915 215C235.704 212.238 237.856 199.354 237.434 192.767C237.424 192.621 237.291 192.52 237.147 192.543L224.944 194.496C224.925 194.499 224.907 194.497 224.889 194.489Z" fill="#E1B3B6"/>
</g>
<defs>
<radialGradient id="paint0_radial_8_34" cx="0" cy="0" r="1" gradientUnits="userSpaceOnUse" gradientTransform="translate(340.244 99.1464) rotate(-80.0086) scale(44.7747 83.1059)">
<stop stop-color="#C8EE9F"/>
<stop offset="0.48" stop-color="#C5EE9C"/>
<stop offset="1" stop-color="#C6E99E"/>
</radialGradient>
<radialGradient id="paint1_radial_8_34" cx="0" cy="0" r="1" gradientUnits="userSpaceOnUse" gradientTransform="translate(122.451 121.161) rotate(-114.402) scale(35.5183 57.4094)">
<stop stop-color="#C8EE9F"/>
<stop offset="0.48" stop-color="#C5EE9C"/>
<stop offset="1" stop-color="#C6E99E"/>
</radialGradient>
<linearGradient id="paint2_linear_8_34" x1="87.415" y1="-64" x2="124.915" y2="42.5" gradientUnits="userSpaceOnUse">
<stop stop-color="#D8B19F"/>
<stop offset="0.555" stop-color="#C9B493"/>
<stop offset="1" stop-color="#CBB590"/>
</linearGradient>
<linearGradient id="paint3_linear_8_34" x1="367.415" y1="-107" x2="320.176" y2="-3.40503" gradientUnits="userSpaceOnUse">
<stop stop-color="#D5B59D"/>
<stop offset="0.555" stop-color="#CCB394"/>
<stop offset="1" stop-color="#CAB193"/>
</linearGradient>
<linearGradient id="paint4_linear_8_34" x1="220.467" y1="182.372" x2="220.467" y2="236.115" gradientUnits="userSpaceOnUse">
<stop stop-color="#FBDEDC"/>
<stop offset="1" stop-color="#EEC9C9"/>
</linearGradient>
<clipPath id="clip0_8_34">
<rect width="458" height="202" fill="white"/>
</clipPath>
</defs>
</svg>
