<svg width="458" height="202" viewBox="0 0 458 202" fill="none" xmlns="http://www.w3.org/2000/svg">
<g clip-path="url(#clip0_8_150)">
<path fill-rule="evenodd" clip-rule="evenodd" d="M88.9151 66.5003C83.9151 53.0003 74.8151 16.1003 78.4151 -23.4997C82.0151 -63.0997 82.9152 -67.9997 82.9153 -65.4997C83.2485 -67.9998 84.9149 -73.2999 88.9151 -74.4999C92.9153 -75.6999 100.582 -69.3333 103.915 -65.9999C110.249 -60 123.915 -47 127.915 -43C129.497 -41.4188 132.628 -38.4374 136.25 -34.9889C144.081 -27.5329 154.206 -17.8931 155.915 -15.5C156.671 -14.4414 158.251 -12.468 160.197 -10.0363C164.686 -4.42825 171.125 3.61721 173.915 8.5C184.915 4.66666 211.015 -3.3 227.415 -4.5C247.915 -6 289.415 -6.5 293.915 -6C297.915 -17 308.515 -42.7 318.915 -57.5C322.312 -62.3342 325.948 -68.0903 329.761 -74.1258C340.539 -91.1875 352.727 -110.482 364.915 -117.5C366.415 -117.167 370.015 -115.6 372.415 -112C372.653 -111.643 372.939 -111.232 373.267 -110.76C377.067 -105.29 386.551 -91.6411 393.915 -58.5C400.315 -29.7 404.582 -2.5 405.915 7.5C406.749 15.5 408.515 33.1 408.915 39.5C420.749 52.1667 446.715 80.5 455.915 92.5C465.115 104.5 472.082 117.5 474.415 122.5C474.421 122.513 474.427 122.527 474.433 122.541C478.26 121.097 483.374 120.01 488.056 119.015L488.056 119.015C489.683 118.669 491.258 118.335 492.708 118C497.908 116.8 511.541 114.833 517.708 114L509.208 116.5L500.208 119C496.208 120 487.608 121.7 483.208 122.5C482.336 122.658 481.022 122.982 479.634 123.325C478.075 123.709 476.424 124.116 475.204 124.337C478.249 131.522 483.451 144.815 484.915 152.5C483.082 155.333 479.015 161.7 477.415 164.5C478.082 165.667 479.515 168.2 479.915 169C480.242 169.653 479.075 171.587 477.808 173.686C477.136 174.8 476.435 175.96 475.915 177C475.288 178.255 474.907 180.111 474.543 181.882C474.216 183.47 473.904 184.99 473.441 185.948C474.113 186.215 474.79 186.666 475.208 187C476.208 187.5 484.208 191.5 485.708 192C486.458 192.25 488.583 193.25 490.708 194.25C492.833 195.25 494.958 196.25 495.708 196.5C496.481 196.758 498.982 197.946 501.567 199.174C503.995 200.327 506.497 201.516 507.708 202C510.208 203 510.708 204.5 509.208 205C508.008 205.4 503.374 203.5 501.208 202.5C498.541 201.333 492.008 198.6 487.208 197C481.208 195 472.208 191 471.208 189.5C471.117 189.364 471.039 189.232 470.972 189.104C459.911 203.075 439.292 228.106 428.915 237C414.915 249 385.415 270 366.915 278.5C352.115 285.3 321.415 295 307.915 299C308.582 315.333 310.315 350.9 311.915 362.5C313.515 374.1 317.915 415 319.915 434C321.749 445 326.215 469.3 329.415 478.5C330.915 482.667 332.515 492.1 326.915 496.5C321.315 500.9 310.582 500.333 305.915 499.5C301.915 497 292.915 490.3 288.915 483.5C284.915 476.7 276.249 451.667 272.415 440L258.915 361.5C247.415 365.667 218.115 375 192.915 379C186.249 392.333 171.115 424.7 163.915 447.5C156.715 470.3 150.582 486.667 148.415 492C146.082 494.667 139.815 500.4 133.415 502C127.015 503.6 118.749 502.667 115.415 502C113.749 500.5 110.915 494 112.915 480C113.278 477.464 113.671 474.634 114.092 471.61C116.575 453.769 119.995 429.189 123.415 418.5C126.615 408.5 130.415 392.333 131.915 385.5C122.249 386.667 99.6153 389.1 86.4153 389.5C73.2153 389.9 59.2487 391 53.9153 391.5C49.582 400.167 39.0153 420 31.4153 430C23.8153 440 10.2486 449.833 4.41531 453.5C0.581985 454.333 -7.88469 459 -11.0847 471C-11.5594 472.78 -12.0342 474.61 -12.5148 476.462C-16.0835 490.215 -19.9749 505.212 -26.5847 510.5C-32.5847 515.3 -38.7514 515.833 -41.0847 515.5C-46.7514 514.667 -57.9847 509.6 -57.5847 496C-57.1847 482.4 -55.7514 468.333 -55.0848 463C-54.2515 458.5 -52.5848 452 -47.0848 445C-40.3585 436.439 -29.1848 417.8 -27.5848 407C-26.2515 402.833 -23.8848 393.9 -25.0848 391.5C-26.2848 389.1 -40.2515 405.167 -47.0848 413.5L-47.1957 413.614C-57.5918 424.346 -81.875 449.413 -93.0848 453C-95.7452 453.851 -98.7 454.748 -101.756 455.675C-113.061 459.106 -125.755 462.958 -130.085 466.5C-133.418 469.833 -141.785 479.9 -148.585 493.5C-155.385 507.1 -163.752 518.167 -167.085 522C-169.585 524.333 -176.985 528.8 -186.585 528C-196.185 527.2 -197.252 515.667 -196.585 510L-186.585 468C-184.418 458.667 -179.285 439.2 -176.085 436C-172.085 432 -154.085 414 -149.085 407.5L-148.992 407.379C-143.937 400.808 -132.011 385.306 -120.085 354C-110.485 328.8 -104.418 315.167 -102.585 311.5C-98.7514 305.333 -89.9848 291.9 -85.5848 287.5C-99.5848 281.333 -131.785 265.9 -148.585 253.5C-169.585 238 -191.585 211 -198.585 187C-205.585 163 -200.085 130.5 -192.085 117C-191.138 115.402 -190.162 113.698 -189.142 111.915C-181.542 98.6395 -171.421 80.9609 -151.585 69.5C-133.585 59.1 -127.752 70.1667 -127.085 77C-127.918 79.5 -131.385 86.4 -138.585 94C-139.896 95.384 -141.335 96.8635 -142.849 98.4215C-151.733 107.558 -163.241 119.394 -167.085 130.5C-168.378 134.236 -169.713 136.61 -170.875 138.676C-173.757 143.801 -175.579 147.041 -173.085 164.5C-170.285 184.1 -150.252 208.667 -140.585 218.5C-132.418 226 -112.885 242.6 -100.085 249C-87.285 255.4 -65.7516 264.333 -56.585 268C-50.085 263.667 -28.885 255.3 3.91504 256.5C36.715 257.7 70.915 252.333 83.915 249.5C75.0817 241.833 56.015 224 50.415 214C50.3758 213.93 50.3367 213.86 50.2976 213.79C49.3109 215.366 46.9555 218.113 45.7075 219.5C42.8742 222.333 37.0075 228.1 36.2075 228.5C35.2075 229 27.7075 237 25.2075 240C22.7075 243 17.2075 247.5 16.7075 246.5C16.3838 245.853 16.8983 245.205 17.844 244.015C18.3591 243.367 19.0022 242.558 19.7075 241.5C21.3075 239.1 27.7075 232.5 30.7075 229.5C32.5408 228.167 37.2075 224.3 41.2075 219.5C44.5112 215.536 47.5875 213.117 49.3096 212.02C42.8876 200.473 38.2814 191.278 35.915 178.5C35.6052 175.866 36.1785 170.631 37.5577 163.934C35.6579 163.189 27.9332 163 24.2075 163C19.5408 163.167 9.40752 163.5 6.20752 163.5C2.20752 163.5 -2.79248 164.5 -5.29248 165C-7.79248 165.5 -13.7925 165.5 -13.7925 164.5C-13.7925 163.5 -11.7925 163 -10.2925 163C-8.79248 163 -5.29248 162.5 -2.79248 162C-0.79248 161.6 7.70752 160.833 11.7075 160.5H32.2075C35.0075 160.5 37.0408 160.833 37.7075 161C37.8773 161.029 38.0291 161.072 38.1645 161.125C41.5044 146.329 48.3238 125.813 57.915 110C72.715 85.6 84.7484 70.8335 88.9151 66.5003Z" fill="#070A03"/>
<path d="M224.782 103.604L224.613 104.164L224.772 104.727C227.68 115.028 235.774 123.962 239.466 127.181C251.858 138.041 287.514 160.356 331.966 152.714C359.373 148.002 374.98 142.903 385.142 137.721C393.312 133.554 397.946 129.321 402.175 125.458C403.219 124.504 404.238 123.573 405.28 122.671C410.147 118.457 415.401 113.121 419.689 107.556C423.94 102.038 427.401 96.0895 428.412 90.6677L428.501 90.1901L428.361 89.7249C424.849 78.0554 416.735 68.5193 394.851 54.175C382.708 46.2152 367.043 39.9808 351.974 36.9701C340.203 34.6183 328.521 34.2067 321.381 33.9552C320.958 33.9403 320.551 33.9259 320.161 33.9118L320.108 33.9099L320.055 33.9108C307.276 34.1302 282.01 37.3592 259.627 56.5267C237.471 75.4999 227.191 95.6377 224.782 103.604Z" fill="#EBFFD3" stroke="black" stroke-width="4"/>
<path d="M261.495 60.5388C243.969 73.796 237.465 93.4978 234.429 102.848C233.742 104.962 233.901 107.276 234.915 109.254L240.426 120.004C249.464 126.483 272.957 143.804 292.199 145.437C311.441 147.07 326.074 145.539 330.985 144.569C346.851 142.485 382.88 136.618 398.685 117.167C413.56 98.8595 423.953 89.6567 423.525 86.7452C423.182 84.416 417.918 78.3983 415.329 75.6805C409.86 69.4201 388.523 54.8795 376.129 49.6371C357.321 41.6821 325.737 40.3132 311.284 41.694C302.273 42.2753 281.507 45.402 261.495 60.5388Z" fill="url(#paint0_radial_8_150)"/>
<path d="M276.428 57.2917C283.368 49.0316 297.328 47.2042 303.441 47.323C317.409 48.7108 331.868 68.1349 329.414 71.213C326.96 74.2911 346.135 104.137 346.199 112.4C346.284 123.416 333.113 146.362 333.543 148.603C333.973 150.844 307.069 153.447 300.784 152.432C294.499 151.416 295.318 139.822 284.944 133.369C276.645 128.207 267.835 110.337 266.695 101.757C267.048 90.3766 269.488 65.5518 276.428 57.2917Z" fill="#DCFCB6"/>
<path d="M281.351 71.1448C286.047 56.9216 294.539 51.1819 298.198 50.09C311.438 46.5175 328.354 50.011 325.365 57.3807C322.215 65.149 322.054 101.839 329.252 115.149C334.293 124.471 334.243 139.994 343.197 147.571C344.058 148.299 343.617 150.167 342.512 150.131C334.139 149.863 322.61 149.396 319.491 148.906C314.704 148.153 302.374 139.134 293.664 135.276C278.443 128.533 272.735 110.891 271.96 106.855C271.185 102.819 275.48 88.9237 281.351 71.1448Z" fill="#0E2602"/>
<path d="M303.671 125.932C249.896 125.081 230.779 113.11 225.967 126.981C227.658 117.192 207.751 87.8363 216.944 70.6004C224.338 56.739 255.894 44.8846 269.31 34.3971C306.933 4.9867 371.158 28.6387 395.02 32.5916C414.109 35.7539 438.007 97.3608 440.186 108.995C424.589 96.6466 362.628 126.865 303.671 125.932Z" fill="#070A03"/>
<path d="M352.8 128.709C410.143 114.977 427.768 96.667 433.203 83.0282C429.355 100.534 413.878 141.081 382.745 163.224C343.83 190.902 280.741 164.369 257.082 159.341C238.156 155.319 224.622 120.275 222.971 108.554C237.994 121.595 295.457 142.44 352.8 128.709Z" fill="#070A03"/>
<mask id="mask0_8_150" style="mask-type:alpha" maskUnits="userSpaceOnUse" x="60" y="77" width="158" height="89">
<path d="M215.114 116.191L215.399 116.688L215.321 117.261C214.421 123.878 210.182 128.097 207.64 130.627C207.232 131.033 206.868 131.396 206.568 131.718C202.591 137.011 193.86 145.004 181.851 151.703C169.76 158.449 154.229 163.948 136.714 164.014C115.161 164.095 103.165 162.413 95.3263 159.997C89.5969 158.231 86.0392 156.027 82.806 154.025C81.6314 153.297 80.4996 152.596 79.3221 151.952C70.788 147.286 63.5678 139.79 62.1024 131.254L62.0517 130.958L62.1053 130.662C63.0143 125.639 64.1119 121.556 67.2686 117.368C70.375 113.246 75.3804 109.147 83.8112 103.783C84.1768 103.55 84.543 103.317 84.91 103.083C93.9668 97.316 103.479 91.2585 114.287 87.4917C123.481 84.2871 131.784 82.1588 137.211 81.1171L137.251 81.1094L137.292 81.1036C138.765 80.8936 140.19 80.6087 141.716 80.3036C142.653 80.1162 143.629 79.9211 144.677 79.731C147.362 79.2445 150.317 78.8373 153.727 78.8421C160.573 78.8515 169.064 80.5191 180.859 86.2256C200.942 95.9426 210.959 108.937 215.114 116.191Z" fill="#EBFFD3" stroke="black" stroke-width="3.40284"/>
</mask>
<g mask="url(#mask0_8_150)">
<path d="M215.114 116.191L215.399 116.688L215.321 117.261C214.421 123.878 210.182 128.097 207.64 130.627C207.232 131.033 206.868 131.396 206.568 131.718C202.591 137.011 193.86 145.004 181.851 151.703C169.76 158.449 154.229 163.948 136.714 164.014C115.161 164.095 103.165 162.413 95.3263 159.997C89.5969 158.231 86.0392 156.027 82.806 154.025C81.6314 153.297 80.4996 152.596 79.3221 151.952C70.788 147.286 63.5678 139.79 62.1024 131.254L62.0517 130.958L62.1053 130.662C63.0143 125.639 64.1119 121.556 67.2686 117.368C70.375 113.246 75.3804 109.147 83.8112 103.783C84.1768 103.55 84.543 103.317 84.91 103.083C93.9668 97.316 103.479 91.2585 114.287 87.4917C123.481 84.2871 131.784 82.1588 137.211 81.1171L137.251 81.1094L137.292 81.1036C138.765 80.8936 140.19 80.6087 141.716 80.3036C142.653 80.1162 143.629 79.9211 144.677 79.731C147.362 79.2445 150.317 78.8373 153.727 78.8421C160.573 78.8515 169.064 80.5191 180.859 86.2256C200.942 95.9426 210.959 108.937 215.114 116.191Z" fill="#EBFFD3" stroke="black" stroke-width="3.40284"/>
<path d="M174.016 93.4636C189.49 101.99 195.756 111.275 198.987 117.019C199.884 119.013 197.07 123.884 195.003 126.255C189.704 131.799 176.432 143.013 163.227 146.044C150.023 149.074 138.79 151.281 135.276 151.093C124.033 151.211 101.851 150.191 88.3841 140.793C75.0234 131.468 73.0495 126.505 72.3681 124.492C70.8233 119.928 75.6445 114.496 77.1631 112.356C80.3164 107.474 89.0013 102.614 97.0734 97.7555C109.322 90.383 130.365 85.9926 140.553 85.5253C146.876 85.04 158.543 84.937 174.016 93.4636Z" fill="url(#paint1_radial_8_150)"/>
<path d="M135.927 84.3004C144.983 79.8647 168.052 83.5061 175.082 85.137C175.272 85.1809 175.449 85.2879 175.567 85.4555C178.65 89.8347 160.767 96.8676 157.885 102.3C154.602 108.491 157.03 123.717 147.113 130.532C143.4 133.083 150.633 142.595 154.627 148.047C160.688 156.317 173.265 164.4 172.492 165.857C171.228 168.24 137.386 163.797 130.694 161.486C124.002 159.174 115.924 148.514 105.79 141.109C97.6828 135.185 102.437 127.585 102.826 120.856C104.14 116.508 103.989 107.254 111.027 99.5604C117.689 92.2772 131.462 86.487 135.927 84.3004Z" fill="#DCFCB6"/>
<path d="M127.701 84.5302C136.654 76.4534 137.001 76.8673 142.793 76.7948C145.11 76.7658 154.216 79.761 154.379 81.6895C154.53 83.4795 150.765 85.9988 149.066 88.228C147.489 90.2964 161.274 96.4776 157.573 103.217C152.864 111.793 152.629 122.802 154.379 130.233C156.559 139.495 157.777 158.599 161.968 168.606C162.284 169.36 160.946 170.347 160.159 169.92C154.187 166.678 145.252 162.006 143.472 160.594C140.74 158.427 122.525 144.106 118.992 138.59C112.818 128.951 111.588 113.424 113.408 110.601C114.82 108.412 115.845 101.319 121.225 93.6012C122.783 91.3659 125.153 86.8289 127.701 84.5302Z" fill="#0E2602"/>
<path d="M128.037 118.055C68.2328 121.145 54.6179 146.289 40.7949 144.07C40.412 121.22 55.3929 92.1424 93.1733 76.0278C140.399 55.8846 205.032 93.6307 230.092 102.933C250.139 110.375 221.536 117.652 221.386 129.512C198.323 121.758 194.855 114.603 128.037 118.055Z" fill="#070A03"/>
<path d="M146.008 144.008C210.382 136.011 215.253 124.493 222.264 111.422C216.722 128.51 208.852 167.9 172.819 186.899C127.777 210.648 60.0248 177.89 34.2546 170.518C13.6385 164.619 60.7858 141.481 59.8262 129.619C75.4638 144.129 81.6342 152.004 146.008 144.008Z" fill="#070A03"/>
<path d="M114.527 139.381C60.7609 138.125 41.7341 126.01 36.8173 139.844C38.5825 130.068 18.8977 100.563 28.2206 83.3967C35.7182 69.5916 67.3627 57.9756 80.8577 47.5895C118.702 18.4638 182.747 42.5996 206.578 46.7323C225.642 50.0385 249.075 111.824 251.167 123.474C235.662 111.009 173.476 140.759 114.527 139.381Z" fill="#070A03"/>
</g>
<path d="M82.915 -16.5001C83.415 -26.0001 84.515 -47.1001 84.915 -55.5001C85.3099 -63.7934 88.0118 -68.87 89.3636 -70.4412C90.1224 -71.1941 91.0474 -70.7941 91.415 -70.5001L92.915 -69.0001C93.915 -68.0001 95.415 -67.5001 99.915 -64.0001C104.415 -60.5001 107.415 -56.5001 110.415 -53.5001C112.815 -51.1001 122.415 -38.1667 126.915 -32.0001C131.915 -25.1667 142.115 -11.2001 142.915 -10.0001L152.915 4.99995C153.915 6.49995 151.915 7.99995 151.415 8.99995C150.915 9.99995 151.915 15.4999 151.915 15.9999C151.915 16.3999 150.248 17.8333 149.415 18.4999C148.415 17.4999 146.215 15.5999 145.415 15.9999C144.615 16.3999 144.082 17.8333 143.915 18.4999C141.915 19.2999 141.748 23.8333 141.915 25.9999C141.082 26.6666 136.515 29.6999 124.915 36.4999C113.315 43.2999 98.0817 57.3333 91.915 63.5C91.2484 59.1666 89.515 49.3999 87.915 44.9999C86.315 40.5999 84.5817 28.8333 83.915 23.4999C82.9151 12.4999 82.5817 -7.50005 82.915 -16.5001Z" fill="#E2D9C8"/>
<path d="M87.4151 -14C86.6337 -33.1453 90.2413 -54.167 92.2731 -62.8988C92.3351 -63.1652 92.6632 -63.2529 92.8589 -63.0618C95.1601 -60.8132 100.439 -55.9822 106.415 -51.5C112.815 -46.7 131.082 -20.5 139.415 -8C143.082 -2.66667 150.315 8.4 149.915 10C149.515 11.6 142.082 19.6667 138.415 23.5C136.748 25.5 131.615 30.1 124.415 32.5C117.215 34.9 102.082 49.1667 95.415 56L90.915 36.5C90.0817 27.8333 88.2151 5.6 87.4151 -14Z" fill="url(#paint2_linear_8_150)"/>
<path d="M313.915 -11.4999C314.915 -10.9999 320.415 -6.99994 320.915 -6.49994C328.082 -2.33329 344.915 6.3 354.915 7.5C364.587 8.66063 380.651 16.1512 388.179 20.1097C388.513 20.2855 388.917 20.0451 388.925 19.6675C389.009 15.8781 389.606 9.43834 389.915 6.5C390.715 -0.699997 390.248 -18.8333 389.915 -27C390.315 -55.8 382.748 -82.6667 378.915 -92.5C374.115 -106.1 368.248 -112.5 365.915 -114C361.115 -111.6 349.248 -96.3333 343.915 -89C342.415 -87.5 330.915 -69 318.415 -50C309.116 -35.8662 303.709 -22.3664 301.79 -16.2542C301.551 -15.4931 301.814 -14.6749 302.435 -14.1744C305.267 -11.8919 309.561 -8.49994 309.915 -8.49994C310.415 -8.49994 312.915 -11.9999 313.915 -11.4999Z" fill="#DCC6B4"/>
<path d="M311.915 -13.5017C314.315 -14.7017 316.248 -14.6684 316.915 -14.5017C322.248 -11.3345 334.115 -4.5 338.915 -2.5C344.915 0 347.915 0.5 351.415 1C354.215 1.4 375.248 8.83334 385.415 12.5C385.582 7.33334 386.015 -4.2 386.415 -9C386.815 -13.8 385.582 -37.0013 384.915 -48.002C382.415 -69.002 376.915 -85.4983 372.915 -93.5C368.673 -101.986 365.415 -107.502 363.915 -107.002C362.415 -106.502 358.915 -101.002 352.415 -94.5018C347.215 -89.3018 328.915 -60.0018 320.415 -46.0018C315.082 -37.1685 304.815 -18.9018 306.415 -16.5018C308.015 -14.1018 310.748 -13.5018 311.915 -13.5017Z" fill="url(#paint3_linear_8_150)"/>
<path d="M242.415 184H242.122L241.84 184.084C238.458 185.099 231.166 187.141 228.167 187.515C225.835 187.807 224.907 187.402 223.716 186.883C223.095 186.612 222.402 186.31 221.4 186.06C221.137 185.994 220.539 185.748 219.579 185.276C218.69 184.839 217.649 184.289 216.54 183.704L216.474 183.669L216.391 183.625C214.232 182.486 211.722 181.161 210.047 180.603C208.938 180.233 207.659 180.37 206.609 180.581C205.482 180.809 204.252 181.204 203.06 181.656C200.669 182.562 198.214 183.779 196.622 184.653C195.683 185.169 195.272 186.243 195.537 187.215L201.45 208.895C201.973 212.833 203.169 218.827 205.107 224.248C206.086 226.989 207.28 229.655 208.716 231.851C210.133 234.017 211.916 235.928 214.154 236.849C216.459 237.799 218.456 238.207 220.277 238.098C222.131 237.987 223.635 237.349 224.951 236.484C226.111 235.722 227.177 234.742 228.175 233.826C228.261 233.747 228.346 233.669 228.43 233.592C229.542 232.574 230.663 231.572 232.024 230.664C235.493 228.352 237.946 224.687 239.84 219.855C241.73 215.031 243.132 208.865 244.388 201.329C245.398 195.268 245.634 191.344 245.473 188.871C245.394 187.65 245.211 186.649 244.894 185.887C244.649 185.299 243.942 184 242.415 184Z" fill="url(#paint4_linear_8_150)" stroke="black" stroke-width="4"/>
<path d="M224.889 194.489C220.362 192.483 206.412 188.003 204.915 189.5L207.915 206.5C209.082 212.167 211.815 224 213.415 226C215.415 228.5 219.915 232.5 224.915 230.5C229.915 228.5 233.915 218.5 234.915 215C235.704 212.238 237.856 199.354 237.434 192.767C237.424 192.621 237.291 192.52 237.147 192.543L224.944 194.496C224.925 194.499 224.907 194.497 224.889 194.489Z" fill="#E1B3B6"/>
</g>
<defs>
<radialGradient id="paint0_radial_8_150" cx="0" cy="0" r="1" gradientUnits="userSpaceOnUse" gradientTransform="translate(341.086 96.6327) rotate(-88.7197) scale(44.7747 83.1059)">
<stop stop-color="#C8EE9F"/>
<stop offset="0.48" stop-color="#C5EE9C"/>
<stop offset="1" stop-color="#C6E99E"/>
</radialGradient>
<radialGradient id="paint1_radial_8_150" cx="0" cy="0" r="1" gradientUnits="userSpaceOnUse" gradientTransform="translate(127.298 122.406) rotate(-99.1698) scale(31.6656 55.3361)">
<stop stop-color="#C8EE9F"/>
<stop offset="0.48" stop-color="#C5EE9C"/>
<stop offset="1" stop-color="#C6E99E"/>
</radialGradient>
<linearGradient id="paint2_linear_8_150" x1="87.415" y1="-64" x2="124.915" y2="42.5" gradientUnits="userSpaceOnUse">
<stop stop-color="#D8B19F"/>
<stop offset="0.555" stop-color="#C9B493"/>
<stop offset="1" stop-color="#CBB590"/>
</linearGradient>
<linearGradient id="paint3_linear_8_150" x1="367.415" y1="-107" x2="320.176" y2="-3.40503" gradientUnits="userSpaceOnUse">
<stop stop-color="#D5B59D"/>
<stop offset="0.555" stop-color="#CCB394"/>
<stop offset="1" stop-color="#CAB193"/>
</linearGradient>
<linearGradient id="paint4_linear_8_150" x1="220.467" y1="182.372" x2="220.467" y2="236.115" gradientUnits="userSpaceOnUse">
<stop stop-color="#FBDEDC"/>
<stop offset="1" stop-color="#EEC9C9"/>
</linearGradient>
<clipPath id="clip0_8_150">
<rect width="458" height="202" fill="white"/>
</clipPath>
</defs>
</svg>
