<svg width="16" height="16" viewBox="0 0 16 16" fill="none" xmlns="http://www.w3.org/2000/svg">
<path d="M10 7L9 6L11.2929 3.70711L10.7071 3.12132C9.98914 2.40335 9.01536 2 8 2C6.98464 2 6.01086 2.40335 5.29289 3.12132L5.20711 3.20711C4.43421 3.98 4 5.02828 4 6.12132L4 7L2 7V6.12132C2 4.49785 2.64492 2.94086 3.79289 1.79289L3.87868 1.70711C4.97172 0.614064 6.4542 0 8 0C9.54579 0 11.0283 0.614064 12.1213 1.70711L12.7071 2.29289L15 0L16 1V7H10Z" fill="black"/>
<path d="M5.29289 12.8787C6.01086 13.5966 6.98464 14 8 14C9.01536 14 9.98914 13.5967 10.7071 12.8787L10.7929 12.7929C11.5658 12.02 12 10.9717 12 9.87868V9L14 9V9.87868C14 11.5022 13.3551 13.0591 12.2071 14.2071L12.1213 14.2929C11.0283 15.3859 9.5458 16 8 16C6.45421 16 4.97172 15.3859 3.87868 14.2929L3.29289 13.7071L1 16L0 15L9.53674e-07 9L6 9L7 10L4.70711 12.2929L5.29289 12.8787Z" fill="black"/>
</svg>
