<svg width="16" height="16" viewBox="0 0 16 16" fill="none" xmlns="http://www.w3.org/2000/svg">
<path fill-rule="evenodd" clip-rule="evenodd" d="M16 8C16 12.4183 12.4183 16 8 16C3.58172 16 0 12.4183 0 8C0 3.58172 3.58172 0 8 0C12.4183 0 16 3.58172 16 8ZM10.3128 12.4341C9.62116 12.7956 8.83445 13 8 13C5.23858 13 3 10.7614 3 8C3 7.16555 3.20441 6.37884 3.5659 5.68722L10.3128 12.4341ZM12.4341 10.3128L5.68722 3.5659C6.37884 3.20441 7.16555 3 8 3C10.7614 3 13 5.23858 13 8C13 8.83445 12.7956 9.62116 12.4341 10.3128Z" fill="black"/>
</svg>
