<svg width="16" height="16" viewBox="0 0 16 16" fill="none" xmlns="http://www.w3.org/2000/svg">
<path fill-rule="evenodd" clip-rule="evenodd" d="M0 1H1C1.91694 1 2.73781 1.41138 3.28809 2.05964C4.00095 1.40184 4.95354 1 6 1C8.20914 1 10 2.79086 10 5V7.53513C10.5883 7.19479 11.2714 7 12 7C14.2091 7 16 8.79086 16 11C16 13.2091 14.2091 15 12 15C10.8053 15 9.73295 14.4762 9 13.6458C8.26706 14.4762 7.19469 15 6 15V13C7.10457 13 8 12.1046 8 11V5C8 3.89543 7.10457 3 6 3C4.89543 3 4 3.89543 4 5V13H2V4C2 3.44772 1.55228 3 1 3H0V1ZM10 11C10 12.1046 10.8954 13 12 13C13.1046 13 14 12.1046 14 11C14 9.89543 13.1046 9 12 9C10.8954 9 10 9.89543 10 11Z" fill="black"/>
</svg>
