<svg width="16" height="16" viewBox="0 0 16 16" fill="none" xmlns="http://www.w3.org/2000/svg">
<path d="M8 8C8.82843 8 9.5 7.32843 9.5 6.5C9.5 5.67157 8.82843 5 8 5C7.17157 5 6.5 5.67157 6.5 6.5C6.5 7.32843 7.17157 8 8 8Z" fill="black"/>
<path fill-rule="evenodd" clip-rule="evenodd" d="M16 8C16 12.4183 12.4183 16 8 16C3.58172 16 0 12.4183 0 8C0 3.58172 3.58172 0 8 0C12.4183 0 16 3.58172 16 8ZM11.5 6.5C11.5 7.15378 11.3421 7.79788 11.0397 8.3775L8.38659 13.4626L6.61341 12.5374L7.93758 9.99945C6.03338 9.96615 4.5 8.41215 4.5 6.5C4.5 4.567 6.067 3 8 3C9.933 3 11.5 4.567 11.5 6.5Z" fill="black"/>
</svg>
