<svg width="16" height="16" viewBox="0 0 16 16" fill="none" xmlns="http://www.w3.org/2000/svg">
<path fill-rule="evenodd" clip-rule="evenodd" d="M16 8C16 12.4183 12.4183 16 8 16C3.58172 16 0 12.4183 0 8C0 3.58172 3.58172 0 8 0C12.4183 0 16 3.58172 16 8ZM5.07987 3H11V5H6.92013L6.8368 6H8C9.933 6 11.5 7.567 11.5 9.5C11.5 11.433 9.933 13 8 13C6.067 13 4.5 11.433 4.5 9.5H6.5C6.5 10.3284 7.17157 11 8 11C8.82843 11 9.5 10.3284 9.5 9.5C9.5 8.67157 8.82843 8 8 8H4.6632L5.07987 3Z" fill="black"/>
</svg>
