<svg width="16" height="16" viewBox="0 0 16 16" fill="none" xmlns="http://www.w3.org/2000/svg">
<path d="M8 9C7.44772 9 7 9.44772 7 10C7 10.5523 7.44772 11 8 11C8.55228 11 9 10.5523 9 10C9 9.44772 8.55228 9 8 9Z" fill="black"/>
<path d="M8 7C8.55228 7 9 6.55228 9 6C9 5.44772 8.55228 5 8 5C7.44772 5 7 5.44772 7 6C7 6.55228 7.44772 7 8 7Z" fill="black"/>
<path fill-rule="evenodd" clip-rule="evenodd" d="M16 8C16 12.4183 12.4183 16 8 16C3.58172 16 0 12.4183 0 8C0 3.58172 3.58172 0 8 0C12.4183 0 16 3.58172 16 8ZM5 6C5 4.34315 6.34315 3 8 3C9.65685 3 11 4.34315 11 6C11 6.76836 10.7111 7.46924 10.2361 8C10.7111 8.53076 11 9.23164 11 10C11 11.6569 9.65685 13 8 13C6.34315 13 5 11.6569 5 10C5 9.23164 5.28885 8.53076 5.7639 8C5.28885 7.46924 5 6.76836 5 6Z" fill="black"/>
</svg>
