<svg width="16" height="16" viewBox="0 0 16 16" fill="none" xmlns="http://www.w3.org/2000/svg">
<path fill-rule="evenodd" clip-rule="evenodd" d="M15 1H1V15H15V1ZM4.5 6C5.32843 6 6 5.32843 6 4.5C6 3.67157 5.32843 3 4.5 3C3.67157 3 3 3.67157 3 4.5C3 5.32843 3.67157 6 4.5 6ZM13 4.5C13 5.32843 12.3284 6 11.5 6C10.6716 6 10 5.32843 10 4.5C10 3.67157 10.6716 3 11.5 3C12.3284 3 13 3.67157 13 4.5ZM8 9.5C8.82843 9.5 9.5 8.82843 9.5 8C9.5 7.17157 8.82843 6.5 8 6.5C7.17157 6.5 6.5 7.17157 6.5 8C6.5 8.82843 7.17157 9.5 8 9.5ZM6 11.5C6 12.3284 5.32843 13 4.5 13C3.67157 13 3 12.3284 3 11.5C3 10.6716 3.67157 10 4.5 10C5.32843 10 6 10.6716 6 11.5ZM11.5 13C12.3284 13 13 12.3284 13 11.5C13 10.6716 12.3284 10 11.5 10C10.6716 10 10 10.6716 10 11.5C10 12.3284 10.6716 13 11.5 13Z" fill="black"/>
</svg>
