<svg width="16" height="16" viewBox="0 0 16 16" fill="none" xmlns="http://www.w3.org/2000/svg">
<path fill-rule="evenodd" clip-rule="evenodd" d="M1 1H15V15H1V1ZM6 4C6 4.82843 5.32843 5.5 4.5 5.5C3.67157 5.5 3 4.82843 3 4C3 3.17157 3.67157 2.5 4.5 2.5C5.32843 2.5 6 3.17157 6 4ZM11.5 5.5C12.3284 5.5 13 4.82843 13 4C13 3.17157 12.3284 2.5 11.5 2.5C10.6716 2.5 10 3.17157 10 4C10 4.82843 10.6716 5.5 11.5 5.5ZM6 12C6 12.8284 5.32843 13.5 4.5 13.5C3.67157 13.5 3 12.8284 3 12C3 11.1716 3.67157 10.5 4.5 10.5C5.32843 10.5 6 11.1716 6 12ZM11.5 13.5C12.3284 13.5 13 12.8284 13 12C13 11.1716 12.3284 10.5 11.5 10.5C10.6716 10.5 10 11.1716 10 12C10 12.8284 10.6716 13.5 11.5 13.5ZM6 8C6 8.82843 5.32843 9.5 4.5 9.5C3.67157 9.5 3 8.82843 3 8C3 7.17157 3.67157 6.5 4.5 6.5C5.32843 6.5 6 7.17157 6 8ZM11.5 9.5C12.3284 9.5 13 8.82843 13 8C13 7.17157 12.3284 6.5 11.5 6.5C10.6716 6.5 10 7.17157 10 8C10 8.82843 10.6716 9.5 11.5 9.5Z" fill="black"/>
</svg>
