<svg width="16" height="16" viewBox="0 0 16 16" fill="none" xmlns="http://www.w3.org/2000/svg">
<path fill-rule="evenodd" clip-rule="evenodd" d="M9.38704 11.8389C12.032 11.2129 14 8.83628 14 6C14 2.68629 11.3137 0 8 0C4.68629 0 2 2.68629 2 6V12.5132C2 14.4389 3.56111 16 5.48683 16C6.98767 16 8.32013 15.0396 8.79473 13.6158L9.38704 11.8389ZM8 4C6.89543 4 6 4.89543 6 6H4C4 3.79086 5.79086 2 8 2C10.2091 2 12 3.79086 12 6C12 8.20914 10.2091 10 8 10V8C9.10457 8 10 7.10457 10 6C10 4.89543 9.10457 4 8 4Z" fill="black"/>
</svg>
