<svg width="16" height="16" viewBox="0 0 16 16" fill="none" xmlns="http://www.w3.org/2000/svg">
<path d="M4.99918 5C5.13949 4.81337 5.29458 4.63433 5.46444 4.46447C7.41706 2.51184 10.5829 2.51184 12.5355 4.46447L14.6568 2.34315C11.5326 -0.781049 6.46731 -0.781049 3.34312 2.34315C2.55926 3.12701 1.97207 4.03306 1.58155 5H0V7H1.06235C0.979184 7.66386 0.979184 8.33614 1.06235 9H0V11H1.58155C1.97207 11.9669 2.55926 12.873 3.34312 13.6569C6.46731 16.781 11.5326 16.781 14.6568 13.6569L12.5355 11.5355C10.5829 13.4882 7.41706 13.4882 5.46444 11.5355C5.29458 11.3657 5.13949 11.1866 4.99918 11H9V9H4.10044C3.96649 8.3406 3.96649 7.6594 4.10044 7H9V5H4.99918Z" fill="black"/>
</svg>
