<svg width="16" height="16" viewBox="0 0 16 16" fill="none" xmlns="http://www.w3.org/2000/svg">
<path fill-rule="evenodd" clip-rule="evenodd" d="M14.1754 13.0877C14.4514 12.7518 14.7037 12.3889 14.9282 12C17.1373 8.17365 15.8263 3.28093 12 1.07179C8.17365 -1.13735 3.28093 0.173652 1.07179 3.99999C-0.643932 6.97171 -0.236372 10.5867 1.82376 13.0881L1.24293e-05 14V16H7.84579C7.94371 16.0018 8.04156 16.0018 8.1393 16H16V14L14.1754 13.0877ZM8.99995 14C8.99995 13.4478 8.55229 13.0003 8.00015 13.0004L7.50093 13.0005C6.82015 13.001 6.12934 12.8275 5.4999 12.4641C3.58673 11.3595 2.93123 8.91315 4.0358 6.99998L5.76785 7.99998C5.21557 8.95657 5.54332 10.1797 6.4999 10.732C6.8169 10.915 7.16027 11.0008 7.49901 11.0005L7.99976 11.0004C9.65662 11.0001 10.9999 12.3431 11 14H8.99995ZM8.38397 5.33493C7.96975 6.05237 7.05237 6.29818 6.33493 5.88397C5.61749 5.46975 5.37168 4.55237 5.78589 3.83493C6.2001 3.11749 7.11749 2.87168 7.83493 3.28589C8.55237 3.7001 8.79818 4.61749 8.38397 5.33493ZM10.1651 9.24999C10.8825 9.66421 11.7999 9.41839 12.2141 8.70095C12.6283 7.98352 12.3825 7.06613 11.6651 6.65192C10.9476 6.2377 10.0302 6.48352 9.61602 7.20095C9.2018 7.91839 9.44762 8.83578 10.1651 9.24999Z" fill="black"/>
</svg>
