<svg width="16" height="16" viewBox="0 0 16 16" fill="none" xmlns="http://www.w3.org/2000/svg">
<path fill-rule="evenodd" clip-rule="evenodd" d="M1.75463 14C0.656718 12.6304 0 10.8919 0 9C0 4.58172 3.58172 1 8 1C12.4183 1 16 4.58172 16 9C16 10.8919 15.3433 12.6304 14.2454 14H9.20171L12.7343 10.1789L11.2657 8.82118L6.47798 14H1.75463ZM7 4C7 4.55228 7.44771 5 8 5C8.55228 5 9 4.55228 9 4C9 3.44772 8.55228 3 8 3C7.44771 3 7 3.44772 7 4ZM11.5 6.5C10.9477 6.5 10.5 6.05228 10.5 5.5C10.5 4.94772 10.9477 4.5 11.5 4.5C12.0523 4.5 12.5 4.94772 12.5 5.5C12.5 6.05228 12.0523 6.5 11.5 6.5ZM2 9C2 9.55229 2.44771 10 3 10C3.55229 10 4 9.55229 4 9C4 8.44772 3.55229 8 3 8C2.44771 8 2 8.44772 2 9ZM4.5 6.5C3.94772 6.5 3.5 6.05228 3.5 5.5C3.5 4.94772 3.94772 4.5 4.5 4.5C5.05229 4.5 5.5 4.94772 5.5 5.5C5.5 6.05228 5.05229 6.5 4.5 6.5Z" fill="black"/>
</svg>
