<svg width="16" height="16" viewBox="0 0 16 16" fill="none" xmlns="http://www.w3.org/2000/svg">
<path d="M1.51967 3.30803C0.748393 4.37143 0.232465 5.63209 0.0618896 7L15.9381 7C15.7675 5.63208 15.2516 4.37142 14.4803 3.30801C14.4387 3.3313 14.3965 3.3546 14.3538 3.3779C12.8684 4.1881 10.7045 5 7.99997 5C5.29547 5 3.13149 4.1881 1.64611 3.3779C1.60342 3.35461 1.56127 3.33131 1.51967 3.30803Z" fill="black"/>
<path d="M13.0562 1.80011C11.8114 2.42548 10.0975 3 7.99997 3C5.90247 3 4.18861 2.42549 2.94376 1.80013C4.32185 0.674887 6.08211 0 8 0C9.91787 0 11.6781 0.674881 13.0562 1.80011Z" fill="black"/>
<path d="M0.0618896 9C0.232466 10.3679 0.748398 11.6286 1.51968 12.692C1.56128 12.6687 1.60344 12.6454 1.64614 12.6221C3.13152 11.8119 5.2955 11 8 11C10.7045 11 12.8685 11.8119 14.3538 12.6221C14.3966 12.6454 14.4387 12.6687 14.4803 12.692C15.2516 11.6286 15.7675 10.3679 15.9381 9L0.0618896 9Z" fill="black"/>
<path d="M8 16C6.08212 16 4.32186 15.3251 2.94377 14.1999C4.18862 13.5745 5.90249 13 8 13C10.0975 13 11.8114 13.5745 13.0562 14.1999C11.6781 15.3251 9.91788 16 8 16Z" fill="black"/>
</svg>
