<svg width="16" height="16" viewBox="0 0 16 16" fill="none" xmlns="http://www.w3.org/2000/svg">
<path fill-rule="evenodd" clip-rule="evenodd" d="M6.36074 4.19126C6.23086 3.02232 7.14588 2 8.32201 2C9.57833 2 10.5148 3.15839 10.2516 4.38682L8.71738 11.5463C8.22619 13.8385 9.97358 16 12.3178 16C14.3514 16 16 14.3514 16 12.3178V10H14V12.3178C14 13.2469 13.2469 14 12.3178 14C11.2469 14 10.4486 13.0125 10.673 11.9654L12.2072 4.80587C12.7372 2.33242 10.8516 0 8.32201 0C5.95386 0 4.11145 2.05845 4.37297 4.41212L4.7993 8.2491C4.39758 8.0884 3.95911 8 3.5 8C1.567 8 0 9.567 0 11.5C0 13.433 1.567 15 3.5 15C5.433 15 7 13.433 7 11.5V9.94461L6.36074 4.19126ZM5 11.5C5 10.6716 4.32843 10 3.5 10C2.67157 10 2 10.6716 2 11.5C2 12.3284 2.67157 13 3.5 13C4.32843 13 5 12.3284 5 11.5Z" fill="black"/>
</svg>
