<svg width="16" height="16" viewBox="0 0 16 16" fill="none" xmlns="http://www.w3.org/2000/svg">
<path fill-rule="evenodd" clip-rule="evenodd" d="M0 8C0 6.89145 0.225473 5.83557 0.633061 4.8757L1.87868 6.12132L3.29289 4.70711L0.292893 1.70711L1.70711 0.292893L4.70711 3.29289L6.12132 1.87868L4.8757 0.633061C5.83557 0.225473 6.89145 0 8 0C9.10855 0 10.1644 0.225473 11.1243 0.633061L9.87868 1.87868L11.2929 3.29289L14.2929 0.292893L15.7071 1.70711L12.7071 4.70711L14.1213 6.12132L15.3669 4.8757C15.7745 5.83557 16 6.89145 16 8C16 9.10855 15.7745 10.1644 15.3669 11.1243L14.1213 9.87868L12.7071 11.2929L15.7071 14.2929L14.2929 15.7071L11.2929 12.7071L9.87868 14.1213L11.1243 15.3669C10.1644 15.7745 9.10855 16 8 16C6.89145 16 5.83557 15.7745 4.8757 15.3669L6.12132 14.1213L4.70711 12.7071L1.70711 15.7071L0.292893 14.2929L3.29289 11.2929L1.87868 9.87868L0.633061 11.1243C0.225473 10.1644 0 9.10855 0 8ZM8 10C9.10457 10 10 9.10457 10 8C10 6.89543 9.10457 6 8 6C6.89543 6 6 6.89543 6 8C6 9.10457 6.89543 10 8 10Z" fill="black"/>
</svg>
