<svg width="16" height="16" viewBox="0 0 16 16" fill="none" xmlns="http://www.w3.org/2000/svg">
<path fill-rule="evenodd" clip-rule="evenodd" d="M11.1922 12.6064C10.0236 13.4816 8.57234 14 7 14C3.13401 14 0 10.866 0 7C0 3.13401 3.13401 0 7 0C10.866 0 14 3.13401 14 7C14 8.57234 13.4816 10.0236 12.6064 11.1922L15.7071 14.2929L14.2929 15.7071L11.1922 12.6064ZM5.58579 8.41421L4.17157 9.82843C2.60948 8.26633 2.60948 5.73367 4.17157 4.17157C5.73367 2.60948 8.26633 2.60948 9.82843 4.17157L8.41421 5.58579C7.63316 4.80474 6.36683 4.80474 5.58579 5.58579C4.80474 6.36684 4.80474 7.63316 5.58579 8.41421Z" fill="black"/>
</svg>
