<svg width="16" height="16" viewBox="0 0 16 16" fill="none" xmlns="http://www.w3.org/2000/svg">
<path fill-rule="evenodd" clip-rule="evenodd" d="M9.00002 1L10 1.75L9.27589 4.82759L15 1.25L16 2L10.9463 12.5669C10.6509 13.1845 10.2527 13.7473 9.76864 14.2314L9.63368 14.3663C8.58475 15.4153 7.13748 16 5.65688 16C2.58951 16 0.092349 13.5586 0.00252471 10.513C-0.000518028 10.4108 -0.000831108 10.3076 0.00171099 10.2049C0.0371173 8.75526 0.628178 7.37247 1.65565 6.34437L1.74519 6.25484C2.10227 5.89775 2.49861 5.59189 2.92317 5.34059L9.00002 1ZM5.5 13C6.88071 13 8 11.8807 8 10.5C8 9.11929 6.88071 8 5.5 8C4.11929 8 3 9.11929 3 10.5C3 11.8807 4.11929 13 5.5 13Z" fill="black"/>
</svg>
