<svg width="16" height="16" viewBox="0 0 16 16" fill="none" xmlns="http://www.w3.org/2000/svg">
<path fill-rule="evenodd" clip-rule="evenodd" d="M8.14856 5.00197C11.1174 5.0807 13.5 7.51211 13.5 10.5C13.5 13.5376 11.0376 16 8 16C4.96243 16 2.5 13.5376 2.5 10.5C2.5 9.44185 2.79882 8.45349 3.31667 7.61471L7.43172 0.0343628L10.0683 1.46564L8.14856 5.00197ZM5.90352 9.13756C6.34947 8.45275 7.12186 8 8 8C9.38071 8 10.5 9.11929 10.5 10.5C10.5 11.8807 9.38071 13 8 13C6.61929 13 5.5 11.8807 5.5 10.5C5.5 10.0937 5.60153 9.69386 5.79537 9.33679L5.90352 9.13756Z" fill="black"/>
</svg>
