<svg width="16" height="16" viewBox="0 0 16 16" fill="none" xmlns="http://www.w3.org/2000/svg">
<path d="M6.5 4.5C6.5 3.67157 7.17157 3 8 3C8.82843 3 9.5 3.67157 9.5 4.5C9.5 5.32843 8.82843 6 8 6H7V9H8C9.10457 9 10 9.89543 10 11C10 12.1046 9.10457 13 8 13C6.89543 13 6 12.1046 6 11H3C3 13.7614 5.23858 16 8 16C10.7614 16 13 13.7614 13 11C13 9.57824 12.4066 8.29508 11.4539 7.38469C12.107 6.60363 12.5 5.59771 12.5 4.5C12.5 2.01472 10.4853 0 8 0C5.51472 0 3.5 2.01472 3.5 4.5H6.5Z" fill="black"/>
</svg>
