<svg width="16" height="16" viewBox="0 0 16 16" fill="none" xmlns="http://www.w3.org/2000/svg">
<path d="M4.94517 8.99997H2V6.99997H4.94517C4.71828 4.94564 3.80038 3.10059 2.42738 1.70002L3.85558 0.299927C5.58105 2.06004 6.72069 4.40009 6.95516 6.99997H9.04493C9.2794 4.40009 10.419 2.06004 12.1445 0.299927L13.5727 1.70002C12.1997 3.10059 11.2818 4.94564 11.0549 6.99997H14V8.99997H11.0549C11.2818 11.0543 12.1997 12.8994 13.5727 14.2999L12.1445 15.7C10.419 13.9399 9.2794 11.5999 9.04493 8.99997H6.95516C6.72069 11.5999 5.58105 13.9399 3.85558 15.7L2.42738 14.2999C3.80038 12.8994 4.71828 11.0543 4.94517 8.99997Z" fill="black"/>
</svg>
