<svg width="17" height="17" viewBox="0 0 17 17" fill="none" xmlns="http://www.w3.org/2000/svg">
<path fill-rule="evenodd" clip-rule="evenodd" d="M12.4964 14.6178C11.215 15.4901 9.66706 16 8 16C3.58172 16 0 12.4183 0 8C0 3.58172 3.58172 0 8 0C12.4183 0 16 3.58172 16 8C16 9.66706 15.4901 11.215 14.6178 12.4964L16.0607 13.9393L13.9393 16.0607L12.4964 14.6178ZM10.3128 12.4341C9.62116 12.7956 8.83445 13 8 13C5.23858 13 3 10.7614 3 8C3 5.23858 5.23858 3 8 3C10.7614 3 13 5.23858 13 8C13 8.83445 12.7956 9.62116 12.4341 10.3128L11.0607 8.93934L8.93934 11.0607L10.3128 12.4341Z" fill="black"/>
</svg>
