<svg width="16" height="16" viewBox="0 0 16 16" fill="none" xmlns="http://www.w3.org/2000/svg">
<path d="M6.99984 9.73234C6.40214 9.38652 6.00002 8.74024 6 8.00005H0C0 5.03919 1.6085 2.45402 3.99933 1.07069L6.99981 6.26767C7.29403 6.09744 7.63564 6 8 6C8.36436 6 8.70596 6.09743 9.00017 6.26766L12.0006 1.07068C14.3915 2.45401 16 5.03918 16 8.00005H10C9.99998 8.74025 9.59785 9.38653 9.00015 9.73235L12.0007 14.9294C10.8238 15.6103 9.45742 16 8 16C6.54257 16 5.17616 15.6103 3.99932 14.9294L6.99984 9.73234Z" fill="black"/>
</svg>
