<svg width="16" height="16" viewBox="0 0 16 16" fill="none" xmlns="http://www.w3.org/2000/svg">
<path d="M13.2754 8.70983C14.3175 9.43187 15 10.6362 15 12V15H1C1 12.7909 2.79086 11 5 11H7.12602C7.19705 10.724 7.2968 10.4595 7.42189 10.21C7.74906 9.55727 8.24958 9.0065 8.86306 8.61805C9.4293 8.25951 10.0918 8.03926 10.803 8.00477C10.8683 8.0016 10.934 8 11 8C11.8454 8 12.6295 8.26225 13.2754 8.70983Z" fill="black"/>
<path d="M7.69859 6.98914C7.13792 7.35941 6.64316 7.82129 6.23547 8.35339C4.95319 6.90967 3.08283 6 1 6V4C3.66026 4 6.05094 5.1542 7.69859 6.98914Z" fill="black"/>
<path d="M1 2C4.49006 2 7.60049 3.62535 9.61565 6.16041C10.0599 6.05551 10.5234 6 11 6C11.3442 6 11.6817 6.02899 12.0101 6.08467C9.70928 2.42915 5.63832 0 1 0V2Z" fill="black"/>
</svg>
