<svg width="16" height="16" viewBox="0 0 16 16" fill="none" xmlns="http://www.w3.org/2000/svg">
<path d="M5.68623 0H10.3138L12.178 3.27835L13.9282 2.26789L14.4282 3.13392L13.3301 7.232L9.23203 6.13392L8.73203 5.26789L10.4459 4.27837L9.15033 2L6.84966 2L6.29552 2.97447L4.56343 1.97445L5.68623 0Z" fill="black"/>
<path d="M13.1649 9.05964L13.7039 10.0076L12.6055 12H9.99998L9.99998 9.99995H8.99998L5.99998 12.9999L8.99998 15.9999H9.99998L9.99998 14H13.7868L15.996 9.99242L14.8969 8.05962L13.1649 9.05964Z" fill="black"/>
<path d="M3.39445 12H4.49998V14H2.21325L0.00390625 9.99242L1.8446 6.75554L0.0717772 5.732L0.571776 4.86598L4.66986 3.7679L5.76793 7.86598L5.26793 8.732L3.57669 7.75556L2.29605 10.0076L3.39445 12Z" fill="black"/>
</svg>
