<svg width="16" height="16" viewBox="0 0 16 16" fill="none" xmlns="http://www.w3.org/2000/svg">
<path d="M5.69626 3.66792C5.16258 4.05336 5 4.45531 5 4.75C5 5.0594 5.09807 5.29967 5.64962 5.61437C6.2898 5.97964 7.20473 6.23479 8.38731 6.55087C8.42051 6.55974 8.45397 6.56867 8.48767 6.57767C9.5375 6.85794 10.8224 7.20095 11.8371 7.77994C12.9731 8.42808 14 9.51213 14 11.25C14 12.7502 13.1552 13.9733 12.0602 14.7641C10.9632 15.5564 9.5229 16 8 16C6.4771 16 5.03677 15.5564 3.93978 14.7641C2.84478 13.9733 2 12.7502 2 11.25H5C5 11.5447 5.16258 11.9466 5.69626 12.3321C6.22795 12.7161 7.03762 13 8 13C8.96238 13 9.77205 12.7161 10.3037 12.3321C10.8374 11.9466 11 11.5447 11 11.25C11 10.9406 10.9019 10.7003 10.3504 10.3856C9.7102 10.0204 8.79527 9.76521 7.61269 9.44913C7.57949 9.44026 7.54603 9.43133 7.51233 9.42233C6.4625 9.14206 5.17763 8.79905 4.16288 8.22006C3.02693 7.57192 2 6.48787 2 4.75C2 3.24977 2.84478 2.02672 3.93978 1.23588C5.03677 0.443615 6.4771 0 8 0C9.5229 0 10.9632 0.443615 12.0602 1.23588C13.1552 2.02672 14 3.24977 14 4.75H11C11 4.45531 10.8374 4.05336 10.3037 3.66792C9.77205 3.28392 8.96238 3 8 3C7.03762 3 6.22795 3.28392 5.69626 3.66792Z" fill="black"/>
</svg>
