<svg width="16" height="16" viewBox="0 0 16 16" fill="none" xmlns="http://www.w3.org/2000/svg">
<path fill-rule="evenodd" clip-rule="evenodd" d="M6.12133 0.878679C7.12068 1.87802 7.26759 3.407 6.56206 4.56207L16 14L15 15H12L7.5 10.5L6.56206 11.4379C7.26759 12.593 7.12068 14.122 6.12133 15.1213C5.53554 15.7071 4.76777 16 4 16H3.82843C2.26633 16 1 14.7337 1 13.1716C1 12.4214 1.29799 11.702 1.82843 11.1716L5 8L1.82843 4.82843C1.29799 4.29799 1 3.57857 1 2.82843C1 1.26633 2.26633 0 3.82843 0H4C4.76777 -3.12302e-06 5.53554 0.29289 6.12133 0.878679ZM3 3C3 3.55228 3.44772 4 4 4C4.55228 4 5 3.55228 5 3C5 2.44772 4.55228 2 4 2C3.44772 2 3 2.44772 3 3ZM4 12C3.44772 12 3 12.4477 3 13C3 13.5523 3.44772 14 4 14C4.55229 14 5 13.5523 5 13C5 12.4477 4.55228 12 4 12Z" fill="black"/>
<path d="M12 1L9 4L11.5 6.5L16 2L15 1L12 1Z" fill="black"/>
</svg>
