<svg width="16" height="16" viewBox="0 0 16 16" fill="none" xmlns="http://www.w3.org/2000/svg">
<path fill-rule="evenodd" clip-rule="evenodd" d="M8 2H11.7543L12.65 5.13499C13.1996 4.44342 14.048 4 15 4H16V7H13.1829L13.7839 9.10344C15.0606 9.4481 16 10.6143 16 12C16 13.6569 14.6569 15 13 15C11.6938 15 10.5825 14.1652 10.1707 13H5.82929C5.41746 14.1652 4.30622 15 3 15C1.34315 15 0 13.6569 0 12V9C0 7.34315 1.34315 6 3 6H6V11H10V4H8V2ZM13 13C12.4477 13 12 12.5523 12 12C12 11.4477 12.4477 11 13 11C13.5523 11 14 11.4477 14 12C14 12.5523 13.5523 13 13 13Z" fill="black"/>
</svg>
