<svg width="16" height="16" viewBox="0 0 16 16" fill="none" xmlns="http://www.w3.org/2000/svg">
<path d="M0 3C0.552285 3 1 3.44772 1 4V14H3V4C3 3.44772 3.44772 3 4 3C4.55228 3 5 3.44772 5 4V14H7V4C7 3.44772 7.44772 3 8 3C8.55228 3 9 3.44772 9 4V11.1716C9 13.8443 12.2314 15.1828 14.1213 13.2929L14.4571 12.9571L15 13.5H16V10H12.5V11L13.0429 11.5429L12.7071 11.8787C12.0771 12.5086 11 12.0625 11 11.1716V4C11 2.34315 9.65685 1 8 1C7.23165 1 6.53076 1.28885 6 1.76389C5.46924 1.28885 4.76835 1 4 1C3.23165 1 2.53076 1.28885 2 1.76389C1.46924 1.28885 0.768354 1 0 1V3Z" fill="black"/>
</svg>
