<svg width="16" height="16" viewBox="0 0 16 16" fill="none" xmlns="http://www.w3.org/2000/svg">
<path d="M13 0L16 3L10 9H7V6L13 0Z" fill="black"/>
<path d="M4.5 7C2.01472 7 0 9.01472 0 11.5C0 13.9853 2.01472 16 4.5 16C6.60341 16 8.09749 14.8036 9.29203 13.847L9.37469 13.7809C10.6665 12.7474 11.6522 12 13 12C13.5523 12 14 12.4477 14 13C14 13.5523 13.5523 14 13 14V16C14.6569 16 16 14.6569 16 13C16 11.3431 14.6569 10 13 10C10.8966 10 9.40251 11.1964 8.20797 12.153L8.12531 12.2191C6.83351 13.2526 5.84778 14 4.5 14C3.11929 14 2 12.8807 2 11.5C2 10.1193 3.11929 9 4.5 9H5V7H4.5Z" fill="black"/>
</svg>
