<svg width="16" height="16" viewBox="0 0 16 16" fill="none" xmlns="http://www.w3.org/2000/svg">
<path d="M8 3L10.5 2.5L11 0H12L12.5 2.5L15 3V4L12.5 4.5L12 7H11L10.5 4.5L8 4V3Z" fill="black"/>
<path d="M0 11V10L4 9L5 5H6L7 9L11 10V11L7 12L6 16H5L4 12L0 11Z" fill="black"/>
<path d="M1 2L2.5 0.5L4 2L2.5 3.5L1 2Z" fill="black"/>
<path d="M15 14L13 12L11 14L13 16L15 14Z" fill="black"/>
<path d="M15 10C15.5523 10 16 9.55229 16 9C16 8.44771 15.5523 8 15 8C14.4477 8 14 8.44771 14 9C14 9.55229 14.4477 10 15 10Z" fill="black"/>
</svg>
