<svg width="16" height="16" viewBox="0 0 16 16" fill="none" xmlns="http://www.w3.org/2000/svg">
<path d="M7.00003 0H9.00003V2H7.00003V0Z" fill="black"/>
<path d="M1.00003 9H7.00003V11H1.00003V9Z" fill="black"/>
<path d="M1.00003 15V13H15V15H1.00003Z" fill="black"/>
<path d="M15 9H9.00003V11H15V9Z" fill="black"/>
<path d="M1.49737 4.22235L0.979736 6.15421L2.91159 6.67184L3.42923 4.73999L1.49737 4.22235Z" fill="black"/>
<path d="M14.5027 4.22235L15.0203 6.1542L13.0885 6.67184L12.5708 4.73999L14.5027 4.22235Z" fill="black"/>
<path d="M5.00003 7C5.00003 5.34315 6.34318 4 8.00003 4C9.65689 4 11 5.34315 11 7H5.00003Z" fill="black"/>
<path d="M11.468 0.837769L13.0547 2.05529L11.8372 3.642L10.2505 2.42448L11.468 0.837769Z" fill="black"/>
<path d="M4.53205 0.837775L2.94534 2.0553L4.16287 3.642L5.74957 2.42448L4.53205 0.837775Z" fill="black"/>
</svg>
