<svg width="16" height="16" viewBox="0 0 16 16" fill="none" xmlns="http://www.w3.org/2000/svg">
<path fill-rule="evenodd" clip-rule="evenodd" d="M12 0H4V2H1V5L4 8H1V11L4 14V16H12V14L15 11V8H12L15 5V2H12V0ZM8 5C8.82843 5 9.5 4.32843 9.5 3.5C9.5 2.67157 8.82843 2 8 2C7.17157 2 6.5 2.67157 6.5 3.5C6.5 4.32843 7.17157 5 8 5ZM8 14C8.82843 14 9.5 13.3284 9.5 12.5C9.5 11.6716 8.82843 11 8 11C7.17157 11 6.5 11.6716 6.5 12.5C6.5 13.3284 7.17157 14 8 14ZM9.5 8C9.5 8.82843 8.82843 9.5 8 9.5C7.17157 9.5 6.5 8.82843 6.5 8C6.5 7.17157 7.17157 6.5 8 6.5C8.82843 6.5 9.5 7.17157 9.5 8Z" fill="black"/>
</svg>
