<svg width="16" height="16" viewBox="0 0 16 16" fill="none" xmlns="http://www.w3.org/2000/svg">
<path fill-rule="evenodd" clip-rule="evenodd" d="M2 3C2 1.34315 3.34315 0 5 0H11C12.6569 0 14 1.34315 14 3V11C14 12.2084 13.2855 13.25 12.2559 13.7253L13.2308 16H11.0549L10.1977 14H5.80224L4.9451 16H2.76917L3.74406 13.7252C2.71449 13.25 2 12.2084 2 11V3ZM4 3H7V7H4V3ZM12 3H9V7H12V3ZM9 10C9 10.5523 8.55228 11 8 11C7.44772 11 7 10.5523 7 10C7 9.44771 7.44772 9 8 9C8.55228 9 9 9.44771 9 10Z" fill="black"/>
</svg>
