<svg width="16" height="16" viewBox="0 0 16 16" fill="none" xmlns="http://www.w3.org/2000/svg">
<path fill-rule="evenodd" clip-rule="evenodd" d="M1 3C1.55228 3 2 3.44772 2 4V14H4V4C4 3.44772 4.44772 3 5 3C5.55228 3 6 3.44772 6 4V14H8V4C8 3.44772 8.44772 3 9 3C9.55228 3 10 3.44772 10 4V9H9V11H10V13C10 14.6569 11.3431 16 13 16V14C12.4477 14 12 13.5523 12 13V11H13C14.6569 11 16 9.65685 16 8C16 6.34315 14.6569 5 13 5H12V4C12 2.34315 10.6569 1 9 1C8.23165 1 7.53076 1.28885 7 1.76389C6.46924 1.28885 5.76835 1 5 1C4.23165 1 3.53076 1.28885 3 1.76389C2.46924 1.28885 1.76835 1 1 1V3ZM12 7V9H13C13.5523 9 14 8.55228 14 8C14 7.44772 13.5523 7 13 7H12Z" fill="black"/>
</svg>
