<svg width="16" height="16" viewBox="0 0 16 16" fill="none" xmlns="http://www.w3.org/2000/svg">
<path d="M13 1.5C13 2.32843 12.3284 3 11.5 3C10.6716 3 10 2.32843 10 1.5C10 0.671573 10.6716 0 11.5 0C12.3284 0 13 0.671573 13 1.5Z" fill="black"/>
<path fill-rule="evenodd" clip-rule="evenodd" d="M6.22092 3.12438C5.5652 2.99324 4.88732 3.19848 4.41448 3.67133L2.79291 5.2929L4.20712 6.70711L5.82869 5.08554L7.30925 5.38165L5.59412 8.02034C3.57561 8.22375 2 9.92787 2 12C2 14.2091 3.79086 16 6 16C8.20914 16 10 14.2091 10 12C10 11.6547 9.95625 11.3197 9.874 11.0001H11.9692L10.9692 15.0001H13.0308L13.9095 11.4851C14.2251 10.2228 13.2704 9.00006 11.9692 9.00006H8.92066L11.3193 5.57346L10.6961 4.01942L6.22092 3.12438ZM6 14C7.10457 14 8 13.1046 8 12C8 10.8954 7.10457 10 6 10C4.89543 10 4 10.8954 4 12C4 13.1046 4.89543 14 6 14Z" fill="black"/>
</svg>
