<svg width="16" height="16" viewBox="0 0 16 16" fill="none" xmlns="http://www.w3.org/2000/svg">
<path d="M4.50005 1.34827L8.00005 3.34827L11.5 1.34827L15.4962 3.63177L14.5039 5.36826L11.5 3.65177L8.00005 5.65177L4.50005 3.65177L1.49618 5.36826L0.503906 3.63177L4.50005 1.34827Z" fill="black"/>
<path d="M4.50005 10.3483L8.00005 12.3483L11.5 10.3483L15.4962 12.6318L14.5039 14.3683L11.5 12.6518L8.00005 14.6518L4.50005 12.6518L1.49618 14.3683L0.503906 12.6318L4.50005 10.3483Z" fill="black"/>
<path d="M4.50005 5.84827L0.503906 8.13177L1.49618 9.86826L4.50005 8.15177L8.00005 10.1518L11.5 8.15177L14.5039 9.86826L15.4962 8.13177L11.5 5.84827L8.00005 7.84827L4.50005 5.84827Z" fill="black"/>
</svg>
