<svg width="16" height="16" viewBox="0 0 16 16" fill="none" xmlns="http://www.w3.org/2000/svg">
<path d="M0 4.19056C0 2.42846 1.42846 1 3.19056 1C4.72033 1 6.03482 2.08579 6.32371 3.58803L8 12.3047L9.67629 3.58803C9.96518 2.08579 11.2797 1 12.8094 1C14.5715 1 16 2.42846 16 4.19056V6H14V4.19056C14 3.53303 13.467 3 12.8094 3C12.2386 3 11.7481 3.40516 11.6403 3.96573L9.32602 16H6.67398L4.3597 3.96573C4.2519 3.40516 3.7614 3 3.19056 3C2.53303 3 2 3.53303 2 4.19056V6H0V4.19056Z" fill="black"/>
</svg>
