<svg width="16" height="16" viewBox="0 0 16 16" fill="none" xmlns="http://www.w3.org/2000/svg">
<path d="M14.182 13.0781C15.318 11.6968 16 9.92803 16 8C16 6.07197 15.318 4.30324 14.182 2.92192C13.6429 3.43359 13.1852 4.0302 12.8303 4.69032L13.7037 5.00821L13.0197 6.8876L12.1462 6.5697C12.0504 7.03143 12 7.50983 12 8C12 8.49018 12.0504 8.9686 12.1463 9.43035L13.0197 9.11245L13.7037 10.9918L12.8303 11.3097C13.1852 11.9698 13.6429 12.5664 14.182 13.0781Z" fill="black"/>
<path d="M10.2511 10.1201L9.2609 10.4805L9.94494 12.3599L10.9353 11.9995C11.3915 12.9177 12 13.747 12.7277 14.4543C11.4032 15.4261 9.76863 16 8 16C6.23137 16 4.59679 15.4261 3.27234 14.4543C4.00001 13.747 4.60847 12.9177 5.06473 11.9995L6.05493 12.3599L6.73897 10.4805L5.74885 10.1201C5.91302 9.44027 6 8.73029 6 8C6 7.26971 5.91302 6.55974 5.74885 5.87988L6.73897 5.5195L6.05493 3.64012L5.06474 4.00052C4.60848 3.08227 4.00001 2.25299 3.27234 1.54571C4.59679 0.573931 6.23137 0 8 0C9.76863 0 11.4032 0.573931 12.7277 1.54571C12 2.25301 11.3915 3.0823 10.9352 4.00057L9.94494 3.64013L9.2609 5.51952L10.2511 5.87993C10.087 6.55978 10 7.26973 10 8C10 8.73028 10.087 9.44025 10.2511 10.1201Z" fill="black"/>
<path d="M1.81802 13.0781C2.35712 12.5664 2.81481 11.9698 3.16966 11.3097L2.29616 10.9918L2.9802 9.11243L3.85374 9.43037C3.94961 8.96861 4 8.49019 4 8C4 7.50981 3.94962 7.0314 3.85374 6.56964L2.9802 6.88758L2.29616 5.0082L3.16967 4.69027C2.81481 4.03017 2.35712 3.43358 1.81802 2.92192C0.682046 4.30324 0 6.07197 0 8C0 9.92803 0.682047 11.6968 1.81802 13.0781Z" fill="black"/>
</svg>
