<svg width="16" height="16" viewBox="0 0 16 16" fill="none" xmlns="http://www.w3.org/2000/svg">
<path d="M7 15.9381V9H4.93811C4.70299 10.8855 3.81171 12.5672 2.5 13.8095C3.70576 14.9514 5.26679 15.722 7 15.9381Z" fill="black"/>
<path d="M9 15.9381C10.7332 15.722 12.2942 14.9514 13.5 13.8095C12.1883 12.5672 11.297 10.8855 11.0619 9H9V15.9381Z" fill="black"/>
<path d="M11.0619 7C11.297 5.11449 12.1883 3.43275 13.5 2.1905C12.2942 1.04858 10.7332 0.278018 9 0.0618897V7H11.0619Z" fill="black"/>
<path d="M7 0.0618896C5.26679 0.278018 3.70576 1.04858 2.5 2.1905C3.81171 3.43275 4.70299 5.11449 4.93811 7H7V0.0618896Z" fill="black"/>
<path d="M16 8C16 6.43475 15.5505 4.9745 14.7735 3.74129C13.6782 4.82832 13 6.33495 13 8C13 9.66504 13.6782 11.1717 14.7735 12.2587C15.5505 11.0255 16 9.56524 16 8Z" fill="black"/>
<path d="M1.22651 12.2587C2.32177 11.1717 3 9.66504 3 8C3 6.33495 2.32177 4.82832 1.22651 3.74129C0.449522 4.97449 0 6.43475 0 8C0 9.56524 0.449522 11.0255 1.22651 12.2587Z" fill="black"/>
</svg>
