<svg width="16" height="16" viewBox="0 0 16 16" fill="none" xmlns="http://www.w3.org/2000/svg">
<path fill-rule="evenodd" clip-rule="evenodd" d="M11 3V4L15.3436 8.77793C15.766 9.24255 16 9.85471 16 10.4826C16 11.8633 14.8807 13 13.5 13C12.1193 13 11 11.8807 11 10.5V9.68629C11 9.79109 10.9979 9.89568 10.9939 10H5.00615C5.00206 9.89568 5 9.79109 5 9.68629V10.5C5 11.8807 3.88071 13 2.5 13C1.11929 13 0 11.8633 0 10.4826C0 9.85471 0.234044 9.24255 0.65643 8.77793L5 4V3C5 1.34315 6.34315 0 8 0C9.65685 0 11 1.34315 11 3ZM5 8H11V6H5V8Z" fill="black"/>
<path d="M8.65685 15.3431C9.59779 14.4022 10.2801 13.251 10.6581 12H5.34187C5.71987 13.251 6.40221 14.4022 7.34315 15.3431L8 16L8.65685 15.3431Z" fill="black"/>
</svg>
