<svg width="16" height="16" viewBox="0 0 16 16" fill="none" xmlns="http://www.w3.org/2000/svg">
<path fill-rule="evenodd" clip-rule="evenodd" d="M0 4C1.65685 4 3 2.65685 3 1H5C5 2.65685 6.34315 4 8 4C9.65685 4 11 2.65685 11 1H13C13 2.65685 14.3431 4 16 4V6C14.8744 6 13.8357 5.62805 13 5.00036V10H16V12H13V15H11V12H5V15H3V12H0V10H3V5.00037C2.16434 5.62806 1.12561 6 0 6V4ZM9 5.89998C9.73888 5.75 10.4186 5.43708 11 5.00037V10H9V5.89998ZM7 5.89998C6.26112 5.75 5.58141 5.43708 5 5.00037V10H7V5.89998Z" fill="black"/>
</svg>
