<svg width="16" height="16" viewBox="0 0 16 16" fill="none" xmlns="http://www.w3.org/2000/svg">
<path fill-rule="evenodd" clip-rule="evenodd" d="M3.11091 4.5214C4.88239 2.02543 8.29622 1.24283 11.0001 2.8039L12.0001 1.07185C8.17373 -1.13729 3.28101 0.173713 1.07187 4.00005C0.343994 5.26077 -0.00235856 6.64014 -0.00109519 8.00094L2.59202e-05 8.00094C0.000527265 9.93351 1.56734 11.5 3.50003 11.5C5.43302 11.5 7.00003 9.93301 7.00003 8.00001C7.00003 6.06701 5.43302 4.50001 3.50003 4.50001C3.3685 4.50001 3.23867 4.50727 3.11091 4.5214ZM3.50003 6.50001C2.6716 6.50001 2.00003 7.17158 2.00003 8.00001C2.00003 8.82844 2.6716 9.50001 3.50003 9.50001C4.32845 9.50001 5.00003 8.82844 5.00003 8.00001C5.00003 7.17158 4.32845 6.50001 3.50003 6.50001Z" fill="black"/>
<path fill-rule="evenodd" clip-rule="evenodd" d="M12.8893 11.4786C12.7615 11.4927 12.6316 11.5 12.5 11.5C10.567 11.5 9.00003 9.93301 9.00003 8.00001C9.00003 6.06701 10.567 4.50001 12.5 4.50001C14.4327 4.50001 15.9995 6.06651 16 7.99907L16.0012 7.99907C16.0025 9.3599 15.6562 10.7393 14.9283 12.0001C12.7191 15.8264 7.82641 17.1374 4.00007 14.9283L5.00007 13.1962C7.70396 14.7573 11.1179 13.9747 12.8893 11.4786ZM12.5 6.50001C11.6716 6.50001 11 7.17158 11 8.00001C11 8.82844 11.6716 9.50001 12.5 9.50001C13.3285 9.50001 14 8.82844 14 8.00001C14 7.17158 13.3285 6.50001 12.5 6.50001Z" fill="black"/>
</svg>
