<svg width="16" height="16" viewBox="0 0 16 16" fill="none" xmlns="http://www.w3.org/2000/svg">
<path fill-rule="evenodd" clip-rule="evenodd" d="M8 16C12.4183 16 16 12.4183 16 8C16 3.58172 12.4183 0 8 0C3.58172 0 0 3.58172 0 8C0 12.4183 3.58172 16 8 16ZM8 3C6.34315 3 5 4.34315 5 6H7C7 5.44772 7.44772 5 8 5C8.55228 5 9 5.44772 9 6C9 6.55228 8.55228 7 8 7H7V9H8C8.55228 9 9 9.44772 9 10C9 10.5523 8.55228 11 8 11C7.44772 11 7 10.5523 7 10H5C5 11.6569 6.34315 13 8 13C9.65685 13 11 11.6569 11 10C11 9.23164 10.7111 8.53076 10.2361 8C10.7111 7.46924 11 6.76836 11 6C11 4.34315 9.65685 3 8 3Z" fill="black"/>
</svg>
