<svg width="16" height="16" viewBox="0 0 16 16" fill="none" xmlns="http://www.w3.org/2000/svg">
<path d="M8 8C7.17157 8 6.5 8.67157 6.5 9.5C6.5 10.3284 7.17157 11 8 11C8.82843 11 9.5 10.3284 9.5 9.5C9.5 8.67157 8.82843 8 8 8Z" fill="black"/>
<path fill-rule="evenodd" clip-rule="evenodd" d="M0 8C0 3.58172 3.58172 0 8 0C12.4183 0 16 3.58172 16 8C16 12.4183 12.4183 16 8 16C3.58172 16 0 12.4183 0 8ZM4.5 9.5C4.5 8.84622 4.65793 8.20212 4.96034 7.6225L7.61342 2.53743L9.38659 3.46257L8.06242 6.00055C9.96662 6.03385 11.5 7.58785 11.5 9.5C11.5 11.433 9.933 13 8 13C6.067 13 4.5 11.433 4.5 9.5Z" fill="black"/>
</svg>
