<svg width="16" height="16" viewBox="0 0 16 16" fill="none" xmlns="http://www.w3.org/2000/svg">
<path d="M12 4C12 4.25656 11.9758 4.50748 11.9297 4.75061C11.9531 4.75021 11.9765 4.75 12 4.75C14.2091 4.75 16 6.54086 16 8.75C16 10.9591 14.2091 12.75 12 12.75C10.7347 12.75 9.60658 12.1625 8.87361 11.2454L10 15V16H6V15L7.12639 11.2454C6.39342 12.1625 5.26532 12.75 4 12.75C1.79086 12.75 0 10.9591 0 8.75C0 6.54086 1.79086 4.75 4 4.75C4.02349 4.75 4.04692 4.7502 4.07031 4.75061C4.02415 4.50748 4 4.25656 4 4C4 1.79086 5.79086 0 8 0C10.2091 0 12 1.79086 12 4Z" fill="black"/>
</svg>
