<svg width="16" height="16" viewBox="0 0 16 16" fill="none" xmlns="http://www.w3.org/2000/svg">
<path fill-rule="evenodd" clip-rule="evenodd" d="M6.5 0H9.5L10.0939 2.37548C10.7276 2.6115 11.3107 2.95155 11.8223 3.37488L14.1782 2.70096L15.6782 5.29904L13.9173 7.00166C13.9717 7.32634 14 7.65987 14 8C14 8.34013 13.9717 8.67366 13.9173 8.99834L15.6782 10.701L14.1782 13.299L11.8223 12.6251C11.3107 13.0484 10.7276 13.3885 10.0939 13.6245L9.5 16H6.5L5.90613 13.6245C5.27241 13.3885 4.68933 13.0484 4.17767 12.6251L1.8218 13.299L0.3218 10.701L2.08268 8.99834C2.02831 8.67366 2 8.34013 2 8C2 7.65987 2.02831 7.32634 2.08268 7.00166L0.3218 5.29904L1.8218 2.70096L4.17767 3.37488C4.68933 2.95155 5.27241 2.6115 5.90613 2.37548L6.5 0ZM8 10C9.10457 10 10 9.10457 10 8C10 6.89543 9.10457 6 8 6C6.89543 6 6 6.89543 6 8C6 9.10457 6.89543 10 8 10Z" fill="black"/>
</svg>
