<svg width="16" height="16" viewBox="0 0 16 16" fill="none" xmlns="http://www.w3.org/2000/svg">
<path fill-rule="evenodd" clip-rule="evenodd" d="M8.99999 2.17071V0H6.99999V2.17071C5.8348 2.58254 4.99999 3.69378 4.99999 5C4.99999 5.52868 5.13675 6.02543 5.37681 6.45678L4.25969 8.31865C3.83556 7.84108 3.50146 7.28162 3.28414 6.66675L1.39846 7.33325C1.77292 8.39269 2.3953 9.33539 3.19608 10.0913L0.713928 14.2283L1.40018 16L3.28641 15.7717L5.76754 11.6365C6.46852 11.8722 7.2192 12 7.99989 12C8.78068 12 9.53146 11.8722 10.2325 11.6364C11.2021 11.3104 12.0767 10.7779 12.804 10.0913C13.6047 9.33535 14.2269 8.3926 14.6013 7.33325L12.7156 6.66675C12.4983 7.28152 12.1643 7.8409 11.7403 8.31841L10.6232 6.45666C10.8633 6.02533 11 5.52863 11 5C11 3.69378 10.1652 2.58254 8.99999 2.17071ZM7.9497 7.99959C7.96643 7.99986 7.98319 8 7.99999 8C8.01683 8 8.03364 7.99986 8.05042 7.99958L9.1683 9.86272C8.7934 9.95248 8.40215 10 7.99989 10C7.59773 10 7.20658 9.9525 6.83178 9.86279L7.9497 7.99959ZM7.99999 4C7.4477 4 6.99999 4.44772 6.99999 5C6.99999 5.55228 7.4477 6 7.99999 6C8.55227 6 8.99999 5.55228 8.99999 5C8.99999 4.44772 8.55227 4 7.99999 4Z" fill="black"/>
<path d="M12.7137 15.7717L11.2807 13.3835C12.2265 13.013 13.0939 12.4872 13.8518 11.8377L15.2862 14.2283L14.5999 16L12.7137 15.7717Z" fill="black"/>
</svg>
