<svg width="16" height="16" viewBox="0 0 16 16" fill="none" xmlns="http://www.w3.org/2000/svg">
<path fill-rule="evenodd" clip-rule="evenodd" d="M8 16C12.4183 16 16 12.4183 16 8C16 3.58172 12.4183 0 8 0C3.58172 0 0 3.58172 0 8C0 12.4183 3.58172 16 8 16ZM10.1213 10.1213C8.94974 11.2929 7.05025 11.2929 5.87867 10.1213C4.7071 8.94975 4.7071 7.05025 5.87867 5.87868C7.05025 4.70711 8.94974 4.70711 10.1213 5.87868L11.5355 4.46447C9.58291 2.51184 6.41708 2.51184 4.46446 4.46447C2.51184 6.41709 2.51184 9.58291 4.46446 11.5355C6.41708 13.4882 9.58291 13.4882 11.5355 11.5355L10.1213 10.1213Z" fill="black"/>
</svg>
