<svg width="16" height="16" viewBox="0 0 16 16" fill="none" xmlns="http://www.w3.org/2000/svg">
<path d="M9 8C9 8.55229 8.55229 9 8 9C7.44772 9 7 8.55229 7 8C7 7.44772 7.44772 7 8 7C8.55229 7 9 7.44772 9 8Z" fill="black"/>
<path fill-rule="evenodd" clip-rule="evenodd" d="M9 1.57645V0H7V1.57645C4.21088 2.00712 2.00712 4.21088 1.57645 7H0V9H1.57645C2.00712 11.7891 4.21088 13.9929 7 14.4236V16H9V14.4236C11.7891 13.9929 13.9929 11.7891 14.4236 9H16V7H14.4236C13.9929 4.21088 11.7891 2.00712 9 1.57645ZM7 3.61151V5H9V3.61151C10.6824 3.99326 12.0067 5.31762 12.3885 7H11V9H12.3885C12.0067 10.6824 10.6824 12.0067 9 12.3885V11H7V12.3885C5.31762 12.0067 3.99326 10.6824 3.61151 9H5V7H3.61151C3.99326 5.31762 5.31762 3.99326 7 3.61151Z" fill="black"/>
</svg>
