<svg width="16" height="16" viewBox="0 0 16 16" fill="none" xmlns="http://www.w3.org/2000/svg">
<path fill-rule="evenodd" clip-rule="evenodd" d="M14.2454 14C15.3433 12.6304 16 10.8919 16 9C16 4.58172 12.4183 1 8 1C3.58172 1 0 4.58172 0 9C0 10.8919 0.656718 12.6304 1.75463 14H6.79822L3.26572 10.1788L4.73432 8.82116L9.5219 14H14.2454ZM9 4C9 4.55228 8.55229 5 8 5C7.44772 5 7 4.55228 7 4C7 3.44772 7.44772 3 8 3C8.55229 3 9 3.44772 9 4ZM4.5 6.5C5.05228 6.5 5.5 6.05228 5.5 5.5C5.5 4.94772 5.05228 4.5 4.5 4.5C3.94772 4.5 3.5 4.94772 3.5 5.5C3.5 6.05228 3.94772 6.5 4.5 6.5ZM14 9C14 9.55229 13.5523 10 13 10C12.4477 10 12 9.55229 12 9C12 8.44772 12.4477 8 13 8C13.5523 8 14 8.44772 14 9ZM12.5 5.5C12.5 6.05228 12.0523 6.5 11.5 6.5C10.9477 6.5 10.5 6.05228 10.5 5.5C10.5 4.94772 10.9477 4.5 11.5 4.5C12.0523 4.5 12.5 4.94772 12.5 5.5Z" fill="black"/>
</svg>
