<svg width="16" height="16" viewBox="0 0 16 16" fill="none" xmlns="http://www.w3.org/2000/svg">
<path d="M15 1H1V3H15V1Z" fill="black"/>
<path d="M11 5H1V7H6.52779C7.62643 5.7725 9.223 5 11 5Z" fill="black"/>
<path d="M5.34141 13C5.60482 13.7452 6.01127 14.4229 6.52779 15H1V13H5.34141Z" fill="black"/>
<path d="M5.34141 9C5.12031 9.62556 5 10.2987 5 11H1V9H5.34141Z" fill="black"/>
<path d="M15 11C15 11.7418 14.7981 12.4365 14.4462 13.032L15.9571 14.5429L14.5429 15.9571L13.032 14.4462C12.4365 14.7981 11.7418 15 11 15C8.79086 15 7 13.2091 7 11C7 8.79086 8.79086 7 11 7C13.2091 7 15 8.79086 15 11Z" fill="black"/>
</svg>
