<svg width="16" height="16" viewBox="0 0 16 16" fill="none" xmlns="http://www.w3.org/2000/svg">
<path d="M0 8.00002C0 4.75562 1.93132 1.9623 4.70701 0.707031L5.65436 1.65438C5.2352 2.51383 5 3.47946 5 4.50002C5 6.17206 5.63133 7.69665 6.66862 8.84841C6.33637 9.19511 6.04534 9.58161 5.80334 10H4C2.73913 10 1.5691 10.3889 0.603335 11.0534C0.214525 10.1125 0 9.08132 0 8.00002Z" fill="black"/>
<path d="M7.99033 16L7.98148 16H0C0 13.7909 1.79086 12 4 12H7.12602C7.19635 11.7267 7.29484 11.4648 7.41819 11.2174C8.07364 9.90294 9.43137 9 11 9C12.6513 9 14.0689 10.0006 14.6795 11.4286C14.767 11.6332 14.8379 11.8465 14.8906 12.0669C14.9621 12.3663 15 12.6787 15 13V16H8.01852L8.00967 16H7.99033Z" fill="black"/>
<path d="M11.5 7L9 4.5L11.5 2L14 4.5L11.5 7Z" fill="black"/>
</svg>
