<svg width="16" height="16" viewBox="0 0 16 16" fill="none" xmlns="http://www.w3.org/2000/svg">
<path fill-rule="evenodd" clip-rule="evenodd" d="M16 8C16 8.33866 15.979 8.67241 15.9381 9H8V11L11 14V15.4185C10.0736 15.7935 9.0609 16 8 16C3.58172 16 0 12.4183 0 8C0 3.58172 3.58172 0 8 0C12.4183 0 16 3.58172 16 8ZM3 9C3.55228 9 4 8.55229 4 8C4 7.44772 3.55228 7 3 7C2.44772 7 2 7.44772 2 8C2 8.55229 2.44772 9 3 9ZM9 3C9 3.55228 8.55229 4 8 4C7.44772 4 7 3.55228 7 3C7 2.44772 7.44772 2 8 2C8.55229 2 9 2.44772 9 3ZM5.17137 5.17158C5.56189 4.78106 5.56189 4.14789 5.17137 3.75737C4.78084 3.36685 4.14768 3.36685 3.75716 3.75737C3.36663 4.14789 3.36663 4.78106 3.75716 5.17158C4.14768 5.56211 4.78084 5.56211 5.17137 5.17158ZM12.2428 5.17161C11.8522 5.56214 11.2191 5.56214 10.8285 5.17161C10.438 4.78109 10.438 4.14792 10.8285 3.7574C11.2191 3.36688 11.8522 3.36688 12.2428 3.7574C12.6333 4.14792 12.6333 4.78109 12.2428 5.17161ZM5.17146 10.8284C4.78094 10.4379 4.14777 10.4379 3.75725 10.8284C3.36672 11.2189 3.36672 11.8521 3.75725 12.2426C4.14777 12.6331 4.78094 12.6331 5.17146 12.2426C5.56199 11.8521 5.56199 11.2189 5.17146 10.8284Z" fill="black"/>
</svg>
