<svg width="16" height="16" viewBox="0 0 16 16" fill="none" xmlns="http://www.w3.org/2000/svg">
<path d="M7.25 2.75C7.25 3.7165 6.4665 4.5 5.5 4.5C4.5335 4.5 3.75 3.7165 3.75 2.75C3.75 1.7835 4.5335 1 5.5 1C6.4665 1 7.25 1.7835 7.25 2.75Z" fill="black"/>
<path d="M4.25 6.75C4.25 7.7165 3.4665 8.5 2.5 8.5C1.5335 8.5 0.75 7.7165 0.75 6.75C0.75 5.7835 1.5335 5 2.5 5C3.4665 5 4.25 5.7835 4.25 6.75Z" fill="black"/>
<path d="M10.5 4.5C11.4665 4.5 12.25 3.7165 12.25 2.75C12.25 1.7835 11.4665 1 10.5 1C9.5335 1 8.75 1.7835 8.75 2.75C8.75 3.7165 9.5335 4.5 10.5 4.5Z" fill="black"/>
<path d="M15.25 6.75C15.25 7.7165 14.4665 8.5 13.5 8.5C12.5335 8.5 11.75 7.7165 11.75 6.75C11.75 5.7835 12.5335 5 13.5 5C14.4665 5 15.25 5.7835 15.25 6.75Z" fill="black"/>
<path d="M2 15L1 12L6.23178 7.64018C6.72816 7.22653 7.35386 7 8 7C8.64614 7 9.27184 7.22653 9.76822 7.64018L15 12L14 15L8 14L2 15Z" fill="black"/>
</svg>
