<svg width="16" height="16" viewBox="0 0 16 16" fill="none" xmlns="http://www.w3.org/2000/svg">
<path d="M6.94864 0.15391C8.52047 0.677853 9.36995 2.37681 8.84601 3.94864L7.66225 7.49992L1.97015 5.60256L3.15391 2.05128C3.67785 0.479446 5.37681 -0.370034 6.94864 0.15391Z" fill="black"/>
<path d="M7.02979 9.39729L5.84601 12.9486C5.32207 14.5205 3.62311 15.37 2.05128 14.846C0.479446 14.3221 -0.370034 12.6231 0.15391 11.0513L1.33769 7.49992L7.02979 9.39729Z" fill="black"/>
<path d="M12.5 15C14.433 15 16 13.433 16 11.5C16 9.567 14.433 8 12.5 8C10.567 8 9 9.567 9 11.5C9 13.433 10.567 15 12.5 15Z" fill="black"/>
</svg>
