<svg width="16" height="16" viewBox="0 0 16 16" fill="none" xmlns="http://www.w3.org/2000/svg">
<path d="M1 16L0 15L1.97837 10.9068C2.14083 10.9671 2.31657 11 2.5 11C3.32843 11 4 10.3284 4 9.5C4 8.95653 3.71097 8.48056 3.27824 8.21743L5.37251 3.88446C8.37131 5.21622 10.7838 7.62869 12.1155 10.6275L9.97183 11.6636C9.81188 10.7192 8.98993 10 8 10C6.89543 10 6 10.8954 6 12C6 12.5135 6.19355 12.9819 6.51167 13.336L1 16Z" fill="black"/>
<path d="M6.24346 2.0825C9.6471 3.61175 12.3883 6.3529 13.9175 9.75654L15.9445 8.77684C14.1934 4.91762 11.0824 1.80661 7.22316 0.0555267L6.24346 2.0825Z" fill="black"/>
</svg>
