<svg width="16" height="16" viewBox="0 0 16 16" fill="none" xmlns="http://www.w3.org/2000/svg">
<path fill-rule="evenodd" clip-rule="evenodd" d="M10.7071 1.2929L12 0L16 4L14.7071 5.2929L15.9571 6.54291L14.5429 7.95712L13.5429 6.95712L11.848 8.65203C11.9474 9.08533 12 9.53654 12 10C12 13.3137 9.31371 16 6 16C2.68629 16 0 13.3137 0 10C0 6.68631 2.68629 4.00001 6 4.00001C6.46348 4.00001 6.91468 4.05257 7.34798 4.15203L9.04289 2.45712L8.04289 1.45712L9.45711 0.0429077L10.7071 1.2929ZM10.4571 3.87133L12.1287 5.54291L9.651 8.02059L9.89868 9.09952C9.96469 9.38706 10 9.68817 10 10H2C2.00001 7.79087 3.79087 6.00001 6 6.00001C6.31184 6.00001 6.61295 6.03532 6.90049 6.10133L7.97943 6.34902L10.4571 3.87133Z" fill="black"/>
</svg>
