<svg width="16" height="16" viewBox="0 0 16 16" fill="none" xmlns="http://www.w3.org/2000/svg">
<path d="M8 2C4.68629 2 2 4.68629 2 8C2 11.3137 4.68629 14 8 14C11.3137 14 14 11.3137 14 8C14 7.46252 13.9293 6.94155 13.7968 6.44587L15.3669 4.8757C15.7745 5.83557 16 6.89145 16 8C16 12.4183 12.4183 16 8 16C3.58172 16 0 12.4183 0 8C0 3.58172 3.58172 0 8 0C9.84871 0 11.551 0.627082 12.9056 1.68014L14.2929 0.292893L15.7071 1.70711L8.70711 8.70711L7.29289 7.29289L8.51791 6.06788C7.85068 5.88969 7.10925 6.06233 6.58579 6.58579C5.80474 7.36684 5.80474 8.63317 6.58579 9.41421C7.36684 10.1953 8.63317 10.1953 9.41421 9.41421L10.8284 10.8284C9.26633 12.3905 6.73367 12.3905 5.17157 10.8284C3.60948 9.26633 3.60948 6.73367 5.17157 5.17157C6.48951 3.85364 8.49831 3.64764 10.0322 4.55357L11.4765 3.10925C10.4957 2.41079 9.29583 2 8 2Z" fill="black"/>
</svg>
