<svg width="16" height="16" viewBox="0 0 16 16" fill="none" xmlns="http://www.w3.org/2000/svg">
<path d="M3 1L0 4V5C0 5 2 6 4 6C6 6 8 5 8 5C8 5 10 6 12 6C14 6 16 5 16 5V4L13 1H3Z" fill="black"/>
<path fill-rule="evenodd" clip-rule="evenodd" d="M1 15V7.5187C1.81671 7.76457 2.88168 8 4 8C5.3025 8 6.53263 7.68064 7.38246 7.39737C7.60924 7.32177 7.81664 7.24612 8 7.17526C8.18337 7.24612 8.39076 7.32177 8.61754 7.39737C9.46737 7.68064 10.6975 8 12 8C13.1183 8 14.1833 7.76457 15 7.5187V15H7V10H4V15H1ZM12 10H10V13H12V10Z" fill="black"/>
</svg>
