<svg width="16" height="16" viewBox="0 0 16 16" fill="none" xmlns="http://www.w3.org/2000/svg">
<path fill-rule="evenodd" clip-rule="evenodd" d="M8 0C4.13401 0 1 3.13401 1 7V10L4 13L3 15V16H13V15L12 13L15 10V7C15 3.13401 11.866 0 8 0ZM6.5 7.5C6.5 8.32843 5.82843 9 5 9C4.17157 9 3.5 8.32843 3.5 7.5C3.5 6.67157 4.17157 6 5 6C5.82843 6 6.5 6.67157 6.5 7.5ZM11 9C11.8284 9 12.5 8.32843 12.5 7.5C12.5 6.67157 11.8284 6 11 6C10.1716 6 9.5 6.67157 9.5 7.5C9.5 8.32843 10.1716 9 11 9Z" fill="black"/>
</svg>
