<svg width="16" height="16" viewBox="0 0 16 16" fill="none" xmlns="http://www.w3.org/2000/svg">
<path fill-rule="evenodd" clip-rule="evenodd" d="M8 4C5.79086 4 4 2.20914 4 0H2C2 2.08697 3.06551 3.92508 4.68221 5C3.06551 6.07492 2 7.91303 2 10C2 13.3137 4.68629 16 8 16C11.3137 16 14 13.3137 14 10C14 7.91303 12.9345 6.07492 11.3178 5C12.9345 3.92508 14 2.08697 14 0H12C12 2.20914 10.2091 4 8 4ZM8 6C5.79086 6 4 7.79086 4 10C4 12.2091 5.79086 14 8 14C10.2091 14 12 12.2091 12 10C12 7.79086 10.2091 6 8 6Z" fill="black"/>
</svg>
