<svg width="16" height="16" viewBox="0 0 16 16" fill="none" xmlns="http://www.w3.org/2000/svg">
<path fill-rule="evenodd" clip-rule="evenodd" d="M9 0H3V6.99963C1.78555 7.91184 1 9.36418 1 11C1 13.7614 3.23858 16 6 16C8.76142 16 11 13.7614 11 11C11 9.36418 10.2144 7.91184 9 6.99963V0ZM4.20116 8.59877L5 7.99873V2H7V7.99873L7.79884 8.59877C8.53202 9.14948 9 10.0198 9 11C9 11.3506 8.93985 11.6872 8.82929 12H3.17071C3.06015 11.6872 3 11.3506 3 11C3 10.0198 3.46798 9.14948 4.20116 8.59877Z" fill="black"/>
<path d="M16 4H11V6H16V4Z" fill="black"/>
<path d="M13 0H16V2H13V0Z" fill="black"/>
<path d="M16 8H13V10H16V8Z" fill="black"/>
<path d="M13 12H16V14H13V12Z" fill="black"/>
</svg>
