<svg width="16" height="16" viewBox="0 0 16 16" fill="none" xmlns="http://www.w3.org/2000/svg">
<path d="M9.99994 1.5C9.99994 2.32843 9.32837 3 8.49994 3C7.67151 3 6.99994 2.32843 6.99994 1.5C6.99994 0.671573 7.67151 0 8.49994 0C9.32837 0 9.99994 0.671573 9.99994 1.5Z" fill="black"/>
<path d="M2.8312 5.45056C3.07651 4.59195 3.86128 4 4.75424 4H7.73601L10.5455 5.40474L12.6286 4.57152L13.3713 6.42848L11.2883 7.2617C10.7579 7.47386 10.162 7.44908 9.65107 7.1936L9.50107 7.1186L8.96631 9.2576L9.83834 9.75591C10.6163 10.2005 11.0037 11.1082 10.7864 11.9775L9.78072 16H7.71917L8.84607 11.4924L7.14993 10.5232L5.78072 16H3.71917L6.21917 6H4.75424L4.18281 8H2.10278L2.8312 5.45056Z" fill="black"/>
</svg>
