<svg width="16" height="16" viewBox="0 0 16 16" fill="none" xmlns="http://www.w3.org/2000/svg">
<path d="M13.1715 9.82843L11.9999 8.65686C10.9391 7.59599 9.50023 7 7.99994 7C6.49965 7 5.06081 7.59599 3.99994 8.65685L2.82837 9.82843L4.24258 11.2426L5.41416 10.0711C6.09995 9.38527 7.03008 9 7.99994 9C8.9698 9 9.89993 9.38527 10.5857 10.0711L11.7573 11.2426L13.1715 9.82843Z" fill="black"/>
<path d="M10.3431 12.6569L9.17151 11.4853C8.86079 11.1746 8.43936 11 7.99994 11C7.56051 11 7.13909 11.1746 6.82837 11.4853L5.6568 12.6569L7.99994 15L10.3431 12.6569Z" fill="black"/>
</svg>
