<svg width="512" height="512" viewBox="0 0 512 512" fill="none" xmlns="http://www.w3.org/2000/svg">
<rect width="512" height="512" rx="256" fill="#0E141A"/>
<path fill-rule="evenodd" clip-rule="evenodd" d="M285.648 167.054C292.354 169.289 295.979 176.538 293.743 183.245L242.543 336.845C240.308 343.551 233.059 347.176 226.352 344.94C219.646 342.705 216.021 335.456 218.257 328.749L269.457 175.149C271.692 168.443 278.941 164.818 285.648 167.054ZM201.051 208.546C206.05 213.545 206.05 221.649 201.051 226.648L171.702 255.997L201.051 285.346C206.05 290.345 206.05 298.449 201.051 303.448C196.052 308.447 187.948 308.447 182.949 303.448L144.549 265.048C139.55 260.049 139.55 251.945 144.549 246.946L182.949 208.546C187.948 203.547 196.052 203.547 201.051 208.546ZM310.949 208.546C315.948 203.547 324.052 203.547 329.051 208.546L367.451 246.946C372.45 251.945 372.45 260.049 367.451 265.048L329.051 303.448C324.052 308.447 315.948 308.447 310.949 303.448C305.95 298.449 305.95 290.345 310.949 285.346L340.298 255.997L310.949 226.648C305.95 221.649 305.95 213.545 310.949 208.546Z" fill="white"/>
</svg>
