<svg width="512" height="512" viewBox="0 0 512 512" fill="none" xmlns="http://www.w3.org/2000/svg">
<rect width="512" height="512" rx="256" fill="#E70F6A"/>
<rect width="512" height="512" rx="256" fill="url(#paint0_linear_8_10)" fill-opacity="0.3"/>
<path d="M356 196L318.995 195.985L325.81 158.105C326.98 151.59 322.65 145.34 316.12 144.165C309.62 143.07 303.37 147.335 302.18 153.855L294.6 195.985H239L245.815 158.105C246.985 151.59 242.655 145.34 236.125 144.165C229.6 143.07 223.35 147.34 222.2 153.855L214.62 195.985H172C165.375 195.985 160 201.375 160 208C160 214.625 165.375 219.985 172 219.985H210.285L197.325 291.985H156C149.375 291.985 144 297.365 144 303.99C144 310.645 149.375 315.995 156 315.995L193.005 315.99L186.19 353.87C185.015 360.385 189.345 366.635 195.88 367.81C196.6 367.94 197.3 367.99 198 367.99C203.69 367.99 208.75 363.91 209.795 358.115L217.375 315.985H272.975L266.16 353.865C264.985 360.38 269.315 366.63 275.85 367.805C276.6 367.94 277.3 367.99 278 367.99C283.69 367.99 288.75 363.91 289.795 358.115L297.375 315.985L340 315.99C346.625 315.99 352 310.615 352 304.44C352 297.815 346.625 292.435 340 292.435H301.715L314.675 220.435L356 219.99C362.625 219.99 368 214.615 368 208.44C368 201.39 362.65 195.99 356 195.99V196ZM277.35 291.55H221.75L234.71 219.55H290.31L277.35 291.55Z" fill="white"/>
<defs>
<linearGradient id="paint0_linear_8_10" x1="256" y1="0" x2="256" y2="512" gradientUnits="userSpaceOnUse">
<stop stop-color="white"/>
<stop offset="1" stop-color="white" stop-opacity="0"/>
</linearGradient>
</defs>
</svg>
