<svg width="128" height="128" viewBox="0 0 128 128" fill="none" xmlns="http://www.w3.org/2000/svg">
<g clip-path="url(#clip0_6_81)">
<path d="M64 22.1031L42.8866 11.5464V53.7732L64 64.3299V22.1031Z" fill="#5EC269"/>
<path d="M64 22.1031L85.1134 32.6598V74.8866L64 64.3299V22.1031Z" fill="#5EC269"/>
<path d="M21.7732 106.557V64.3299L42.8866 74.8866V117.113L21.7732 106.557Z" fill="#5EC269"/>
<path d="M64 127.67V85.4433L42.8866 74.8866V117.113L64 127.67Z" fill="#5EC269"/>
<path d="M106.227 22.1031L85.1134 32.6598V74.8866L64 85.4433V127.67L106.227 106.557V22.1031Z" fill="#2A4DD0"/>
<path d="M64 0.989685L42.8866 11.5464L64 22.1031L85.1134 11.5464L64 0.989685Z" fill="#F3CE49"/>
<path d="M64 22.1031L85.1134 32.6598L106.227 22.1031L85.1134 11.5464L64 22.1031Z" fill="#F3CE49"/>
<path d="M21.7732 64.3299L42.8866 53.7732L64 64.3299L42.8866 74.8866L21.7732 64.3299Z" fill="#F3CE49"/>
<path d="M64 85.4433L42.8866 74.8866L64 64.3299L85.1134 74.8866L64 85.4433Z" fill="#F3CE49"/>
<path d="M42.8866 11.5464L64 0.989685L85.1134 11.5464M42.8866 11.5464L64 22.1031M42.8866 11.5464V32.6598V53.7732M64 22.1031L85.1134 32.6598M64 22.1031V64.3299M64 22.1031L85.1134 11.5464M85.1134 32.6598L106.227 22.1031M85.1134 32.6598V74.8866M106.227 22.1031L85.1134 11.5464M106.227 22.1031V64.3299V106.557L64 127.67M42.8866 53.7732L64 64.3299M42.8866 53.7732L21.7732 64.3299M64 64.3299L85.1134 74.8866M64 64.3299L42.8866 74.8866M85.1134 74.8866L64 85.4433M64 127.67V85.4433M64 127.67L42.8866 117.113M64 85.4433L42.8866 74.8866M21.7732 64.3299L42.8866 74.8866M21.7732 64.3299V106.557L42.8866 117.113M42.8866 74.8866V117.113" stroke="black" stroke-width="2"/>
</g>
<defs>
<clipPath id="clip0_6_81">
<rect width="128" height="128" fill="white"/>
</clipPath>
</defs>
</svg>
