<svg width="512" height="512" viewBox="0 0 512 512" fill="none" xmlns="http://www.w3.org/2000/svg">
<rect width="512" height="512" rx="256" fill="#FBCD28"/>
<g clip-path="url(#clip0_8_10)">
<path d="M215.556 259.022C215.644 245.689 221.955 233.2 232.622 225.2L337.822 146.267C346.089 140.062 357.6 140.68 365.2 147.729C372.756 154.778 374.133 166.235 368.533 174.915L296.667 286.04C289.911 296.529 278.933 303.418 266.8 305.151L215.556 259.02V259.022ZM258.222 319.778C258.222 347.289 235.956 369.555 208.444 369.555H144.444C136.591 369.555 130.222 363.2 130.222 355.333C130.222 347.467 136.591 341.111 144.444 341.111H146.582C154.418 341.111 159.733 332.711 158.929 324.933C158.755 323.244 158.667 321.511 158.667 319.778C158.667 292.933 179.956 271.022 206.533 270.044L258.133 316.444C258.178 317.155 258.222 318.667 258.222 319.778Z" fill="white"/>
</g>
<defs>
<clipPath id="clip0_8_10">
<rect width="256" height="227.556" fill="white" transform="translate(116 142)"/>
</clipPath>
</defs>
</svg>
