<svg width="20" height="20" viewBox="0 0 20 20" fill="none" xmlns="http://www.w3.org/2000/svg">
<path d="M8.5 11.0994L9.40018 11.9995C9.89721 12.4966 10.7031 12.4966 11.2001 11.9995V11.9995L13.9 9.29968L15.6999 7.49977V7.49977C16.1969 7.00274 16.1969 6.19689 15.6999 5.69986V5.69986L14.7999 4.79991L13.9 3.89995V3.89995C13.4029 3.40292 12.5971 3.40292 12.1 3.89995V3.89995L11 5" stroke="black" stroke-linecap="round"/>
<path d="M11.8004 9L10.1201 7.31979V7.31979C9.72252 6.92216 9.07784 6.92216 8.68022 7.31979L8.50023 7.49978L5.80036 10.1996L4.00046 11.9995V11.9995C3.50343 12.4966 3.50343 13.3024 4.00046 13.7995V13.7995L4.90041 14.6994L5.80036 15.5994V15.5994C6.2974 16.0964 7.10324 16.0964 7.60027 15.5994V15.5994L8.69964 14.5" stroke="black" stroke-linecap="round"/>
</svg>
