<svg width="20" height="20" viewBox="0 0 20 20" fill="none" xmlns="http://www.w3.org/2000/svg">
<circle cx="10" cy="10" r="3.5" transform="rotate(-90 10 10)" stroke="black"/>
<path fill-rule="evenodd" clip-rule="evenodd" d="M17.9825 9.46667C17.9941 9.64295 18 9.82079 18 10C18 10.1792 17.9941 10.3571 17.9825 10.5333L15.3333 10.5333V9.46667L17.9825 9.46667ZM15.2672 3.97853C15.535 4.21297 15.787 4.46499 16.0215 4.73278L14.1105 6.64379L13.3562 5.88954L15.2672 3.97853ZM9.46667 2.0175C9.64295 2.00589 9.82079 2 10 2C10.1792 2 10.3571 2.00589 10.5333 2.0175V4.66667H9.46667V2.0175ZM3.97853 4.73278C4.21297 4.46498 4.46499 4.21297 4.73278 3.97853L6.64379 5.88954L5.88954 6.64379L3.97853 4.73278ZM2.0175 10.5333C2.00589 10.3571 2 10.1792 2 10C2 9.82079 2.00589 9.64295 2.0175 9.46667H4.66667V10.5333H2.0175ZM4.73278 16.0215C4.46499 15.787 4.21297 15.535 3.97853 15.2672L5.88954 13.3562L6.64379 14.1105L4.73278 16.0215ZM10.5333 17.9825C10.3571 17.9941 10.1792 18 10 18C9.82079 18 9.64295 17.9941 9.46667 17.9825V15.3333H10.5333V17.9825ZM16.0215 15.2672C15.787 15.535 15.535 15.787 15.2672 16.0215L13.3562 14.1105L14.1105 13.3562L16.0215 15.2672Z" fill="black"/>
</svg>
