<?xml version="1.0" encoding="UTF-8" standalone="no"?>
<svg width="60px" height="28px" viewBox="0 0 60 28" version="1.1" xmlns="http://www.w3.org/2000/svg" xmlns:xlink="http://www.w3.org/1999/xlink">
    <!-- Generator: Sketch 3.7.1 (28215) - http://www.bohemiancoding.com/sketch -->
    <title>wordmark</title>
    <desc>Created with Sketch.</desc>
    <defs>
        <ellipse id="path-1" cx="55.7142857" cy="4.30769231" rx="4.28571429" ry="4.30769231"></ellipse>
        <mask id="mask-2" maskContentUnits="userSpaceOnUse" maskUnits="objectBoundingBox" x="0" y="0" width="8.57142857" height="8.61538462" fill="white">
            <use xlink:href="#path-1"></use>
        </mask>
    </defs>
    <g id="brand" stroke="none" stroke-width="1" fill="none" fill-rule="evenodd">
        <g id="wordmark">
            <path d="M33.3356335,4.30769231 L26.7787129,4.30769231 C26.7549145,4.54879593 26.7428571,4.79303764 26.7428571,5.04 L26.7428571,5.12615385 C26.7428571,8.35692308 28.2428571,10.2953846 30.5571429,11.7169231 C27.3857143,13.1815385 25.7142857,15.3353846 25.7142857,18.9969231 L25.7142857,19.0830769 C25.7142857,24.3384615 30.6428571,27.7846154 37.2857143,27.7846154 C43.9285714,27.7846154 48.8571429,24.5107692 48.8571429,18.9107692 L48.8571429,18.8246154 C48.8571429,15.2492308 47.0571429,13.3107692 44.0142857,11.7169231 C46.3285714,10.2953846 47.8285714,8.35692308 47.8285714,5.12615385 L47.8285714,5.04 C47.8285714,4.79285059 47.8167183,4.54861886 47.7933206,4.30769231 L41.217947,4.30769231 C41.4502831,4.7615086 41.5714286,5.26032616 41.5714286,5.77230769 L41.5714286,5.85846154 C41.5714286,7.96923077 39.9,9.52 37.2857143,9.52 C34.6714286,9.52 33,7.92615385 33,5.81538462 L33,5.72923077 C33,5.23052421 33.1149447,4.74743036 33.3356335,4.30769231 Z M37.2857143,22.3138462 C34.0285714,22.3138462 32.1,20.6338462 32.1,18.5661538 L32.1,18.48 C32.1,16.1538462 34.2857143,14.7753846 37.2857143,14.7753846 C40.2857143,14.7753846 42.4714286,16.1538462 42.4714286,18.48 L42.4714286,18.5661538 C42.4714286,20.6769231 40.5428571,22.3138462 37.2857143,22.3138462 L37.2857143,22.3138462 Z" id="8" fill="#353535"></path>
            <path d="M0,26.8276923 L6.51428571,26.8276923 L6.51428571,13.9476923 C6.51428571,10.8461538 8.1,9.25230769 10.5857143,9.25230769 C13.0714286,9.25230769 14.5285714,10.8461538 14.5285714,13.9476923 L14.5285714,26.8276923 L21.0428571,26.8276923 L21.0428571,11.88 C21.0428571,6.58153846 18.1714286,3.30769231 13.2428571,3.30769231 C9.94285714,3.30769231 8.01428571,5.07384615 6.51428571,7.01230769 L6.51428571,3.73846154 L0,3.73846154 L0,26.8276923 Z" id="n" fill="#353535"></path>
            <use id="Fill" stroke="#353535" mask="url(#mask-2)" stroke-width="12" xlink:href="#path-1"></use>
        </g>
    </g>
</svg>