<?xml version="1.0" encoding="UTF-8" standalone="no"?>
<svg width="27px" height="24px" viewBox="0 0 27 24" version="1.1" xmlns="http://www.w3.org/2000/svg" xmlns:xlink="http://www.w3.org/1999/xlink">
    <!-- Generator: Sketch 3.7.2 (28276) - http://www.bohemiancoding.com/sketch -->
    <title>n8-wordmark</title>
    <desc>Created with Sketch.</desc>
    <defs></defs>
    <g id="Symbols" stroke="none" stroke-width="1" fill="none" fill-rule="evenodd">
        <g id="N8-Wordmark" fill="#1E1E1E">
            <g id="n8-wordmark">
                <path d="M12.2270742,23.650655 L12.2270742,0.349344978 L8.48908297,0.349344978 L8.59388646,9.88646288 C8.62882096,11.8427948 8.69868996,14.1484716 8.76855895,16.8384279 C8.24454148,14.2183406 7.68558952,11.8427948 7.12663755,9.88646288 L4.36681223,0.349344978 L0,0.349344978 L0,23.650655 L3.73799127,23.650655 L3.63318777,14.5676856 C3.56331878,12.6812227 3.49344978,10.4803493 3.45851528,9.5720524 L3.31877729,7.58078603 C3.31877729,7.44104803 3.28384279,7.09170306 3.2489083,6.60262009 C4.01746725,10.0960699 4.26200873,11.0393013 5.13537118,14.2532751 L7.89519651,23.650655 L12.2270742,23.650655 Z M23.3158661,10.8995633 C25.3770015,10.3056769 26.0058224,9.08296943 26.0058224,5.76419214 C26.0058224,3.56331878 25.6564774,2.30567686 24.783115,1.43231441 C23.874818,0.489082969 22.3726346,0 20.5211063,0 C18.6695779,0 17.1673945,0.489082969 16.2590975,1.43231441 C15.3857351,2.30567686 15.0363901,3.56331878 15.0363901,5.76419214 C15.0363901,9.08296943 15.6652111,10.3056769 17.7263464,10.8995633 C15.1761281,11.7729258 14.6521106,12.7860262 14.6521106,16.69869 C14.6521106,19.8427948 14.9315866,21.1004367 15.874818,22.2532751 C16.8180495,23.4061135 18.4250364,24 20.5211063,24 C22.6171761,24 24.224163,23.4061135 25.1673945,22.2532751 C26.1106259,21.1004367 26.3901019,19.8427948 26.3901019,16.69869 C26.3901019,12.7860262 25.8660844,11.7729258 23.3158661,10.8995633 L23.3158661,10.8995633 Z M20.5211063,2.89956332 C21.8486172,2.89956332 22.1630277,3.56331878 22.1630277,6.18340611 C22.1630277,8.66375546 21.8136827,9.32751092 20.5211063,9.32751092 C19.2285298,9.32751092 18.8791849,8.66375546 18.8791849,6.11353712 C18.8791849,3.56331878 19.2285298,2.89956332 20.5211063,2.89956332 L20.5211063,2.89956332 Z M20.5211063,12.5764192 C22.0931587,12.5764192 22.5473071,13.5545852 22.5473071,16.8034934 C22.5473071,19.8777293 22.0582242,20.8558952 20.5211063,20.8558952 C18.9839884,20.8558952 18.4949054,19.8777293 18.4949054,16.69869 C18.4949054,13.5545852 18.9839884,12.5764192 20.5211063,12.5764192 L20.5211063,12.5764192 Z" id="N8"></path>
            </g>
        </g>
    </g>
</svg>