<svg width="16" height="16" viewBox="0 0 16 16" fill="none" xmlns="http://www.w3.org/2000/svg">
<path d="M14.6378 13.2123C15.0466 13.6212 15.0466 14.2845 14.6378 14.6934C14.229 15.1022 13.5656 15.1022 13.1568 14.6934L8.00071 9.4989L2.808 14.6916C2.39917 15.1004 1.73585 15.1004 1.32698 14.6916C0.91811 14.2828 0.918154 13.6195 1.32698 13.2106L6.52144 8.01964L1.32554 2.78765C0.916714 2.37882 0.916714 1.71551 1.32554 1.30664C1.73437 0.897766 2.39768 0.897809 2.80656 1.30664L8.00071 6.54037L13.1934 1.34766C13.6022 0.938827 14.2656 0.938827 14.6744 1.34766C15.0833 1.75648 15.0833 2.4198 14.6744 2.82867L9.47998 8.01964L14.6378 13.2123Z" fill="black"/>
</svg>