<svg width="16" height="16" viewBox="0 0 16 16" fill="none" xmlns="http://www.w3.org/2000/svg">
<g id="Chunk/Bold">
<path id="Icon" fill-rule="evenodd" clip-rule="evenodd" d="M2 1H8.75C11.0972 1 13 2.90279 13 5.25C13 6.04591 12.7812 6.79071 12.4005 7.42756C13.3754 8.20632 14 9.40522 14 10.75C14 13.0972 12.0972 15 9.75 15H2V1ZM5 9.5V12H9.75C10.4404 12 11 11.4404 11 10.75C11 10.0596 10.4404 9.5 9.75 9.5H5ZM5 6.5H8.75C9.44036 6.5 10 5.94036 10 5.25C10 4.55964 9.44036 4 8.75 4H5V6.5Z" fill="#F7F0EA"/>
</g>
</svg>
