<svg width="16" height="16" viewBox="0 0 16 16" class="h-4 w-4" fill="currentColor" xmlns="http://www.w3.org/2000/svg">
<g id="Chunk/CloudMoon">
<g id="Icon">
<path d="M1 8.00001C1 4.75561 2.93132 1.96229 5.70701 0.707016L6.65436 1.65437C6.2352 2.51381 6 3.47944 6 4.50001C6 6.17205 6.63133 7.69663 7.66862 8.84839C7.33637 9.1951 7.04534 9.5816 6.80334 10H5C3.73913 10 2.5691 10.3889 1.60333 11.0533C1.21452 10.1125 1 9.0813 1 8.00001Z" fill="inherit"/>
<path d="M2.59948 12.8001C3.2681 12.2977 4.09928 12 5 12H8.12602C8.31357 11.2713 8.7013 10.623 9.2271 10.1171C9.94615 9.42533 10.9234 9 12 9C13.2458 9 14.3587 9.56957 15.0923 10.4625C15.4703 10.9227 15.7476 11.4687 15.8906 12.0669C15.9621 12.3663 16 12.6787 16 13V16H1C1 14.6916 1.62822 13.5299 2.59948 12.8001Z" fill="inherit"/>
<path d="M12.5 7L10 4.5L12.5 2L15 4.5L12.5 7Z" fill="inherit"/>
</g>
</g>
</svg>
