<svg width="16" height="16" viewBox="0 0 16 16" class="h-4 w-4" fill="currentColor" xmlns="http://www.w3.org/2000/svg">
<g id="Chunk/CloudSun">
<g id="Icon">
<path d="M10 0H8V2H10V0Z" fill="inherit"/>
<path d="M14.6569 2.75736L13.2427 1.34315L11.8285 2.75736L13.2427 4.17157L14.6569 2.75736Z" fill="inherit"/>
<path d="M4.75732 1.34315L6.17154 2.75736L4.75732 4.17157L3.34311 2.75736L4.75732 1.34315Z" fill="inherit"/>
<path d="M16 6H14V8H16V6Z" fill="inherit"/>
<path d="M7.87398 10C7.42994 8.27477 5.86384 7 4 7C1.79086 7 0 8.79086 0 11V15H15V14C15 11.7909 13.2091 10 11 10H7.87398Z" fill="inherit"/>
<path d="M12 7C12 7.35064 11.9399 7.68722 11.8293 8H9.19668C8.55831 6.89629 7.57874 6.01456 6.40149 5.49978C6.92023 4.6032 7.88968 4 9.00002 4C10.6569 4 12 5.34315 12 7Z" fill="inherit"/>
</g>
</g>
</svg>
