<svg width="16" height="16" viewBox="0 0 16 16" fill="none" xmlns="http://www.w3.org/2000/svg">
<g id="Chunk/Dog">
<path id="Icon" fill-rule="evenodd" clip-rule="evenodd" d="M16 4V7C16 9.20914 14.2091 11 12 11H10V15H0V13L0.931628 10.8706C1.25227 10.9549 1.59037 11 1.94125 11C3.74932 11 5.32537 9.76946 5.76389 8.01537L3.8236 7.5303C3.60766 8.39405 2.83157 9 1.94124 9C0.678947 9 -0.247263 7.81373 0.0588879 6.58913L0.698705 4.02986C1.14387 2.24919 2.7438 1 4.57928 1H10L12 4H16ZM9 6C9.55229 6 10 5.55228 10 5C10 4.44772 9.55229 4 9 4C8.44771 4 8 4.44772 8 5C8 5.55228 8.44771 6 9 6Z" fill="#F7F0EA"/>
</g>
</svg>
