<svg width="16" height="16" viewBox="0 0 16 16" fill="none" xmlns="http://www.w3.org/2000/svg">
<g id="Chunk/Flower">
<g id="Icon">
<path fill-rule="evenodd" clip-rule="evenodd" d="M5.99999 2C5.99999 0.895431 6.89542 0 7.99999 0C9.10456 0 9.99999 0.895431 9.99999 2V2.0359L10.0311 2.01795C10.9877 1.46566 12.2108 1.79341 12.7631 2.75C13.3154 3.70659 12.9877 4.92977 12.0311 5.48205L12 5.5L12.0311 5.51795C12.9877 6.07023 13.3154 7.29342 12.7631 8.25C12.2108 9.20658 10.9877 9.53434 10.0311 8.98205L9.99999 8.9641V9C9.99999 10.1046 9.10456 11 7.99999 11C6.89542 11 5.99999 10.1046 5.99999 9V8.9641L5.9689 8.98205C5.01232 9.53434 3.78914 9.20658 3.23685 8.25C2.68457 7.29342 3.01232 6.07023 3.9689 5.51795L3.99999 5.5L3.9689 5.48205C3.01232 4.92977 2.68457 3.70659 3.23685 2.75C3.78913 1.79341 5.01232 1.46566 5.9689 2.01795L5.99999 2.0359V2ZM9.99999 5.5C9.99999 6.60457 9.10456 7.5 7.99999 7.5C6.89542 7.5 5.99999 6.60457 5.99999 5.5C5.99999 4.39543 6.89542 3.5 7.99999 3.5C9.10456 3.5 9.99999 4.39543 9.99999 5.5Z" fill="#F7F0EA"/>
<path d="M7 16H6C3.23858 16 1 13.7614 1 11V10H2C4.76142 10 7 12.2386 7 15V16Z" fill="#F7F0EA"/>
<path d="M10 16H9V15C9 12.2386 11.2386 10 14 10H15V11C15 13.7614 12.7614 16 10 16Z" fill="#F7F0EA"/>
</g>
</g>
</svg>
