<svg width="16" height="16" viewBox="0 0 16 16" fill="none" xmlns="http://www.w3.org/2000/svg">
<g id="Chunk/Globe">
<g id="Icon">
<path d="M0.0618935 9C0.23247 10.3679 0.748404 11.6286 1.51969 12.692C1.56129 12.6687 1.60344 12.6454 1.64615 12.6221C3.13152 11.8119 5.29551 11 8 11C10.7045 11 12.8685 11.8119 14.3539 12.6221C14.3966 12.6454 14.4387 12.6687 14.4803 12.692C15.2516 11.6286 15.7675 10.3679 15.9381 9L0.0618935 9Z" fill="#F7F0EA"/>
<path d="M8 16C6.08212 16 4.32187 15.3251 2.94378 14.1999C4.18863 13.5745 5.90249 13 8 13C10.0975 13 11.8114 13.5745 13.0562 14.1999C11.6781 15.3251 9.91788 16 8 16Z" fill="#F7F0EA"/>
<path d="M2.94376 1.80013C4.32186 0.674886 6.08212 0 8 0C9.91787 0 11.6781 0.674878 13.0562 1.80011C11.8114 2.42547 10.0975 2.99999 7.99997 2.99999C5.90247 2.99999 4.18862 2.42549 2.94376 1.80013Z" fill="#F7F0EA"/>
<path d="M1.51968 3.30803C1.56127 3.33131 1.60342 3.3546 1.64612 3.37789C3.13149 4.18809 5.29548 4.99999 7.99997 4.99999C10.7045 4.99999 12.8685 4.18809 14.3538 3.37789C14.3965 3.35459 14.4387 3.33129 14.4803 3.308C15.2516 4.37141 15.7675 5.63208 15.9381 7L0.0618935 7C0.232469 5.63209 0.748399 4.37143 1.51968 3.30803Z" fill="#F7F0EA"/>
</g>
</g>
</svg>
