<svg width="16" height="16" viewBox="0 0 16 16" class="h-4 w-4" fill="currentColor" xmlns="http://www.w3.org/2000/svg">
<g id="Chunk/MicOff">
<g id="Icon">
<path d="M13 16H16L3 0H0L5 6.15385V7C5 8.65685 6.34315 10 8 10C8.0412 10 8.0822 9.99917 8.12299 9.99753L9.55081 11.7548C9.06258 11.914 8.54134 12 8 12C5.23858 12 3 9.76142 3 7V6H1V7C1 10.171 3.10851 12.8496 6 13.7101V16H10V13.7101C10.3005 13.6207 10.5926 13.5116 10.8748 13.3843L13 16Z" fill="inherit"/>
<path d="M6.38367 0.472212C6.85016 0.173309 7.40484 0 8 0C9.65685 0 11 1.34315 11 3V6.15385L6.38367 0.472212Z" fill="inherit"/>
<path d="M14.2506 10.1546C14.7299 9.20663 15 8.13485 15 7V6H13V7C13 7.47815 12.9329 7.94063 12.8076 8.37853L14.2506 10.1546Z" fill="inherit"/>
</g>
</g>
</svg>
