<svg width="16" height="16" viewBox="0 0 16 16" class="h-4 w-4" fill="currentColor" xmlns="http://www.w3.org/2000/svg">
<g id="Chunk/Planet">
<g id="Icon">
<path d="M2.34313 13.6569C1.78335 13.0971 1.32387 12.475 0.964684 11.8129C0.616724 12.3943 0.344087 12.943 0.180413 13.4311C0.0744537 13.7471 -0.0046342 14.0918 0.000211182 14.433C0.00512994 14.7793 0.101017 15.2121 0.444436 15.5556C0.787856 15.899 1.22074 15.9949 1.56705 15.9998C1.90818 16.0046 2.25291 15.9255 2.56888 15.8196C3.20464 15.6064 3.9433 15.2083 4.72317 14.6997C5.16617 14.4108 5.63715 14.0765 6.12819 13.7023C6.71718 13.8955 7.34639 14 8 14C11.3137 14 14 11.3137 14 8C14 7.34639 13.8955 6.71718 13.7023 6.12819C14.0765 5.63715 14.4108 5.16617 14.6997 4.72317C15.2083 3.9433 15.6064 3.20464 15.8196 2.56888C15.9255 2.25291 16.0046 1.90818 15.9998 1.56705C15.9949 1.22074 15.899 0.787856 15.5556 0.444436C15.2121 0.101017 14.7793 0.00512994 14.433 0.000211182C14.0918 -0.0046342 13.7471 0.0744537 13.4311 0.180413C12.943 0.344088 12.3943 0.616728 11.8129 0.964692C12.475 1.32388 13.0971 1.78336 13.6568 2.34314C13.6229 2.42485 13.5937 2.5021 13.5644 2.57924C13.4678 2.83415 13.3716 3.08794 13.1105 3.49729C13.0825 3.54116 13.0538 3.5856 13.0245 3.63061C12.9056 3.81291 12.7774 4.00163 12.6403 4.19604C12.6359 4.20221 12.6315 4.20838 12.6272 4.21457C11.7592 5.44256 10.5387 6.89539 9.07872 8.38692C9.06456 8.40138 9.05038 8.41585 9.03618 8.43032C8.93676 8.53161 8.83625 8.63307 8.73468 8.73465C8.61859 8.85073 8.50266 8.96543 8.38695 9.07868C6.88789 10.546 5.42794 11.7714 4.19603 12.6402C4.02541 12.7606 3.85917 12.8741 3.6978 12.9804L3.63064 13.0244C3.21434 13.2959 2.89189 13.4285 2.59865 13.5491C2.51151 13.585 2.42681 13.6198 2.34313 13.6569Z" fill="inherit"/>
<path d="M8 2C9.14392 2 10.2131 2.32012 11.1228 2.87567C10.2717 4.11121 8.95721 5.68369 7.32047 7.32043C5.6837 8.9572 4.11121 10.2717 2.87566 11.1227C2.32012 10.2131 2 9.14392 2 8C2 4.68629 4.68629 2 8 2Z" fill="inherit"/>
</g>
</g>
</svg>
