<svg width="16" height="16" viewBox="0 0 16 16" fill="none" xmlns="http://www.w3.org/2000/svg">
<g id="Chunk/Scribble">
<g id="Icon">
<path d="M13 0L16 3L10 9H7V6L13 0Z" fill="#F7F0EA"/>
<path d="M4.5 7C2.01472 7 0 9.01472 0 11.5C0 13.9853 2.01472 16 4.5 16H5C7.15758 16 8.66592 14.7466 9.83164 13.7649C11.1073 12.6907 11.9377 12 13 12C13.5523 12 14 12.4477 14 13C14 13.5523 13.5523 14 13 14V16C14.6569 16 16 14.6569 16 13C16 11.3431 14.6569 10 13 10C11.1789 10 9.81534 11.1566 8.74524 12.0643L8.74447 12.0649C8.67626 12.1228 8.60924 12.1796 8.54336 12.2351C7.33408 13.2534 6.34242 14 5 14H4.5C3.11929 14 2 12.8807 2 11.5C2 10.1193 3.11929 9 4.5 9H5V7H4.5Z" fill="#F7F0EA"/>
</g>
</g>
</svg>
