<svg width="16" height="16" viewBox="0 0 16 16" class="h-4 w-4" fill="currentColor" xmlns="http://www.w3.org/2000/svg">
<g id="Chunk/Strikethrough">
<g id="Icon">
<path d="M5 4.5C5 3.24054 6.21354 2 8 2C9.54821 2 10.6661 2.93171 10.9368 4H12.9704C12.6903 1.6548 10.4604 0 8 0C5.36818 0 3 1.89347 3 4.5C3 5.44609 3.312 6.29824 3.83536 7H1V9H15V7H8C6.21354 7 5 5.75946 5 4.5Z" fill="inherit"/>
<path d="M11 11.5C11 11.332 10.9784 11.1644 10.9368 11H12.9704C12.99 11.1634 13 11.3302 13 11.5C13 14.1065 10.6318 16 8 16C5.53963 16 3.30967 14.3452 3.02957 12H5.06323C5.33388 13.0683 6.45179 14 8 14C9.78646 14 11 12.7595 11 11.5Z" fill="inherit"/>
</g>
</g>
</svg>
