<svg width="16" height="16" viewBox="0 0 16 16" class="h-4 w-4" fill="currentColor" xmlns="http://www.w3.org/2000/svg">
<g id="Chunk/SunFog">
<g id="Icon">
<path d="M7 0H9V2H7V0Z" fill="inherit"/>
<path d="M1 9H7V11H1V9Z" fill="inherit"/>
<path d="M1 15V13H15V15H1Z" fill="inherit"/>
<path d="M15 9H9V11H15V9Z" fill="inherit"/>
<path d="M1.49731 4.22234L0.979675 6.15419L2.91153 6.67183L3.42917 4.73998L1.49731 4.22234Z" fill="inherit"/>
<path d="M14.5027 4.22234L15.0203 6.15419L13.0885 6.67183L12.5708 4.73998L14.5027 4.22234Z" fill="inherit"/>
<path d="M5 7C5 5.34315 6.34315 4 8 4C9.65685 4 11 5.34315 11 7H5Z" fill="inherit"/>
<path d="M11.468 0.837769L13.0547 2.05529L11.8371 3.642L10.2504 2.42448L11.468 0.837769Z" fill="inherit"/>
<path d="M4.53202 0.837767L2.94531 2.05529L4.16284 3.642L5.74954 2.42447L4.53202 0.837767Z" fill="inherit"/>
</g>
</g>
</svg>
