<svg width="16" height="16" viewBox="0 0 16 16" class="h-4 w-4" fill="currentColor" xmlns="http://www.w3.org/2000/svg">
<g id="Chunk/TemperatureMid">
<g id="Icon">
<path fillRule="evenodd" clipRule="evenodd" d="M3 6.99963C1.78555 7.91184 1 9.36418 1 11C1 13.7614 3.23858 16 6 16C8.76142 16 11 13.7614 11 11C11 9.36418 10.2144 7.91184 9 6.99963V0H3V6.99963ZM7 7V2H5V6.99963L7 7Z" fill="inherit"/>
<path d="M11 4H16V6H11V4Z" fill="inherit"/>
<path d="M16 0H13V2H16V0Z" fill="inherit"/>
<path d="M13 8H16V10H13V8Z" fill="inherit"/>
<path d="M16 12H13V14H16V12Z" fill="inherit"/>
</g>
</g>
</svg>
