<svg width="16" height="16" viewBox="0 0 16 16" class="h-4 w-4" fill="currentColor" xmlns="http://www.w3.org/2000/svg">
<g id="Chunk/Walk">
<g id="Icon">
<path d="M10 1.5C10 2.32843 9.32843 3 8.5 3C7.67157 3 7 2.32843 7 1.5C7 0.671573 7.67157 0 8.5 0C9.32843 0 10 0.671573 10 1.5Z" fill="inherit"/>
<path d="M2.83126 5.45056C3.07657 4.59195 3.86134 4 4.7543 4H7.73607L10.5456 5.40474L12.6286 4.57152L13.3714 6.42848L11.2883 7.2617C10.7579 7.47386 10.1621 7.44908 9.65113 7.1936L9.50113 7.1186L8.96638 9.2576L9.83841 9.75591C10.6164 10.2005 11.0037 11.1082 10.7864 11.9775L9.78078 16H7.71923L8.84613 11.4924L7.14999 10.5232L5.78078 16H3.71923L6.21923 6H4.7543L4.18288 8H2.10284L2.83126 5.45056Z" fill="inherit"/>
</g>
</g>
</svg>
