<svg width="16" height="16" viewBox="0 0 16 16" class="h-4 w-4" fill="currentColor" xmlns="http://www.w3.org/2000/svg">
<g id="Chunk/Wifi">
<g id="Icon">
<path d="M1.17157 5.82843L0 7L1.41421 8.41421L2.58579 7.24264C4.02173 5.8067 5.96928 5 8 5C10.0307 5 11.9783 5.8067 13.4142 7.24264L14.5858 8.41421L16 7L14.8284 5.82843C13.0174 4.01742 10.5612 3 8 3C5.43884 3 2.98259 4.01741 1.17157 5.82843Z" fill="inherit"/>
<path d="M13.1716 9.82842L12 8.65686C10.9391 7.59599 9.5003 7 8.00001 7C6.49971 7 5.06087 7.59599 4.00001 8.65685L2.82843 9.82843L4.24264 11.2426L5.41422 10.0711C6.10001 9.38527 7.03015 9 8.00001 9C8.96986 9 9.9 9.38527 10.5858 10.0711L11.7574 11.2426L13.1716 9.82842Z" fill="inherit"/>
<path d="M10.3432 12.6569L9.17158 11.4853C8.86086 11.1746 8.43943 11 8 11C7.56058 11 7.13915 11.1746 6.82843 11.4853L5.65686 12.6569L8.00001 15L10.3432 12.6569Z" fill="inherit"/>
</g>
</g>
</svg>
